{
.formatVersion = 3;
axes = (
{
name = Weight;
tag = wght;
}
);
classes = (
{
code = "A a a.cv02";
name = A;
},
{
code = "B b";
name = B;
},
{
code = "C c";
name = C;
},
{
code = "D d";
name = D;
},
{
code = "zero zero.zero one one.cv04 two three four five six seven eight nine";
name = Digit;
},
{
code = "E e";
name = E;
},
{
code = "F f";
name = F;
},
{
code = "G g g.cv05";
name = G;
},
{
code = "H h";
name = H;
},
{
code = "A a a.cv02 B b C c D d E e F f";
name = HexLetter;
},
{
code = "I i i.cv03 i.cv06";
name = I;
},
{
code = "J j J.cv07";
name = J;
},
{
code = "K k";
name = K;
},
{
code = "L l l.cv04";
name = L;
},
{
code = "M m";
name = M;
},
{
code = "N n";
name = N;
},
{
code = "braceleft braceright bracketleft bracketright parenleft parenright bar slash backslash";
name = NormalSeparator;
},
{
code = "O o";
name = O;
},
{
code = "one one.cv04";
name = One;
},
{
code = "P p";
name = P;
},
{
code = "Q q Q.cv01";
name = Q;
},
{
code = "R r";
name = R;
},
{
code = "S s";
name = S;
},
{
code = "T t";
name = T;
},
{
code = "U u";
name = U;
},
{

glyphs = (
{
glyphname = .notdef;
layers = (
{
layerId = "DA9EFFB3-F552-472D-9366-30BF08E10A4D";
shapes = (
{
closed = 1;
nodes = (
(90,650,ls),
(90,704,o),
(126,730,o),
(180,730,cs),
(420,730,ls),
(474,730,o),
(510,704,o),
(510,650,cs),
(510,80,ls),
(510,26,o),
(474,0,o),
(420,0,cs),
(180,0,ls),
(126,0,o),
(90,26,o),
(90,80,cs)
);
},
{
closed = 1;
nodes = (
(370,120,ls),
(397,120,o),
(400,123,o),
(400,150,cs),
(400,580,ls),
(400,607,o),
(397,610,o),
(370,610,cs),
(230,610,ls),
(203,610,o),
(200,607,o),
(200,580,cs),
(200,150,ls),
(200,123,o),
(203,120,o),
(230,120,cs)
);
},
{
closed = 1;
nodes = (
(135,52,l),
(365,680,l),
(465,680,l),
(235,52,l)
);
},
{
closed = 1;
nodes = (
(365,52,l),
(135,680,l),
(235,680,l),
(465,52,l)
);
}
);
width = 600;
},
{
layerId = "2F9F64D1-8101-471E-9D78-CA49E27A5E76";
shapes = (
{
closed = 1;
nodes = (
(100,650,ls),
(100,704,o),
(126,730,o),
(180,730,cs),
(420,730,ls),
(474,730,o),
(500,704,o),
(500,650,cs),
(500,80,ls),
(500,26,o),
(474,0,o),
(420,0,cs),
(180,0,ls),
(126,0,o),
(100,26,o),
(100,80,cs)
);
},
{
closed = 1;
nodes = (
(370,90,ls),
(397,90,o),
(410,103,o),
(410,130,cs),
(410,600,ls),
(410,627,o),
(397,640,o),
(370,640,cs),
(230,640,ls),
(203,640,o),
(190,627,o),
(190,600,cs),
(190,130,ls),
(190,103,o),
(203,90,o),
(230,90,cs)
);
},
{
closed = 1;
nodes = (
(145,52,l),
(375,680,l),
(455,680,l),
(225,52,l)
);
},
{
closed = 1;
nodes = (
(375,52,l),
(145,680,l),
(225,680,l),
(455,52,l)
);
}
);
width = 600;
},
{
layerId = "DE89D2D6-523F-41BC-8875-C89AC2ABC816";
shapes = (
{
closed = 1;
nodes = (
(110,660,ls),
(110,704,o),
(136,730,o),
(180,730,cs),
(420,730,ls),
(464,730,o),
(490,704,o),
(490,660,cs),
(490,70,ls),
(490,26,o),
(464,0,o),
(420,0,cs),
(180,0,ls),
(136,0,o),
(110,26,o),
(110,70,cs)
);
},
{
closed = 1;
nodes = (
(370,60,ls),
(407,60,o),
(430,83,o),
(430,120,cs),
(430,610,ls),
(430,647,o),
(407,670,o),
(370,670,cs),
(230,670,ls),
(193,670,o),
(170,647,o),
(170,610,cs),
(170,120,ls),
(170,83,o),
(193,60,o),
(230,60,cs)
);
},
{
closed = 1;
nodes = (
(145,42,l),
(395,690,l),
(455,690,l),
(205,42,l)
);
},
{
closed = 1;
nodes = (
(395,42,l),
(145,690,l),
(205,690,l),
(455,42,l)
);
}
);
width = 600;
}
);
},
{
color = (255, 204, 153, 255);
glyphname = A;
layers = (
{
anchors = (
{
name = bottom;
position = "{300, 0}";
},
{
name = ogonek;
position = "{465, 0}";
},
{
name = top;
position = "{300, 730}";
}
);
layerId = "DA9EFFB3-F552-472D-9366-30BF08E10A4D";
shapes = (
{
closed = 1;
nodes = (
(236,285,l),
(364,285,l),
(305,536,ls),
(303,545,o),
(297,545,o),
(295,536,cs)
);
},
{
closed = 1;
nodes = (
(392,165,l),
(208,165,l),
(179,39,ls),
(171,4,o),
(150,-10,o),
(109,-10,cs),
(48,-10,o),
(22,22,o),
(39,87,cs),
(181,647,ls),
(197,710,o),
(236,740,o),
(300,740,cs),
(364,740,o),
(403,710,o),
(419,647,cs),
(561,87,ls),
(578,22,o),
(549,-10,o),
(490,-10,cs),
(449,-10,o),
(429,6,o),
(421,39,cs)
);
}
);
width = 600;
},
{
anchors = (
{
name = bottom;
position = "{300, 0}";
},
{
name = ogonek;
position = "{500, 0}";
},
{
name = top;
position = "{300, 730}";
}
);
layerId = "2F9F64D1-8101-471E-9D78-CA49E27A5E76";
shapes = (
{
closed = 1;
nodes = (
(204,270,l),
(396,270,l),
(305,611,ls),
(303,619,o),
(297,619,o),
(295,611,cs)
);
},
{
closed = 1;
nodes = (
(416,194,l),
(184,194,l),
(137,19,ls),
(132,0,o),
(120,-10,o),
(95,-10,cs),
(60,-10,o),
(44,9,o),
(55,48,cs),
(225,681,ls),
(236,720,o),
(259,740,o),
(300,740,cs),
(341,740,o),
(364,720,o),
(375,681,cs),
(545,48,ls),
(556,9,o),
(540,-10,o),
(505,-10,cs),
(480,-10,o),
(468,0,o),
(463,19,cs)
);
}
);
width = 600;
},
{
anchors = (
{
name = bottom;
position = "{300, 0}";
},
{
name = ogonek;
position = "{495, 0}";
},
{
name = top;
position = "{300, 730}";
}
);
layerId = "DE89D2D6-523F-41BC-8875-C89AC2ABC816";
shapes = (
{
closed = 1;
nodes = (
(183,250,l),
(417,250,l),
(304,660,ls),
(302,666,o),
(298,666,o),
(296,660,cs)
);
},
{
closed = 1;
nodes = (
(431,200,l),
(169,200,l),
(116,7,ls),
(113,-4,o),
(107,-10,o),
(92,-10,cs),
(72,-10,o),
(63,1,o),
(69,23,cs),
(262,711,ls),
(267,730,o),
(280,740,o),
(300,740,cs),
(320,740,o),
(333,730,o),
(338,711,cs),
(531,23,ls),
(537,1,o),
(528,-10,o),
(508,-10,cs),
(493,-10,o),
(487,-4,o),
(484,7,cs)
);
}
);
width = 600;
}
);
unicode = 65;
},
{
glyphname = AE;
layers = (
{
anchors = (
{
name = top;
position = "{294, 730}";
},
{
name = bottom;
position = "{294, 0}";
}
);
layerId = "DA9EFFB3-F552-472D-9366-30BF08E10A4D";
shapes = (
{
closed = 1;
nodes = (
(291,581,ls),
(291,597,o),
(283,605,o),
(267,605,cs),
(251,605,o),
(241,597,o),
(238,581,cs),
(152,61,ls),
(144,14,o),
(118,-10,o),
(70,-10,cs),
(22,-10,o),
(2,13,o),
(11,60,cs),
(119,632,ls),
(131,698,o),
(170,730,o),
(237,730,cs),
(518,730,ls),
(560,730,o),
(580,710,o),
(580,668,cs),
(580,626,o),
(560,605,o),
(518,605,cs),
(441,605,ls),
(424,605,o),
(416,597,o),
(416,580,cs),
(416,436,l),
(489,436,ls),
(533,436,o),
(555,415,o),
(555,371,cs),
(555,327,o),
(533,305,o),
(489,305,cs),
(416,305,l),
(416,176,ls),
(416,142,o),
(433,126,o),
(466,126,cs),
(517,126,ls),
(559,126,o),
(580,105,o),
(580,63,cs),
(580,21,o),
(559,0,o),
(517,0,cs),
(391,0,ls),
(324,0,o),
(291,33,o),
(291,100,cs)
);
},
{
closed = 1;
nodes = (
(361,285,l),
(361,165,l),
(83,165,l),
(109,285,l)
);
}
);
width = 600;
},
{
anchors = (
{
name = top;
position = "{303, 730}";
},
{
name = bottom;
position = "{303, 0}";
}
);
layerId = "2F9F64D1-8101-471E-9D78-CA49E27A5E76";
shapes = (
{
closed = 1;
nodes = (
(302,620,ls),
(302,639,o),
(293,648,o),
(274,648,cs),
(255,648,o),
(245,639,o),
(241,621,c),
(128,35,ls),
(122,5,o),
(104,-10,o),
(74,-10,cs),
(44,-10,o),
(31,5,o),
(37,35,cs),
(159,652,ls),
(169,705,o),
(201,730,o),
(255,730,cs),
(530,730,ls),
(557,730,o),
(570,717,o),
(570,690,cs),
(570,663,o),
(557,648,o),
(530,648,cs),
(408,648,ls),
(395,648,o),
(388,641,o),
(388,628,cs),
(388,420,l),
(505,420,ls),
(532,420,o),
(545,407,o),
(545,380,cs),
(545,353,o),
(532,338,o),
(505,338,cs),
(388,338,l),
(388,122,ls),
(388,95,o),
(401,82,o),
(428,82,cs),
(530,82,ls),
(557,82,o),
(570,69,o),
(570,42,cs),
(570,15,o),
(557,0,o),
(530,0,cs),
(382,0,ls),
(328,0,o),
(302,26,o),
(302,80,cs)
);
},
{
closed = 1;
nodes = (
(347,270,l),
(347,194,l),
(104,194,l),
(123,270,l)
);
}
);
width = 600;
},
{
anchors = (
{
name = top;
position = "{302, 730}";
},
{
name = bottom;
position = "{302, 0}";
}
);
layerId = "DE89D2D6-523F-41BC-8875-C89AC2ABC816";
shapes = (
{
closed = 1;
nodes = (
(310,659,ls),
(310,676,o),
(302,685,o),
(285,685,cs),
(268,685,o),
(257,677,o),
(253,660,cs),
(87,14,ls),
(83,-2,o),
(73,-10,o),
(56,-10,cs),
(39,-10,o),
(33,-2,o),
(37,14,cs),
(207,672,ls),
(217,711,o),
(242,730,o),
(282,730,cs),
(546,730,ls),
(561,730,o),
(569,723,o),
(569,708,cs),
(569,693,o),
(562,685,o),
(547,685,cs),
(375,685,ls),
(365,685,o),
(360,680,o),
(360,670,cs),
(360,402,l),
(511,402,ls),
(526,402,o),
(533,395,o),
(533,380,cs),
(533,365,o),
(526,357,o),
(511,357,cs),
(360,357,l),
(360,75,ls),
(360,55,o),
(370,45,o),
(390,45,cs),
(547,45,ls),
(562,45,o),
(569,38,o),
(569,23,cs),
(569,8,o),
(561,0,o),
(546,0,cs),
(370,0,ls),
(330,0,o),
(310,20,o),
(310,60,cs)
);
},
{
closed = 1;
nodes = (
(333,250,l),
(333,200,l),
(105,200,l),
(118,250,l)
);
}
);
width = 600;
}
);
unicode = (198,1236);
},
{
color = (255, 204, 153, 255);
glyphname = B;
layers = (
{
anchors = (
{
name = bottom;
position = "{300, 0}";
},
{
name = top;
position = "{300, 730}";
}
);
layerId = "DA9EFFB3-F552-472D-9366-30BF08E10A4D";
shapes = (
{
closed = 1;
nodes = (
(301,730,ls),
(447,730,o),
(544,655,o),
(544,541,cs),
(544,459,o),
(494,397,o),
(422,387,c),
(504,378,o),
(561,304,o),
(561,210,cs),
(561,84,o),
(460,0,o),
(310,0,cs),
(166,0,ls),
(99,0,o),
(66,33,o),
(66,100,cs),
(66,630,ls),
(66,697,o),
(99,730,o),
(166,730,cs)
);
},
{
closed = 1;
nodes = (
(211,310,l),
(211,185,l),
(211,152,o),
(227,135,o),
(261,135,cs),
(305,135,ls),
(370,135,o),
(410,168,o),
(410,224,cs),
(410,280,o),
(370,310,o),
(305,310,cs)
);
},
{
closed = 1;
nodes = (
(211,450,l),
(299,450,ls),
(355,450,o),
(393,469,o),
(393,523,cs),
(393,577,o),
(355,595,o),
(299,595,cs),
(261,595,ls),
(227,595,o),
(211,578,o),
(211,545,cs)
);
}
);
width = 600;
},
{
anchors = (
{
name = bottom;
position = "{300, 0}";
},
{
name = top;
position = "{300, 730}";
}
);
layerId = "2F9F64D1-8101-471E-9D78-CA49E27A5E76";
shapes = (
{
closed = 1;
nodes = (
(301,730,ls),
(433,730,o),
(513,659,o),
(513,547,cs),
(513,456,o),
(461,396,o),
(385,381,c),
(471,370,o),
(530,305,o),
(530,201,cs),
(530,78,o),
(448,0,o),
(315,0,cs),
(174,0,ls),
(119,0,o),
(93,26,o),
(93,80,cs),
(93,650,ls),
(93,704,o),
(119,730,o),
(174,730,cs)
);
},
{
closed = 1;
nodes = (
(182,335,l),
(182,130,l),
(182,103,o),
(195,90,o),
(222,90,cs),
(305,90,ls),
(389,90,o),
(441,130,o),
(441,208,cs),
(441,287,o),
(389,335,o),
(305,335,cs)
);
},
{
closed = 1;
nodes = (
(182,425,l),
(300,425,ls),
(377,425,o),
(424,463,o),
(424,534,cs),
(424,605,o),
(378,640,o),
(301,640,cs),
(222,640,ls),
(195,640,o),
(182,627,o),
(182,600,cs)
);
}
);
width = 600;
},
{
anchors = (
{
name = bottom;
position = "{300, 0}";
},
{
name = top;
position = "{300, 730}";
}
);
layerId = "DE89D2D6-523F-41BC-8875-C89AC2ABC816";
shapes = (
{
closed = 1;
nodes = (
(298,730,ls),
(419,730,o),
(498,656,o),
(498,547,cs),
(498,457,o),
(445,382,o),
(375,377,c),
(461,367,o),
(515,298,o),
(515,200,cs),
(515,78,o),
(433,0,o),
(301,0,cs),
(170,0,ls),
(130,0,o),
(110,20,o),
(110,60,cs),
(110,670,ls),
(110,710,o),
(130,730,o),
(170,730,cs)
);
},
{
closed = 1;
nodes = (
(160,353,l),
(160,80,l),
(160,60,o),
(170,50,o),
(190,50,cs),
(301,50,ls),
(403,50,o),
(465,104,o),
(465,199,cs),
(465,294,o),
(403,353,o),
(301,353,cs)
);
},
{
closed = 1;
nodes = (
(160,398,l),
(298,398,ls),
(392,398,o),
(448,452,o),
(448,541,cs),
(448,630,o),
(391,680,o),
(298,680,cs),
(190,680,ls),
(170,680,o),
(160,670,o),
(160,650,cs)
);
}
);
width = 600;
}
);
unicode = 66;
},
{
color = (255, 204, 153, 255);
glyphname = C;
layers = (
{
anchors = (
{
name = top;
position = "{353, 730}";
},
{
name = bottom;
position = "{353, 0}";
}
);
layerId = "DA9EFFB3-F552-472D-9366-30BF08E10A4D";
shapes = (
{
closed = 1;
nodes = (
(50,567,o),
(134,740,o),
(357,740,cs),
(475,740,o),
(526,691,o),
(547,636,cs),
(563,593,o),
(558,553,o),
(526,537,cs),
(499,524,o),
(458,533,o),
(438,567,cs),
(425,589,o),
(398,608,o),
(353,608,cs),
(233,608,o),
(200,476,o),
(200,361,cs),
(200,260,o),
(225,125,o),
(354,125,cs),
(398,125,o),
(427,141,o),
(442,156,cs),
(468,182,o),
(504,180,o),
(527,157,cs),
(550,135,o),
(561,93,o),
(533,54,cs),
(498,6,o),
(425,-10,o),
(352,-10,cs),
(110,-10,o),
(50,169,o),
(50,351,cs)
);
}
);
width = 600;
},
{
anchors = (
{
name = top;
position = "{353, 730}";
},
{
name = bottom;
position = "{353, 0}";
}
);
layerId = "2F9F64D1-8101-471E-9D78-CA49E27A5E76";
shapes = (
{
closed = 1;
nodes = (
(60,569,o),
(143,740,o),
(356,740,cs),
(467,740,o),
(520,694,o),
(539,646,cs),
(551,614,o),
(543,594,o),
(525,583,cs),
(507,573,o),
(482,573,o),
(464,600,cs),
(447,625,o),
(409,650,o),
(351,650,cs),
(216,650,o),
(150,516,o),
(150,367,cs),
(150,238,o),
(200,80,o),
(358,80,cs),
(396,80,o),
(442,89,o),
(467,108,cs),
(490,126,o),
(516,123,o),
(533,106,cs),
(550,89,o),
(552,63,o),
(526,37,cs),
(486,-3,o),
(415,-10,o),
(354,-10,cs),
(141,-10,o),
(60,168,o),
(60,367,cs)
);
}
);
width = 600;
},
{
anchors = (
{
name = top;
position = "{349, 730}";
},
{
name = bottom;
position = "{349, 0}";
}
);
layerId = "DE89D2D6-523F-41BC-8875-C89AC2ABC816";
shapes = (
{
closed = 1;
nodes = (
(70,569,o),
(151,740,o),
(353,740,cs),
(447,740,o),
(505,703,o),
(522,669,cs),
(530,653,o),
(531,634,o),
(516,627,cs),
(506,622,o),
(492,625,o),
(484,639,cs),
(472,662,o),
(425,690,o),
(374,690,cs),
(187,690,o),
(120,522,o),
(120,366,cs),
(120,220,o),
(179,40,o),
(358,40,cs),
(391,40,o),
(452,46,o),
(480,67,cs),
(498,81,o),
(515,78,o),
(523,68,cs),
(530,59,o),
(531,43,o),
(522,36,cs),
(476,-3,o),
(415,-10,o),
(358,-10,cs),
(149,-10,o),
(70,168,o),
(70,367,cs)
);
}
);
width = 600;
}
);
unicode = 67;
},
{
color = (255, 204, 153, 255);
glyphname = D;
layers = (
{
anchors = (
{
name = bottom;
position = "{300, 0}";
},
{
name = center;
position = "{300, 365}";
},
{
name = top;
position = "{300, 730}";
}
);
layerId = "DA9EFFB3-F552-472D-9366-30BF08E10A4D";
shapes = (
{
closed = 1;
nodes = (
(153,0,ls),
(93,0,o),
(63,30,o),
(63,90,cs),
(63,640,ls),
(63,700,o),
(93,730,o),
(153,730,cs),
(270,730,ls),
(500,730,o),
(564,572,o),
(564,364,cs),
(564,161,o),
(503,0,o),
(270,0,cs)
);
},
{
closed = 1;
nodes = (
(213,175,ls),
(213,148,o),
(226,135,o),
(253,135,cs),
(270,135,ls),
(399,135,o),
(421,257,o),
(421,370,cs),
(421,475,o),
(402,595,o),
(270,595,cs),
(253,595,ls),
(226,595,o),
(213,582,o),
(213,555,cs)
);
}
);
width = 600;
},
{
anchors = (
{
name = bottom;
position = "{300, 0}";
},
{
name = center;
position = "{300, 365}";
},
{
name = top;
position = "{300, 730}";
}
);
layerId = "2F9F64D1-8101-471E-9D78-CA49E27A5E76";
shapes = (
{
closed = 1;
nodes = (
(172,0,ls),
(118,0,o),
(92,26,o),
(92,80,cs),
(92,650,ls),
(92,704,o),
(118,730,o),
(172,730,cs),
(261,730,ls),
(473,730,o),
(528,559,o),
(528,361,cs),
(528,182,o),
(483,0,o),
(261,0,cs)
);
},
{
closed = 1;
nodes = (
(182,130,ls),
(182,103,o),
(195,90,o),
(222,90,cs),
(261,90,ls),
(416,90,o),
(446,243,o),
(446,365,cs),
(446,489,o),
(415,640,o),
(261,640,cs),
(222,640,ls),
(195,640,o),
(182,627,o),
(182,600,cs)
);
}
);
width = 600;
},
{
anchors = (
{
name = bottom;
position = "{300, 0}";
},
{
name = center;
position = "{300, 365}";
},
{
name = top;
position = "{300, 730}";
}
);
layerId = "DE89D2D6-523F-41BC-8875-C89AC2ABC816";
shapes = (
{
closed = 1;
nodes = (
(181,0,ls),
(133,0,o),
(110,23,o),
(110,70,cs),
(110,660,ls),
(110,707,o),
(133,730,o),
(181,730,cs),
(231,730,ls),
(464,730,o),
(504,572,o),
(504,356,cs),
(504,166,o),
(473,0,o),
(231,0,cs)
);
},
{
closed = 1;
nodes = (
(161,85,ls),
(161,62,o),
(173,50,o),
(196,50,cs),
(231,50,ls),
(435,50,o),
(453,191,o),
(453,362,cs),
(453,537,o),
(434,680,o),
(231,680,cs),
(196,680,ls),
(173,680,o),
(161,668,o),
(161,645,cs)
);
}
);
width = 600;
}
);
unicode = 68;
},
{
color = (255, 204, 153, 255);
glyphname = E;
layers = (
{
anchors = (
{
name = bottom;
position = "{315, 0}";
},
{
name = ogonek;
position = "{440, 0}";
},
{
name = top;
position = "{315, 730}";
}
);
layerId = "DA9EFFB3-F552-472D-9366-30BF08E10A4D";
shapes = (
{
closed = 1;
nodes = (
(230,440,l),
(433,440,ls),
(475,440,o),
(500,417,o),
(500,375,cs),
(500,333,o),
(475,310,o),
(433,310,cs),
(230,310,l),
(230,170,ls),
(230,143,o),
(243,130,o),
(270,130,cs),
(465,130,ls),
(509,130,o),
(530,109,o),
(530,65,cs),
(530,21,o),
(509,0,o),
(465,0,cs),
(180,0,ls),
(113,0,o),
(80,33,o),
(80,100,cs),
(80,630,ls),
(80,697,o),
(113,730,o),
(180,730,cs),
(465,730,ls),
(509,730,o),
(530,709,o),
(530,665,cs),
(530,621,o),
(509,600,o),
(465,600,cs),
(270,600,ls),
(241,600,o),
(230,588,o),
(230,560,cs)
);
}
);
width = 600;
},
{
anchors = (
{
name = bottom;
position = "{315, 0}";
},
{
name = ogonek;
position = "{440, 0}";
},
{
name = top;
position = "{315, 730}";
}
);
layerId = "2F9F64D1-8101-471E-9D78-CA49E27A5E76";
shapes = (
{
closed = 1;
nodes = (
(190,427,l),
(445,427,ls),
(472,427,o),
(490,409,o),
(490,382,cs),
(490,355,o),
(472,337,o),
(445,337,cs),
(190,337,l),
(190,130,ls),
(190,103,o),
(203,90,o),
(230,90,cs),
(479,90,ls),
(506,90,o),
(520,72,o),
(520,45,cs),
(520,18,o),
(506,0,o),
(479,0,cs),
(180,0,ls),
(126,0,o),
(100,26,o),
(100,80,cs),
(100,650,ls),
(100,704,o),
(126,730,o),
(180,730,cs),
(479,730,ls),
(506,730,o),
(520,712,o),
(520,685,cs),
(520,658,o),
(506,640,o),
(479,640,cs),
(230,640,ls),
(203,640,o),
(190,627,o),
(190,600,cs)
);
}
);
width = 600;
},
{
anchors = (
{
name = bottom;
position = "{315, 0}";
},
{
name = ogonek;
position = "{440, 0}";
},
{
name = top;
position = "{315, 730}";
}
);
layerId = "DE89D2D6-523F-41BC-8875-C89AC2ABC816";
shapes = (
{
closed = 1;
nodes = (
(170,406,l),
(453,406,ls),
(468,406,o),
(475,396,o),
(475,381,cs),
(475,366,o),
(468,356,o),
(453,356,cs),
(170,356,l),
(170,85,ls),
(170,62,o),
(182,50,o),
(205,50,cs),
(487,50,ls),
(502,50,o),
(510,40,o),
(510,25,cs),
(510,10,o),
(502,0,o),
(487,0,cs),
(190,0,ls),
(143,0,o),
(120,23,o),
(120,70,cs),
(120,660,ls),
(120,707,o),
(143,730,o),
(190,730,cs),
(487,730,ls),
(502,730,o),
(510,720,o),
(510,705,cs),
(510,690,o),
(502,680,o),
(487,680,cs),
(205,680,ls),
(182,680,o),
(170,668,o),
(170,645,cs)
);
}
);
width = 600;
}
);
unicode = 69;
},
{
glyphname = Eopen;
layers = (
{
layerId = "DA9EFFB3-F552-472D-9366-30BF08E10A4D";
shapes = (
{
closed = 1;
nodes = (
(555,561,o),
(522,520,o),
(451,520,cs),
(424,520,o),
(410,531,o),
(391,568,cs),
(376,598,o),
(346,616,o),
(307,616,cs),
(255,616,o),
(214,583,o),
(214,529,cs),
(214,465,o),
(254,440,o),
(301,440,cs),
(329,440,ls),
(371,440,o),
(391,420,o),
(391,378,cs),
(391,336,o),
(371,316,o),
(329,316,cs),
(301,316,ls),
(246,316,o),
(196,288,o),
(196,217,cs),
(196,152,o),
(249,118,o),
(309,118,cs),
(348,118,o),
(389,132,o),
(409,163,cs),
(432,198,o),
(448,210,o),
(471,210,cs),
(542,210,o),
(575,168,o),
(547,114,cs),
(505,31,o),
(409,-10,o),
(309,-10,cs),
(177,-10,o),
(44,59,o),
(44,207,cs),
(44,291,o),
(95,368,o),
(179,386,c),
(105,399,o),
(64,469,o),
(64,541,cs),
(64,676,o),
(184,740,o),
(305,740,cs),
(403,740,o),
(491,696,o),
(529,616,cs)
);
}
);
width = 600;
},
{
layerId = "2F9F64D1-8101-471E-9D78-CA49E27A5E76";
shapes = (
{
closed = 1;
nodes = (
(531,553,o),
(510,530,o),
(468,530,cs),
(449,530,o),
(439,539,o),
(435,560,cs),
(423,622,o),
(373,660,o),
(305,660,cs),
(234,660,o),
(179,616,o),
(179,542,cs),
(179,448,o),
(250,420,o),
(308,420,cs),
(354,420,ls),
(381,420,o),
(394,407,o),
(394,380,cs),
(394,353,o),
(381,340,o),
(354,340,cs),
(308,340,ls),
(226,340,o),
(158,292,o),
(158,205,cs),
(158,118,o),
(226,70,o),
(308,70,cs),
(377,70,o),
(440,104,o),
(455,170,cs),
(460,191,o),
(469,200,o),
(488,200,cs),
(530,200,o),
(550,178,o),
(539,141,cs),
(511,43,o),
(416,-10,o),
(309,-10,cs),
(183,-10,o),
(66,61,o),
(66,199,cs),
(66,286,o),
(116,368,o),
(206,384,c),
(131,403,o),
(89,477,o),
(89,551,cs),
(89,674,o),
(191,740,o),
(305,740,cs),
(411,740,o),
(496,685,o),
(521,590,cs)
);
}
);
width = 600;
},
{
layerId = "DE89D2D6-523F-41BC-8875-C89AC2ABC816";
shapes = (
{
closed = 1;
nodes = (
(519,541,o),
(508,530,o),
(485,530,cs),
(474,530,o),
(468,536,o),
(467,547,cs),
(460,635,o),
(398,696,o),
(306,696,cs),
(218,696,o),
(153,639,o),
(153,549,cs),
(153,458,o),
(217,401,o),
(306,401,cs),
(353,401,ls),
(368,401,o),
(375,394,o),
(375,379,cs),
(375,364,o),
(367,356,o),
(352,356,cs),
(310,356,ls),
(213,356,o),
(133,299,o),
(133,196,cs),
(133,93,o),
(213,35,o),
(310,35,cs),
(402,35,o),
(478,86,o),
(486,179,cs),
(487,190,o),
(493,196,o),
(504,196,cs),
(527,196,o),
(538,184,o),
(535,163,cs),
(519,52,o),
(424,-10,o),
(310,-10,cs),
(187,-10,o),
(83,63,o),
(83,194,cs),
(83,282,o),
(137,360,o),
(224,381,c),
(147,397,o),
(103,471,o),
(103,547,cs),
(103,665,o),
(191,740,o),
(306,740,cs),
(421,740,o),
(502,670,o),
(516,563,cs)
);
}
);
width = 600;
}
);
unicode = 400;
},
{
glyphname = Schwa;
layers = (
{
layerId = "DA9EFFB3-F552-472D-9366-30BF08E10A4D";
shapes = (
{
closed = 1;
nodes = (
(185,310,ls),
(176,310,o),
(172,305,o),
(173,296,cs),
(186,158,o),
(223,115,o),
(295,115,cs),
(405,115,o),
(430,227,o),
(426,310,c)
);
},
{
closed = 1;
nodes = (
(476,740,o),
(568,593,o),
(568,373,cs),
(568,143,o),
(477,-10,o),
(295,-10,cs),
(104,-10,o),
(37,131,o),
(37,365,cs),
(37,409,o),
(57,430,o),
(98,430,cs),
(430,430,l),
(430,550,o),
(360,620,o),
(285,620,cs),
(214,620,o),
(180,592,o),
(153,558,cs),
(140,541,o),
(130,537,o),
(113,537,cs),
(79,537,o),
(52,567,o),
(52,598,cs),
(52,615,o),
(59,632,o),
(71,645,cs),
(120,698,o),
(185,740,o),
(295,740,cs)
);
}
);
width = 600;
},
{
layerId = "2F9F64D1-8101-471E-9D78-CA49E27A5E76";
shapes = (
{
closed = 1;
nodes = (
(171,330,ls),
(160,330,o),
(155,327,o),
(155,314,cs),
(155,160,o),
(205,80,o),
(300,80,cs),
(430,80,o),
(460,230,o),
(460,330,c)
);
},
{
closed = 1;
nodes = (
(453,740,o),
(550,612,o),
(550,373,cs),
(550,145,o),
(475,-10,o),
(300,-10,cs),
(126,-10,o),
(58,127,o),
(58,373,cs),
(58,397,o),
(77,420,o),
(105,420,cs),
(460,420,l),
(460,527,o),
(419,650,o),
(290,650,cs),
(209,650,o),
(158,607,o),
(134,577,cs),
(127,568,o),
(124,568,o),
(114,568,cs),
(89,568,o),
(70,590,o),
(70,612,cs),
(70,624,o),
(77,634,o),
(83,642,cs),
(133,701,o),
(193,740,o),
(293,740,cs)
);
}
);
width = 600;
},
{
layerId = "DE89D2D6-523F-41BC-8875-C89AC2ABC816";
shapes = (
{
closed = 1;
nodes = (
(126,342,ls),
(120,342,o),
(118,339,o),
(118,332,cs),
(118,151,o),
(170,40,o),
(300,40,cs),
(461,40,o),
(484,221,o),
(484,342,c)
);
},
{
closed = 1;
nodes = (
(468,740,o),
(538,594,o),
(538,373,cs),
(538,142,o),
(480,-10,o),
(300,-10,cs),
(120,-10,o),
(68,128,o),
(68,362,cs),
(68,377,o),
(79,392,o),
(95,392,cs),
(487,392,l),
(487,512,o),
(447,690,o),
(295,690,cs),
(209,690,o),
(164,647,o),
(130,611,cs),
(121,601,o),
(116,596,o),
(108,596,cs),
(93,596,o),
(81,614,o),
(81,628,cs),
(81,635,o),
(84,641,o),
(89,646,cs),
(140,700,o),
(190,740,o),
(295,740,cs)
);
}
);
width = 600;
}
);
unicode = 399;
},
{
color = (255, 204, 153, 255);
glyphname = F;
layers = (
{
anchors = (
{
name = top;
position = "{305, 730}";
},
{
name = bottom;
position = "{305, 0}";
}
);
layerId = "DA9EFFB3-F552-472D-9366-30BF08E10A4D";
shapes = (
{
closed = 1;
nodes = (
(220,436,l),
(452,436,ls),
(494,436,o),
(514,416,o),
(514,374,cs),
(514,332,o),
(494,312,o),
(452,312,cs),
(220,312,l),
(220,65,ls),
(220,15,o),
(195,-10,o),
(145,-10,cs),
(95,-10,o),
(70,15,o),
(70,65,cs),
(70,640,ls),
(70,700,o),
(100,730,o),
(160,730,cs),
(475,730,ls),
(519,730,o),
(540,709,o),
(540,665,cs),
(540,621,o),
(519,600,o),
(475,600,cs),
(260,600,ls),
(233,600,o),
(220,588,o),
(220,560,cs)
);
}
);
width = 600;
},
{
anchors = (
{
name = top;
position = "{310, 730}";
},
{
name = bottom;
position = "{310, 0}";
}
);
layerId = "2F9F64D1-8101-471E-9D78-CA49E27A5E76";
shapes = (
{
closed = 1;
nodes = (
(185,427,l),
(459,427,ls),
(486,427,o),
(499,414,o),
(499,387,cs),
(499,360,o),
(486,347,o),
(459,347,cs),
(185,347,l),
(185,35,ls),
(185,5,o),
(170,-10,o),
(140,-10,cs),
(110,-10,o),
(95,5,o),
(95,35,cs),
(95,650,ls),
(95,704,o),
(121,730,o),
(175,730,cs),
(480,730,ls),
(510,730,o),
(525,715,o),
(525,685,cs),
(525,655,o),
(510,640,o),
(480,640,cs),
(225,640,ls),
(198,640,o),
(185,627,o),
(185,600,cs)
);
}
);
width = 600;
},
{
anchors = (
{
name = top;
position = "{320, 730}";
},
{
name = bottom;
position = "{320, 0}";
}
);
layerId = "DE89D2D6-523F-41BC-8875-C89AC2ABC816";
shapes = (
{
closed = 1;
nodes = (
(165,406,l),
(465,406,ls),
(482,406,o),
(490,398,o),
(490,381,cs),
(490,364,o),
(482,356,o),
(465,356,cs),
(165,356,l),
(165,15,ls),
(165,-2,o),
(157,-10,o),
(140,-10,cs),
(123,-10,o),
(115,-2,o),
(115,15,cs),
(115,660,ls),
(115,707,o),
(138,730,o),
(185,730,cs),
(500,730,ls),
(517,730,o),
(525,722,o),
(525,705,cs),
(525,688,o),
(517,680,o),
(500,680,cs),
(200,680,ls),
(177,680,o),
(165,668,o),
(165,645,cs)
);
}
);
width = 600;
}
);
unicode = 70;
},
{
color = (255, 204, 153, 255);
glyphname = G;
layers = (
{
anchors = (
{
name = top;
position = "{286, 730}";
},
{
name = bottom;
position = "{286, 0}";
}
);
layerId = "DA9EFFB3-F552-472D-9366-30BF08E10A4D";
shapes = (
{
closed = 1;
nodes = (
(418,248,ls),
(418,275,o),
(405,288,o),
(378,288,cs),
(340,288,ls),
(300,288,o),
(280,308,o),
(280,348,cs),
(280,388,o),
(300,408,o),
(340,408,cs),
(428,408,ls),
(508,408,o),
(548,368,o),
(548,288,cs),
(548,206,ls),
(548,88,o),
(468,-10,o),
(309,-10,cs),
(83,-10,o),
(20,186,o),
(24,365,cs),
(29,558,o),
(81,740,o),
(293,740,cs),
(389,740,o),
(482,703,o),
(518,621,cs),
(546,559,o),
(519,520,o),
(452,520,cs),
(420,520,o),
(405,529,o),
(399,546,cs),
(389,573,o),
(349,605,o),
(300,605,cs),
(191,605,o),
(175,443,o),
(173,365,cs),
(171,278,o),
(182,125,o),
(300,125,cs),
(378,125,o),
(418,160,o),
(418,210,cs)
);
}
);
width = 600;
},
{
anchors = (
{
name = top;
position = "{285, 730}";
},
{
name = bottom;
position = "{285, 0}";
}
);
layerId = "2F9F64D1-8101-471E-9D78-CA49E27A5E76";
shapes = (
{
closed = 1;
nodes = (
(428,270,ls),
(428,297,o),
(415,300,o),
(388,300,cs),
(325,300,ls),
(295,300,o),
(280,315,o),
(280,345,cs),
(280,375,o),
(295,390,o),
(325,390,cs),
(438,390,ls),
(492,390,o),
(518,364,o),
(518,310,cs),
(518,200,ls),
(518,54,o),
(414,-10,o),
(300,-10,cs),
(92,-10,o),
(49,200,o),
(52,365,cs),
(56,535,o),
(87,741,o),
(301,741,cs),
(410,741,o),
(474,689,o),
(505,589,cs),
(516,552,o),
(499,531,o),
(462,531,cs),
(439,531,o),
(427,539,o),
(419,568,cs),
(404,624,o),
(360,651,o),
(303,651,cs),
(155,651,o),
(144,471,o),
(142,365,cs),
(140,255,o),
(152,80,o),
(308,80,cs),
(375,80,o),
(428,113,o),
(428,200,cs)
);
}
);
width = 600;
},
{
anchors = (
{
name = top;
position = "{294, 730}";
},
{
name = bottom;
position = "{294, 0}";
}
);
layerId = "DE89D2D6-523F-41BC-8875-C89AC2ABC816";
shapes = (
{
closed = 1;
nodes = (
(460,288,ls),
(460,308,o),
(450,318,o),
(430,318,cs),
(305,318,ls),
(288,318,o),
(280,326,o),
(280,343,cs),
(280,360,o),
(288,368,o),
(305,368,cs),
(450,368,ls),
(490,368,o),
(510,348,o),
(510,308,cs),
(510,200,ls),
(510,63,o),
(450,-10,o),
(300,-10,cs),
(110,-10,o),
(78,213,o),
(78,361,cs),
(78,514,o),
(97,741,o),
(306,741,cs),
(423,741,o),
(476,670,o),
(504,564,cs),
(510,543,o),
(500,531,o),
(479,531,cs),
(466,531,o),
(460,536,o),
(457,547,cs),
(436,635,o),
(384,691,o),
(300,691,cs),
(139,691,o),
(128,479,o),
(128,368,cs),
(128,242,o),
(142,40,o),
(300,40,cs),
(413,40,o),
(460,93,o),
(460,200,cs)
);
}
);
width = 600;
}
);
unicode = 71;
},
{
color = (255, 204, 153, 255);
glyphname = H;
layers = (
{
anchors = (
{
name = bottom;
position = "{300, 0}";
},
{
name = center;
position = "{300, 365}";
},
{
name = top;
position = "{300, 730}";
}
);
layerId = "DA9EFFB3-F552-472D-9366-30BF08E10A4D";
shapes = (
{
closed = 1;
nodes = (
(384,309,l),
(216,309,l),
(216,65,ls),
(216,15,o),
(191,-10,o),
(141,-10,cs),
(91,-10,o),
(66,15,o),
(66,65,cs),
(66,665,ls),
(66,715,o),
(91,740,o),
(141,740,cs),
(191,740,o),
(216,715,o),
(216,665,cs),
(216,449,l),
(384,449,l),
(384,665,ls),
(384,715,o),
(409,740,o),
(459,740,cs),
(509,740,o),
(534,715,o),
(534,665,cs),
(534,65,ls),
(534,15,o),
(509,-10,o),
(459,-10,cs),
(409,-10,o),
(384,15,o),
(384,65,cs)
);
}
);
width = 600;
},
{
anchors = (
{
name = bottom;
position = "{300, 0}";
},
{
name = center;
position = "{300, 365}";
},
{
name = top;
position = "{300, 730}";
}
);
layerId = "2F9F64D1-8101-471E-9D78-CA49E27A5E76";
shapes = (
{
closed = 1;
nodes = (
(417,332,l),
(183,332,l),
(183,35,ls),
(183,5,o),
(168,-10,o),
(138,-10,cs),
(108,-10,o),
(93,5,o),
(93,35,cs),
(93,695,ls),
(93,725,o),
(108,740,o),
(138,740,cs),
(168,740,o),
(183,725,o),
(183,695,cs),
(183,422,l),
(417,422,l),
(417,695,ls),
(417,725,o),
(432,740,o),
(462,740,cs),
(492,740,o),
(507,725,o),
(507,695,cs),
(507,35,ls),
(507,5,o),
(492,-10,o),
(462,-10,cs),
(432,-10,o),
(417,5,o),
(417,35,cs)
);
}
);
width = 600;
},
{
anchors = (
{
name = bottom;
position = "{300, 0}";
},
{
name = center;
position = "{300, 365}";
},
{
name = top;
position = "{300, 730}";
}
);
layerId = "DE89D2D6-523F-41BC-8875-C89AC2ABC816";
shapes = (
{
closed = 1;
nodes = (
(440,355,l),
(160,355,l),
(160,15,ls),
(160,-2,o),
(152,-10,o),
(135,-10,cs),
(118,-10,o),
(110,-2,o),
(110,15,cs),
(110,705,ls),
(110,722,o),
(118,730,o),
(135,730,cs),
(152,730,o),
(160,722,o),
(160,705,cs),
(160,405,l),
(440,405,l),
(440,705,ls),
(440,722,o),
(448,730,o),
(465,730,cs),
(482,730,o),
(490,722,o),
(490,705,cs),
(490,15,ls),
(490,-2,o),
(482,-10,o),
(465,-10,cs),
(448,-10,o),
(440,-2,o),
(440,15,cs)
);
}
);
width = 600;
}
);
unicode = 72;
},
{
color = (255, 204, 153, 255);
glyphname = I;
layers = (
{
anchors = (
{
name = top;
position = "{300, 730}";
},
{
name = bottom;
position = "{300, 0}";
},
{
name = ogonek;
position = "{320, 0}";
}
);
layerId = "DA9EFFB3-F552-472D-9366-30BF08E10A4D";
shapes = (
{
closed = 1;
nodes = (
(375,135,l),
(452,135,ls),
(497,135,o),
(520,113,o),
(520,68,cs),
(520,23,o),
(497,0,o),
(452,0,cs),
(148,0,ls),
(103,0,o),
(80,23,o),
(80,68,cs),
(80,113,o),
(103,135,o),
(148,135,cs),
(225,135,l),
(225,595,l),
(148,595,ls),
(103,595,o),
(80,618,o),
(80,663,cs),
(80,708,o),
(103,730,o),
(148,730,cs),
(452,730,ls),
(497,730,o),
(520,708,o),
(520,663,cs),
(520,618,o),
(497,595,o),
(452,595,cs),
(375,595,l)
);
}
);
width = 600;
},
{
anchors = (
{
name = top;
position = "{300, 730}";
},
{
name = bottom;
position = "{300, 0}";
},
{
name = ogonek;
position = "{320, 0}";
}
);
layerId = "2F9F64D1-8101-471E-9D78-CA49E27A5E76";
shapes = (
{
closed = 1;
nodes = (
(346,90,l),
(450,90,ls),
(477,90,o),
(495,72,o),
(495,45,cs),
(495,18,o),
(477,0,o),
(450,0,cs),
(150,0,ls),
(123,0,o),
(105,18,o),
(105,45,cs),
(105,72,o),
(123,90,o),
(150,90,cs),
(254,90,l),
(254,640,l),
(150,640,ls),
(123,640,o),
(105,658,o),
(105,685,cs),
(105,712,o),
(123,730,o),
(150,730,cs),
(450,730,ls),
(477,730,o),
(495,712,o),
(495,685,cs),
(495,658,o),
(477,640,o),
(450,640,cs),
(346,640,l)
);
}
);
width = 600;
},
{
anchors = (
{
name = top;
position = "{300, 730}";
},
{
name = bottom;
position = "{300, 0}";
},
{
name = ogonek;
position = "{320, 0}";
}
);
layerId = "DE89D2D6-523F-41BC-8875-C89AC2ABC816";
shapes = (
{
closed = 1;
nodes = (
(324,50,l),
(455,50,ls),
(470,50,o),
(480,40,o),
(480,25,cs),
(480,10,o),
(470,0,o),
(455,0,cs),
(145,0,ls),
(130,0,o),
(120,10,o),
(120,25,cs),
(120,40,o),
(130,50,o),
(145,50,cs),
(276,50,l),
(276,680,l),
(145,680,ls),
(130,680,o),
(120,690,o),
(120,705,cs),
(120,720,o),
(130,730,o),
(145,730,cs),
(455,730,ls),
(470,730,o),
(480,720,o),
(480,705,cs),
(480,690,o),
(470,680,o),
(455,680,cs),
(324,680,l)
);
}
);
width = 600;
}
);
unicode = 73;
},
{
glyphname = IJ;
layers = (
{
layerId = "DA9EFFB3-F552-472D-9366-30BF08E10A4D";
shapes = (
{
closed = 1;
nodes = (
(98,595,ls),
(53,595,o),
(30,618,o),
(30,663,cs),
(30,708,o),
(53,730,o),
(98,730,cs),
(440,730,ls),
(520,730,o),
(560,690,o),
(560,610,cs),
(560,149,ls),
(560,43,o),
(426,-80,o),
(310,-80,qs),
(196,-80,o),
(128,-17,qs),
(91,17,o),
(74,64,qs),
(55,116,o),
(85,151,o),
(148,151,cs),
(177,151,o),
(197,135,o),
(226,91,c),
(231,84,o),
(237,78,qs),
(264,51,o),
(310,50,q),
(356,50,o),
(410,103,o),
(410,149,qs),
(410,545,ls),
(410,579,o),
(393,595,o),
(360,595,cs),
(275,595,l),
(275,335,l),
(302,335,ls),
(347,335,o),
(370,313,o),
(370,268,cs),
(370,223,o),
(347,200,o),
(302,200,cs),
(98,200,ls),
(53,200,o),
(30,223,o),
(30,268,cs),
(30,313,o),
(53,335,o),
(98,335,cs),
(125,335,l),
(125,595,l)
);
}
);
width = 600;
},
{
layerId = "2F9F64D1-8101-471E-9D78-CA49E27A5E76";
shapes = (
{
closed = 1;
nodes = (
(103,640,ls),
(76,640,o),
(58,658,o),
(58,685,cs),
(58,712,o),
(76,730,o),
(103,730,cs),
(465,730,ls),
(519,730,o),
(545,704,o),
(545,650,cs),
(545,140,ls),
(545,38,o),
(424,-80,o),
(320,-80,qs),
(215,-80,o),
(155,-21,qs),
(109,24,o),
(98,95,qs),
(94,124,o),
(109,140,o),
(140,140,cs),
(168,140,o),
(182,127,o),
(190,95,cs),
(199,62,o),
(221,42,qs),
(257,10,o),
(320,10,qs),
(384,9,o),
(455,73,o),
(455,140,qs),
(455,600,ls),
(455,627,o),
(442,640,o),
(415,640,cs),
(249,640,l),
(249,290,l),
(303,290,ls),
(330,290,o),
(348,272,o),
(348,245,cs),
(348,218,o),
(330,200,o),
(303,200,cs),
(103,200,ls),
(76,200,o),
(58,218,o),
(58,245,cs),
(58,272,o),
(76,290,o),
(103,290,cs),
(157,290,l),
(157,640,l)
);
}
);
width = 600;
},
{
layerId = "DE89D2D6-523F-41BC-8875-C89AC2ABC816";
shapes = (
{
closed = 1;
nodes = (
(75,680,ls),
(60,680,o),
(50,690,o),
(50,705,cs),
(50,720,o),
(60,730,o),
(75,730,cs),
(470,730,ls),
(510,730,o),
(530,710,o),
(530,670,cs),
(530,129,ls),
(530,32,o),
(420,-80,o),
(325,-80,qs),
(230,-80,o),
(175,-24,qs),
(128,25,o),
(121,105,qs),
(120,121,o),
(128,130,o),
(145,130,cs),
(161,130,o),
(169,122,o),
(171,105,cs),
(177,46,o),
(212,12,qs),
(254,-30,o),
(325,-30,qs),
(397,-31,o),
(480,53,o),
(480,129,qs),
(480,650,ls),
(480,670,o),
(470,680,o),
(450,680,cs),
(224,680,l),
(224,250,l),
(325,250,ls),
(340,250,o),
(350,240,o),
(350,225,cs),
(350,210,o),
(340,200,o),
(325,200,cs),
(75,200,ls),
(60,200,o),
(50,210,o),
(50,225,cs),
(50,240,o),
(60,250,o),
(75,250,cs),
(176,250,l),
(176,680,l)
);
}
);
width = 600;
}
);
unicode = 306;
},
{
color = (255, 204, 153, 255);
glyphname = J;
layers = (
{
anchors = (
{
name = bottom;
position = "{300, 0}";
},
{
name = top;
position = "{453, 730}";
}
);
layerId = "DA9EFFB3-F552-472D-9366-30BF08E10A4D";
shapes = (
{
closed = 1;
nodes = (
(16,209,o),
(45,241,o),
(103,241,cs),
(143,241,o),
(161,226,o),
(181,178,cs),
(196,141,o),
(227,125,o),
(270,125,cs),
(331,125,o),
(370,158,o),
(370,219,cs),
(370,530,ls),
(370,564,o),
(353,580,o),
(320,580,cs),
(230,580,ls),
(180,580,o),
(155,605,o),
(155,655,cs),
(155,705,o),
(180,730,o),
(230,730,cs),
(400,730,ls),
(480,730,o),
(520,690,o),
(520,610,cs),
(520,219,ls),
(520,78,o),
(424,-10,o),
(270,-10,cs),
(146,-10,o),
(59,48,o),
(30,156,cs)
);
}
);
width = 600;
},
{
anchors = (
{
name = bottom;
position = "{300, 0}";
},
{
name = top;
position = "{453, 730}";
}
);
layerId = "2F9F64D1-8101-471E-9D78-CA49E27A5E76";
shapes = (
{
closed = 1;
nodes = (
(43,192,o),
(60,210,o),
(94,210,cs),
(120,210,o),
(134,199,o),
(140,166,cs),
(152,107,o),
(198,70,o),
(270,70,cs),
(355,70,o),
(405,121,o),
(405,210,cs),
(405,600,ls),
(405,627,o),
(392,640,o),
(365,640,cs),
(215,640,ls),
(185,640,o),
(170,655,o),
(170,685,cs),
(170,715,o),
(185,730,o),
(215,730,cs),
(415,730,ls),
(469,730,o),
(495,704,o),
(495,650,cs),
(495,210,ls),
(495,74,o),
(409,-10,o),
(270,-10,cs),
(149,-10,o),
(68,53,o),
(49,159,cs)
);
}
);
width = 600;
},
{
anchors = (
{
name = bottom;
position = "{300, 0}";
},
{
name = top;
position = "{453, 730}";
}
);
layerId = "DE89D2D6-523F-41BC-8875-C89AC2ABC816";
shapes = (
{
closed = 1;
nodes = (
(70,169,o),
(79,180,o),
(99,180,cs),
(113,180,o),
(119,174,o),
(122,153,cs),
(130,87,o),
(187,35,o),
(275,35,cs),
(371,35,o),
(430,98,o),
(430,199,cs),
(430,650,ls),
(430,670,o),
(420,680,o),
(400,680,cs),
(220,680,ls),
(203,680,o),
(195,688,o),
(195,705,cs),
(195,722,o),
(203,730,o),
(220,730,cs),
(420,730,ls),
(460,730,o),
(480,710,o),
(480,670,cs),
(480,199,ls),
(480,69,o),
(402,-10,o),
(275,-10,cs),
(158,-10,o),
(84,55,o),
(72,151,cs)
);
}
);
width = 600;
}
);
unicode = 74;
},
{
color = (255, 204, 153, 255);
glyphname = K;
layers = (
{
anchors = (
{
name = bottom;
position = "{300, 0}";
},
{
name = top;
position = "{300, 730}";
}
);
layerId = "DA9EFFB3-F552-472D-9366-30BF08E10A4D";
shapes = (
{
closed = 1;
nodes = (
(215,65,ls),
(215,15,o),
(190,-10,o),
(140,-10,cs),
(90,-10,o),
(65,15,o),
(65,65,cs),
(65,665,ls),
(65,715,o),
(90,740,o),
(140,740,cs),
(190,740,o),
(215,715,o),
(215,665,cs)
);
},
{
closed = 1;
nodes = (
(175,460,l),
(356,695,ls),
(379,725,o),
(408,740,o),
(442,740,cs),
(491,740,o),
(538,708,o),
(494,648,cs),
(168,201,l)
);
},
{
closed = 1;
nodes = (
(309,444,l),
(524,88,ls),
(563,23,o),
(523,-10,o),
(468,-10,cs),
(429,-10,o),
(402,7,o),
(382,39,cs),
(208,321,l)
);
}
);
width = 600;
},
{
anchors = (
{
name = bottom;
position = "{300, 0}";
},
{
name = top;
position = "{300, 730}";
}
);
layerId = "2F9F64D1-8101-471E-9D78-CA49E27A5E76";
shapes = (
{
closed = 1;
nodes = (
(182,35,ls),
(182,5,o),
(167,-10,o),
(137,-10,cs),
(107,-10,o),
(92,5,o),
(92,35,cs),
(92,695,ls),
(92,725,o),
(107,740,o),
(137,740,cs),
(167,740,o),
(182,725,o),
(182,695,cs)
);
},
{
closed = 1;
nodes = (
(167,394,l),
(404,712,ls),
(418,731,o),
(437,740,o),
(455,740,cs),
(480,740,o),
(517,722,o),
(489,684,cs),
(167,248,l)
);
},
{
closed = 1;
nodes = (
(275,442,l),
(514,51,ls),
(539,10,o),
(516,-10,o),
(480,-10,cs),
(455,-10,o),
(438,0,o),
(426,20,cs),
(215,357,l)
);
}
);
width = 600;
},
{
anchors = (
{
name = bottom;
position = "{300, 0}";
},
{
name = top;
position = "{300, 730}";
}
);
layerId = "DE89D2D6-523F-41BC-8875-C89AC2ABC816";
shapes = (
{
closed = 1;
nodes = (
(160,15,ls),
(160,-2,o),
(152,-10,o),
(135,-10,cs),
(118,-10,o),
(110,-2,o),
(110,15,cs),
(110,715,ls),
(110,732,o),
(118,740,o),
(135,740,cs),
(152,740,o),
(160,732,o),
(160,715,cs)
);
},
{
closed = 1;
nodes = (
(143,328,l),
(442,723,ls),
(453,737,o),
(463,740,o),
(473,740,cs),
(494,740,o),
(512,728,o),
(494,705,cs),
(143,247,l)
);
},
{
closed = 1;
nodes = (
(268,444,l),
(520,25,ls),
(534,2,o),
(517,-10,o),
(499,-10,cs),
(487,-10,o),
(477,-5,o),
(470,7,cs),
(233,399,l)
);
}
);
width = 600;
}
);
unicode = 75;
},
{
color = (255, 204, 153, 255);
glyphname = L;
layers = (
{
anchors = (
{
name = bottom;
position = "{340, 0}";
},
{
name = center;
position = "{300, 365}";
},
{
name = top;
position = "{166, 730}";
}
);
layerId = "DA9EFFB3-F552-472D-9366-30BF08E10A4D";
shapes = (
{
closed = 1;
nodes = (
(235,0,ls),
(155,0,o),
(115,40,o),
(115,120,cs),
(115,665,ls),
(115,715,o),
(140,740,o),
(190,740,cs),
(240,740,o),
(265,715,o),
(265,665,cs),
(265,195,ls),
(265,155,o),
(285,135,o),
(325,135,cs),
(493,135,ls),
(538,135,o),
(560,113,o),
(560,68,cs),
(560,23,o),
(537,0,o),
(492,0,cs)
);
}
);
width = 600;
},
{
anchors = (
{
name = bottom;
position = "{340, 0}";
},
{
name = center;
position = "{300, 365}";
},
{
name = top;
position = "{166, 730}";
}
);
layerId = "2F9F64D1-8101-471E-9D78-CA49E27A5E76";
shapes = (
{
closed = 1;
nodes = (
(210,0,ls),
(156,0,o),
(130,26,o),
(130,80,cs),
(130,695,ls),
(130,725,o),
(145,740,o),
(175,740,cs),
(205,740,o),
(220,725,o),
(220,695,cs),
(220,130,ls),
(220,103,o),
(233,90,o),
(260,90,cs),
(505,90,ls),
(532,90,o),
(550,72,o),
(550,45,cs),
(550,18,o),
(532,0,o),
(505,0,cs)
);
}
);
width = 600;
},
{
anchors = (
{
name = bottom;
position = "{340, 0}";
},
{
name = center;
position = "{300, 365}";
},
{
name = top;
position = "{166, 730}";
}
);
layerId = "DE89D2D6-523F-41BC-8875-C89AC2ABC816";
shapes = (
{
closed = 1;
nodes = (
(200,0,ls),
(160,0,o),
(140,20,o),
(140,60,cs),
(140,715,ls),
(140,732,o),
(148,740,o),
(165,740,cs),
(182,740,o),
(190,732,o),
(190,715,cs),
(190,80,ls),
(190,60,o),
(200,50,o),
(220,50,cs),
(520,50,ls),
(535,50,o),
(545,40,o),
(545,25,cs),
(545,10,o),
(535,0,o),
(520,0,cs)
);
}
);
width = 600;
}
);
unicode = 76;
},
{
color = (255, 204, 153, 255);
glyphname = M;
layers = (
{
anchors = (
{
name = top;
position = "{300, 730}";
},
{
name = bottom;
position = "{300, 0}";
}
);
layerId = "DA9EFFB3-F552-472D-9366-30BF08E10A4D";
shapes = (
{
closed = 1;
nodes = (
(560,60,ls),
(560,13,o),
(537,-10,o),
(490,-10,cs),
(443,-10,o),
(420,13,o),
(420,60,cs),
(420,560,l),
(372,298,ls),
(365,259,o),
(340,240,o),
(300,240,cs),
(260,240,o),
(235,259,o),
(228,298,cs),
(180,560,l),
(180,60,ls),
(180,13,o),
(157,-10,o),
(110,-10,cs),
(63,-10,o),
(40,13,o),
(40,60,cs),
(40,608,ls),
(40,696,o),
(75,740,o),
(154,740,cs),
(216,740,o),
(246,713,o),
(256,658,cs),
(300,420,l),
(344,658,ls),
(354,713,o),
(394,740,o),
(452,740,cs),
(525,740,o),
(560,696,o),
(560,614,cs)
);
}
);
width = 600;
},
{
anchors = (
{
name = top;
position = "{300, 730}";
},
{
name = bottom;
position = "{300, 0}";
}
);
layerId = "2F9F64D1-8101-471E-9D78-CA49E27A5E76";
shapes = (
{
closed = 1;
nodes = (
(540,35,ls),
(540,5,o),
(525,-10,o),
(495,-10,cs),
(465,-10,o),
(450,5,o),
(450,35,cs),
(450,640,l),
(351,297,ls),
(344,272,o),
(326,260,o),
(300,260,cs),
(274,260,o),
(256,272,o),
(249,297,cs),
(150,640,l),
(150,35,ls),
(150,5,o),
(135,-10,o),
(105,-10,cs),
(75,-10,o),
(60,5,o),
(60,35,cs),
(60,655,ls),
(60,712,o),
(88,740,o),
(140,740,cs),
(181,740,o),
(207,722,o),
(217,685,cs),
(300,390,l),
(383,685,ls),
(393,722,o),
(419,740,o),
(460,740,cs),
(512,740,o),
(540,712,o),
(540,655,cs)
);
}
);
width = 600;
},
{
anchors = (
{
name = top;
position = "{300, 730}";
},
{
name = bottom;
position = "{300, 0}";
}
);
layerId = "DE89D2D6-523F-41BC-8875-C89AC2ABC816";
shapes = (
{
closed = 1;
nodes = (
(510,15,ls),
(510,-2,o),
(502,-10,o),
(485,-10,cs),
(468,-10,o),
(460,-2,o),
(460,15,cs),
(460,680,l),
(337,306,ls),
(331,288,o),
(319,280,o),
(300,280,cs),
(281,280,o),
(269,288,o),
(263,306,cs),
(140,680,l),
(140,15,ls),
(140,-2,o),
(132,-10,o),
(115,-10,cs),
(98,-10,o),
(90,-2,o),
(90,15,cs),
(90,692,ls),
(90,724,o),
(106,740,o),
(137,740,cs),
(162,740,o),
(178,729,o),
(185,706,cs),
(300,350,l),
(415,706,ls),
(422,729,o),
(438,740,o),
(463,740,cs),
(494,740,o),
(510,724,o),
(510,692,cs)
);
}
);
width = 600;
}
);
unicode = 77;
},
{
color = (255, 204, 153, 255);
glyphname = N;
layers = (
{
anchors = (
{
name = top;
position = "{300, 730}";
},
{
name = bottom;
position = "{300, 0}";
}
);
layerId = "DA9EFFB3-F552-472D-9366-30BF08E10A4D";
shapes = (
{
closed = 1;
nodes = (
(45,629,ls),
(45,703,o),
(82,740,o),
(151,740,cs),
(206,740,o),
(236,716,o),
(252,669,cs),
(415,195,l),
(415,670,ls),
(415,717,o),
(438,740,o),
(485,740,cs),
(532,740,o),
(555,717,o),
(555,670,cs),
(555,101,ls),
(555,27,o),
(518,-10,o),
(449,-10,cs),
(394,-10,o),
(365,14,o),
(348,61,cs),
(185,525,l),
(185,60,ls),
(185,13,o),
(162,-10,o),
(115,-10,cs),
(68,-10,o),
(45,13,o),
(45,60,cs)
);
}
);
width = 600;
},
{
anchors = (
{
name = top;
position = "{300, 730}";
},
{
name = bottom;
position = "{300, 0}";
}
);
layerId = "2F9F64D1-8101-471E-9D78-CA49E27A5E76";
shapes = (
{
closed = 1;
nodes = (
(80,662,ls),
(80,714,o),
(106,740,o),
(154,740,cs),
(193,740,o),
(214,723,o),
(226,690,cs),
(430,130,l),
(430,695,ls),
(430,725,o),
(445,740,o),
(475,740,cs),
(505,740,o),
(520,725,o),
(520,695,cs),
(520,68,ls),
(520,16,o),
(494,-10,o),
(446,-10,cs),
(407,-10,o),
(386,7,o),
(374,40,cs),
(170,600,l),
(170,35,ls),
(170,5,o),
(155,-10,o),
(125,-10,cs),
(95,-10,o),
(80,5,o),
(80,35,cs)
);
}
);
width = 600;
},
{
anchors = (
{
name = top;
position = "{300, 730}";
},
{
name = bottom;
position = "{300, 0}";
}
);
layerId = "DE89D2D6-523F-41BC-8875-C89AC2ABC816";
shapes = (
{
closed = 1;
nodes = (
(110,693,ls),
(110,724,o),
(126,740,o),
(157,740,cs),
(181,740,o),
(196,729,o),
(204,707,cs),
(440,50,l),
(440,715,ls),
(440,732,o),
(448,740,o),
(465,740,cs),
(482,740,o),
(490,732,o),
(490,715,cs),
(490,37,ls),
(490,6,o),
(474,-10,o),
(443,-10,cs),
(419,-10,o),
(404,1,o),
(396,23,cs),
(160,680,l),
(160,15,ls),
(160,-2,o),
(152,-10,o),
(135,-10,cs),
(118,-10,o),
(110,-2,o),
(110,15,cs)
);
}
);
width = 600;
}
);
unicode = 78;
},
{
color = (255, 204, 153, 255);
glyphname = O;
layers = (
{
anchors = (
{
name = topright;
position = "{580, 730}";
},
{
name = top;
position = "{300, 730}";
},
{
name = ogonek;
position = "{355, 0}";
},
{
name = horn;
position = "{320, 700}";
},
{
name = center;
position = "{300, 365}";
},
{
name = bottom;
position = "{300, 0}";
}
);
layerId = "DA9EFFB3-F552-472D-9366-30BF08E10A4D";
shapes = (
{
closed = 1;
nodes = (
(395,125,o),
(405,283,o),
(405,365,cs),
(405,448,o),
(395,605,o),
(300,605,cs),
(206,605,o),
(195,447,o),
(195,365,cs),
(195,283,o),
(206,125,o),
(300,125,cs)
);
},
{
closed = 1;
nodes = (
(85,-10,o),
(45,208,o),
(45,365,cs),
(45,522,o),
(82,740,o),
(300,740,cs),
(516,740,o),
(555,524,o),
(555,371,cs),
(555,208,o),
(514,-10,o),
(300,-10,cs)
);
}
);
width = 600;
},
{
anchors = (
{
name = topright;
position = "{580, 730}";
},
{
name = top;
position = "{300, 730}";
},
{
name = ogonek;
position = "{355, 0}";
},
{
name = horn;
position = "{320, 700}";
},
{
name = center;
position = "{300, 365}";
},
{
name = bottom;
position = "{300, 0}";
}
);
layerId = "2F9F64D1-8101-471E-9D78-CA49E27A5E76";
shapes = (
{
closed = 1;
nodes = (
(428,80,o),
(447,271,o),
(447,367,cs),
(447,460,o),
(429,650,o),
(300,650,cs),
(171,650,o),
(153,459,o),
(153,366,cs),
(153,271,o),
(172,80,o),
(300,80,cs)
);
},
{
closed = 1;
nodes = (
(100,-10,o),
(63,208,o),
(63,367,cs),
(63,522,o),
(98,740,o),
(300,740,cs),
(501,740,o),
(537,524,o),
(537,368,cs),
(537,208,o),
(499,-10,o),
(300,-10,cs)
);
}
);
width = 600;
},
{
anchors = (
{
name = topright;
position = "{580, 730}";
},
{
name = top;
position = "{300, 730}";
},
{
name = ogonek;
position = "{355, 0}";
},
{
name = horn;
position = "{320, 700}";
},
{
name = center;
position = "{300, 365}";
},
{
name = bottom;
position = "{300, 0}";
}
);
layerId = "DE89D2D6-523F-41BC-8875-C89AC2ABC816";
shapes = (
{
closed = 1;
nodes = (
(453,40,o),
(480,260,o),
(480,367,cs),
(480,472,o),
(454,690,o),
(300,690,cs),
(146,690,o),
(120,470,o),
(120,365,cs),
(120,260,o),
(147,40,o),
(300,40,cs)
);
},
{
closed = 1;
nodes = (
(106,-10,o),
(70,208,o),
(70,367,cs),
(70,522,o),
(104,740,o),
(300,740,cs),
(496,740,o),
(530,524,o),
(530,369,cs),
(530,208,o),
(493,-10,o),
(300,-10,cs)
);
}
);
width = 600;
}
);
unicode = 79;
},
{
glyphname = OE;
layers = (
{
layerId = "DA9EFFB3-F552-472D-9366-30BF08E10A4D";
shapes = (
{
closed = 1;
nodes = (
(295,115,o),
(305,283,o),
(305,365,cs),
(305,448,o),
(295,615,o),
(220,615,cs),
(146,615,o),
(135,447,o),
(135,365,cs),
(135,283,o),
(146,115,o),
(220,115,cs)
);
},
{
closed = 1;
nodes = (
(25,-10,o),
(-15,208,o),
(-15,365,cs),
(-15,522,o),
(25,740,o),
(220,740,cs),
(419,740,o),
(455,524,o),
(455,365,cs),
(455,208,o),
(414,-10,o),
(220,-10,cs)
);
},
{
closed = 1;
nodes = (
(265,0,l),
(355,130,l),
(550,130,ls),
(594,130,o),
(615,109,o),
(615,65,cs),
(615,21,o),
(594,0,o),
(550,0,cs)
);
},
{
closed = 1;
nodes = (
(345,308,l),
(345,440,l),
(518,440,ls),
(560,440,o),
(584,417,o),
(584,375,cs),
(584,333,o),
(560,308,o),
(518,308,cs)
);
},
{
closed = 1;
nodes = (
(355,600,l),
(265,730,l),
(550,730,ls),
(594,730,o),
(615,709,o),
(615,665,cs),
(615,621,o),
(594,600,o),
(550,600,cs)
);
}
);
width = 600;
},
{
layerId = "2F9F64D1-8101-471E-9D78-CA49E27A5E76";
shapes = (
{
closed = 1;
nodes = (
(328,80,o),
(347,271,o),
(347,365,cs),
(347,460,o),
(329,650,o),
(220,650,cs),
(111,650,o),
(93,459,o),
(93,365,cs),
(93,271,o),
(112,80,o),
(220,80,cs)
);
},
{
closed = 1;
nodes = (
(40,-10,o),
(3,208,o),
(3,365,cs),
(3,522,o),
(40,740,o),
(220,740,cs),
(403,740,o),
(437,524,o),
(437,365,cs),
(437,208,o),
(399,-10,o),
(220,-10,cs)
);
},
{
closed = 1;
nodes = (
(260,0,l),
(310,90,l),
(559,90,ls),
(586,90,o),
(600,72,o),
(600,45,cs),
(600,18,o),
(586,0,o),
(559,0,cs)
);
},
{
closed = 1;
nodes = (
(385,337,l),
(385,427,l),
(525,427,ls),
(552,427,o),
(570,409,o),
(570,382,cs),
(570,355,o),
(552,337,o),
(525,337,cs)
);
},
{
closed = 1;
nodes = (
(310,640,l),
(260,730,l),
(559,730,ls),
(586,730,o),
(600,712,o),
(600,685,cs),
(600,658,o),
(586,640,o),
(559,640,cs)
);
}
);
width = 600;
},
{
layerId = "DE89D2D6-523F-41BC-8875-C89AC2ABC816";
shapes = (
{
closed = 1;
nodes = (
(353,40,o),
(374,260,o),
(374,365,cs),
(374,472,o),
(354,690,o),
(220,690,cs),
(86,690,o),
(66,470,o),
(66,365,cs),
(66,260,o),
(87,40,o),
(220,40,cs)
);
},
{
closed = 1;
nodes = (
(46,-10,o),
(16,208,o),
(16,365,cs),
(16,522,o),
(46,740,o),
(220,740,cs),
(398,740,o),
(424,524,o),
(424,365,cs),
(424,208,o),
(393,-10,o),
(220,-10,cs)
);
},
{
closed = 1;
nodes = (
(270,0,l),
(285,50,l),
(567,50,ls),
(582,50,o),
(590,40,o),
(590,25,cs),
(590,10,o),
(582,0,o),
(567,0,cs)
);
},
{
closed = 1;
nodes = (
(400,356,l),
(400,406,l),
(533,406,ls),
(548,406,o),
(555,396,o),
(555,381,cs),
(555,366,o),
(548,356,o),
(533,356,cs)
);
},
{
closed = 1;
nodes = (
(285,680,l),
(270,730,l),
(567,730,ls),
(582,730,o),
(590,720,o),
(590,705,cs),
(590,690,o),
(582,680,o),
(567,680,cs)
);
}
);
width = 600;
}
);
unicode = 338;
},
{
color = (255, 204, 153, 255);
glyphname = P;
layers = (
{
anchors = (
{
name = top;
position = "{300, 730}";
},
{
name = bottom;
position = "{300, 0}";
}
);
layerId = "DA9EFFB3-F552-472D-9366-30BF08E10A4D";
shapes = (
{
closed = 1;
nodes = (
(216,286,l),
(216,65,ls),
(216,15,o),
(190,-10,o),
(140,-10,cs),
(90,-10,o),
(66,15,o),
(66,65,cs),
(66,630,ls),
(66,697,o),
(99,730,o),
(166,730,cs),
(315,730,ls),
(451,730,o),
(570,654,o),
(570,508,cs),
(570,363,o),
(450,286,o),
(315,286,cs)
);
},
{
closed = 1;
nodes = (
(216,416,l),
(315,416,ls),
(374,416,o),
(420,445,o),
(420,508,cs),
(420,571,o),
(374,600,o),
(315,600,cs),
(266,600,ls),
(233,600,o),
(216,583,o),
(216,550,cs)
);
}
);
width = 600;
},
{
anchors = (
{
name = top;
position = "{300, 730}";
},
{
name = bottom;
position = "{300, 0}";
}
);
layerId = "2F9F64D1-8101-471E-9D78-CA49E27A5E76";
shapes = (
{
closed = 1;
nodes = (
(182,320,l),
(182,35,ls),
(182,5,o),
(167,-10,o),
(137,-10,cs),
(107,-10,o),
(92,5,o),
(92,35,cs),
(92,650,ls),
(92,704,o),
(118,730,o),
(172,730,cs),
(327,730,ls),
(453,730,o),
(550,656,o),
(550,525,cs),
(550,394,o),
(452,320,o),
(327,320,cs)
);
},
{
closed = 1;
nodes = (
(182,410,l),
(327,410,ls),
(398,410,o),
(457,449,o),
(457,525,cs),
(457,602,o),
(399,640,o),
(327,640,cs),
(222,640,ls),
(195,640,o),
(182,627,o),
(182,600,cs)
);
}
);
width = 600;
},
{
anchors = (
{
name = top;
position = "{300, 730}";
},
{
name = bottom;
position = "{300, 0}";
}
);
layerId = "DE89D2D6-523F-41BC-8875-C89AC2ABC816";
shapes = (
{
closed = 1;
nodes = (
(160,344,l),
(160,15,ls),
(160,-2,o),
(152,-10,o),
(135,-10,cs),
(118,-10,o),
(110,-2,o),
(110,15,cs),
(110,670,ls),
(110,710,o),
(130,730,o),
(170,730,cs),
(325,730,ls),
(443,730,o),
(535,660,o),
(535,537,cs),
(535,414,o),
(443,344,o),
(325,344,cs)
);
},
{
closed = 1;
nodes = (
(160,394,l),
(325,394,ls),
(416,394,o),
(485,440,o),
(485,537,cs),
(485,635,o),
(417,680,o),
(325,680,cs),
(190,680,ls),
(170,680,o),
(160,670,o),
(160,650,cs)
);
}
);
width = 600;
}
);
unicode = 80;
},
{
glyphname = Thorn;
layers = (
{
layerId = "DA9EFFB3-F552-472D-9366-30BF08E10A4D";
shapes = (
{
closed = 1;
nodes = (
(220,290,l),
(315,290,ls),
(366,290,o),
(420,337,o),
(420,380,qs),
(420,424,o),
(366,470,o),
(315,470,qs),
(220,470,l)
);
},
{
closed = 1;
nodes = (
(220,75,ls),
(220,25,o),
(195,0,o),
(145,0,cs),
(95,0,o),
(70,25,o),
(70,75,cs),
(70,655,ls),
(70,705,o),
(95,730,o),
(145,730,cs),
(195,730,o),
(220,705,o),
(220,655,cs),
(220,595,l),
(340,595,ls),
(412,595,o),
(515,544,o),
(570,448,o),
(570,380,qs),
(570,280,o),
(447,165,o),
(340,165,qs),
(220,165,l)
);
}
);
width = 600;
},
{
layerId = "2F9F64D1-8101-471E-9D78-CA49E27A5E76";
shapes = (
{
closed = 1;
nodes = (
(180,260,l),
(333,260,ls),
(391,260,o),
(457,325,o),
(457,380,qs),
(457,436,o),
(390,500,o),
(333,500,qs),
(180,500,l)
);
},
{
closed = 1;
nodes = (
(180,45,ls),
(180,15,o),
(165,0,o),
(135,0,cs),
(105,0,o),
(90,15,o),
(90,45,cs),
(90,685,ls),
(90,715,o),
(105,730,o),
(135,730,cs),
(165,730,o),
(180,715,o),
(180,685,cs),
(180,580,l),
(333,580,ls),
(399,580,o),
(496,530,o),
(550,440,o),
(550,380,qs),
(550,289,o),
(432,180,o),
(333,180,qs),
(180,180,l)
);
}
);
width = 600;
},
{
layerId = "DE89D2D6-523F-41BC-8875-C89AC2ABC816";
shapes = (
{
closed = 1;
nodes = (
(155,241,l),
(333,241,ls),
(401,241,o),
(480,316,o),
(480,380,qs),
(480,445,o),
(401,520,o),
(333,520,qs),
(155,520,l)
);
},
{
closed = 1;
nodes = (
(155,25,ls),
(155,8,o),
(147,0,o),
(130,0,cs),
(113,0,o),
(105,8,o),
(105,25,cs),
(105,705,ls),
(105,722,o),
(113,730,o),
(130,730,cs),
(147,730,o),
(155,722,o),
(155,705,cs),
(155,565,l),
(333,565,ls),
(394,565,o),
(482,520,o),
(530,437,o),
(530,380,qs),
(530,295,o),
(424,195,o),
(333,195,qs),
(155,195,l)
);
}
);
width = 600;
}
);
unicode = 222;
},
{
color = (255, 204, 153, 255);
glyphname = Q;
layers = (
{
anchors = (
{
name = top;
position = "{300, 730}";
},
{
name = bottom;
position = "{300, 0}";
}
);
layerId = "DA9EFFB3-F552-472D-9366-30BF08E10A4D";
shapes = (
{
closed = 1;
nodes = (
(395,115,o),
(405,283,o),
(405,365,cs),
(405,448,o),
(395,615,o),
(300,615,cs),
(206,615,o),
(195,447,o),
(195,365,cs),
(195,283,o),
(206,115,o),
(300,115,cs)
);
},
{
closed = 1;
nodes = (
(85,-10,o),
(45,208,o),
(45,368,cs),
(45,522,o),
(82,740,o),
(300,740,cs),
(516,740,o),
(555,524,o),
(555,368,cs),
(555,208,o),
(514,-10,o),
(300,-10,cs)
);
},
{
closed = 1;
nodes = (
(308,-177,ls),
(269,-165,o),
(252,-138,o),
(264,-97,cs),
(276,-59,o),
(302,-45,o),
(340,-56,cs),
(501,-102,ls),
(541,-114,o),
(558,-141,o),
(545,-183,cs),
(533,-224,o),
(506,-233,o),
(468,-223,cs)
);
}
);
width = 600;
},
{
anchors = (
{
name = top;
position = "{300, 730}";
},
{
name = bottom;
position = "{300, 0}";
}
);
layerId = "2F9F64D1-8101-471E-9D78-CA49E27A5E76";
shapes = (
{
closed = 1;
nodes = (
(428,80,o),
(447,271,o),
(447,367,cs),
(447,460,o),
(429,650,o),
(300,650,cs),
(171,650,o),
(153,459,o),
(153,366,cs),
(153,271,o),
(172,80,o),
(300,80,cs)
);
},
{
closed = 1;
nodes = (
(100,-10,o),
(63,208,o),
(63,367,cs),
(63,522,o),
(98,740,o),
(300,740,cs),
(501,740,o),
(537,524,o),
(537,368,cs),
(537,208,o),
(499,-10,o),
(300,-10,cs)
);
},
{
closed = 1;
nodes = (
(300,-154,ls),
(270,-146,o),
(261,-127,o),
(269,-99,cs),
(276,-76,o),
(291,-61,o),
(316,-67,cs),
(496,-113,ls),
(525,-121,o),
(537,-141,o),
(529,-168,cs),
(521,-196,o),
(498,-207,o),
(473,-200,cs)
);
}
);
width = 600;
},
{
anchors = (
{
name = top;
position = "{300, 730}";
},
{
name = bottom;
position = "{300, 0}";
}
);
layerId = "DE89D2D6-523F-41BC-8875-C89AC2ABC816";
shapes = (
{
closed = 1;
nodes = (
(453,40,o),
(480,260,o),
(480,367,cs),
(480,472,o),
(454,690,o),
(300,690,cs),
(146,690,o),
(120,470,o),
(120,365,cs),
(120,260,o),
(147,40,o),
(300,40,cs)
);
},
{
closed = 1;
nodes = (
(106,-10,o),
(70,208,o),
(70,367,cs),
(70,522,o),
(104,740,o),
(300,740,cs),
(496,740,o),
(530,524,o),
(530,369,cs),
(530,208,o),
(493,-10,o),
(300,-10,cs)
);
},
{
closed = 1;
nodes = (
(291,-124,ls),
(273,-119,o),
(271,-107,o),
(274,-95,cs),
(278,-78,o),
(291,-73,o),
(304,-76,cs),
(497,-127,ls),
(514,-131,o),
(519,-145,o),
(515,-159,cs),
(511,-175,o),
(498,-180,o),
(484,-176,cs)
);
}
);
width = 600;
}
);
unicode = 81;
},
{
color = (255, 204, 153, 255);
glyphname = R;
layers = (
{
anchors = (
{
name = bottom;
position = "{300, 0}";
},
{
name = top;
position = "{300, 730}";
}
);
layerId = "DA9EFFB3-F552-472D-9366-30BF08E10A4D";
shapes = (
{
closed = 1;
nodes = (
(216,416,l),
(315,416,ls),
(374,416,o),
(420,445,o),
(420,508,cs),
(420,571,o),
(374,600,o),
(315,600,cs),
(266,600,ls),
(233,600,o),
(216,583,o),
(216,550,cs)
);
},
{
closed = 1;
nodes = (
(216,286,l),
(216,65,ls),
(216,15,o),
(190,-10,o),
(140,-10,cs),
(90,-10,o),
(66,15,o),
(66,65,cs),
(66,630,ls),
(66,697,o),
(99,730,o),
(166,730,cs),
(315,730,ls),
(451,730,o),
(570,654,o),
(570,508,cs),
(570,405,o),
(510,337,o),
(427,306,c),
(540,79,ls),
(570,19,o),
(552,-10,o),
(479,-10,cs),
(446,-10,o),
(419,-4,o),
(400,35,cs),
(280,286,l)
);
}
);
width = 600;
},
{
anchors = (
{
name = bottom;
position = "{300, 0}";
},
{
name = top;
position = "{300, 730}";
}
);
layerId = "2F9F64D1-8101-471E-9D78-CA49E27A5E76";
shapes = (
{
closed = 1;
nodes = (
(182,410,l),
(327,410,ls),
(398,410,o),
(457,449,o),
(457,525,cs),
(457,602,o),
(399,640,o),
(327,640,cs),
(222,640,ls),
(195,640,o),
(182,627,o),
(182,600,cs)
);
},
{
closed = 1;
nodes = (
(182,320,l),
(182,35,ls),
(182,5,o),
(167,-10,o),
(137,-10,cs),
(107,-10,o),
(92,5,o),
(92,35,cs),
(92,650,ls),
(92,704,o),
(118,730,o),
(172,730,cs),
(327,730,ls),
(453,730,o),
(550,656,o),
(550,525,cs),
(550,418,o),
(485,350,o),
(394,328,c),
(531,49,ls),
(551,9,o),
(538,-10,o),
(500,-10,cs),
(472,-10,o),
(456,0,o),
(446,20,cs),
(300,320,l)
);
}
);
width = 600;
},
{
anchors = (
{
name = bottom;
position = "{300, 0}";
},
{
name = top;
position = "{300, 730}";
}
);
layerId = "DE89D2D6-523F-41BC-8875-C89AC2ABC816";
shapes = (
{
closed = 1;
nodes = (
(160,394,l),
(325,394,ls),
(416,394,o),
(485,440,o),
(485,537,cs),
(485,635,o),
(417,680,o),
(325,680,cs),
(190,680,ls),
(170,680,o),
(160,670,o),
(160,650,cs)
);
},
{
closed = 1;
nodes = (
(160,344,l),
(160,15,ls),
(160,-2,o),
(152,-10,o),
(135,-10,cs),
(118,-10,o),
(110,-2,o),
(110,15,cs),
(110,670,ls),
(110,710,o),
(130,730,o),
(170,730,cs),
(325,730,ls),
(443,730,o),
(535,660,o),
(535,537,cs),
(535,424,o),
(457,355,o),
(353,345,c),
(521,25,ls),
(533,1,o),
(527,-10,o),
(504,-10,cs),
(487,-10,o),
(477,-4,o),
(471,8,cs),
(299,344,l)
);
}
);
width = 600;
}
);
unicode = 82;
},
{
color = (255, 204, 153, 255);
glyphname = S;
layers = (
{
anchors = (
{
name = bottom;
position = "{300, 0}";
},
{
name = top;
position = "{300, 730}";
}
);
layerId = "DA9EFFB3-F552-472D-9366-30BF08E10A4D";
shapes = (
{
closed = 1;
nodes = (
(364,592,o),
(337,605,o),
(300,605,cs),
(243,605,o),
(211,580,o),
(211,533,cs),
(211,467,o),
(245,459,o),
(300,446,cs),
(435,415,o),
(553,373,o),
(553,208,cs),
(553,75,o),
(473,-10,o),
(300,-10,cs),
(176,-10,o),
(104,37,o),
(71,106,cs),
(43,165,o),
(68,210,o),
(134,210,cs),
(157,210,o),
(181,204,o),
(203,170,cs),
(220,143,o),
(255,125,o),
(300,125,cs),
(365,125,o),
(406,154,o),
(406,206,cs),
(406,277,o),
(358,293,o),
(300,307,cs),
(163,340,o),
(64,368,o),
(64,533,cs),
(64,659,o),
(154,740,o),
(300,740,cs),
(406,740,o),
(480,697,o),
(512,632,cs),
(542,570,o),
(520,529,o),
(459,529,cs),
(427,529,o),
(403,538,o),
(380,570,cs)
);
}
);
width = 600;
},
{
anchors = (
{
name = bottom;
position = "{300, 0}";
},
{
name = top;
position = "{300, 730}";
}
);
layerId = "2F9F64D1-8101-471E-9D78-CA49E27A5E76";
shapes = (
{
closed = 1;
nodes = (
(393,633,o),
(351,650,o),
(300,650,cs),
(226,650,o),
(180,604,o),
(180,547,cs),
(180,464,o),
(232,447,o),
(300,428,cs),
(428,392,o),
(528,356,o),
(528,199,cs),
(528,72,o),
(440,-10,o),
(300,-10,cs),
(180,-10,o),
(94,51,o),
(76,155,cs),
(72,180,o),
(86,200,o),
(114,200,cs),
(141,200,o),
(162,191,o),
(172,162,cs),
(190,108,o),
(234,80,o),
(300,80,cs),
(386,80,o),
(438,122,o),
(438,199,cs),
(438,295,o),
(378,313,o),
(300,335,cs),
(185,367,o),
(90,404,o),
(90,545,cs),
(90,661,o),
(174,740,o),
(300,740,cs),
(407,740,o),
(483,681,o),
(503,592,cs),
(509,564,o),
(495,547,o),
(463,547,cs),
(437,547,o),
(423,558,o),
(412,585,cs)
);
}
);
width = 600;
},
{
anchors = (
{
name = bottom;
position = "{300, 0}";
},
{
name = top;
position = "{300, 730}";
}
);
layerId = "DE89D2D6-523F-41BC-8875-C89AC2ABC816";
shapes = (
{
closed = 1;
nodes = (
(434,638,o),
(384,690,o),
(301,690,cs),
(215,690,o),
(155,642,o),
(155,561,cs),
(155,464,o),
(219,431,o),
(300,406,cs),
(417,369,o),
(515,327,o),
(515,183,cs),
(515,69,o),
(425,-10,o),
(300,-10,cs),
(179,-10,o),
(97,65,o),
(86,176,cs),
(84,192,o),
(94,205,o),
(111,205,cs),
(127,205,o),
(137,199,o),
(141,173,cs),
(152,94,o),
(208,40,o),
(300,40,cs),
(395,40,o),
(465,94,o),
(465,184,cs),
(465,296,o),
(392,329,o),
(300,357,cs),
(194,389,o),
(105,431,o),
(105,559,cs),
(105,666,o),
(186,740,o),
(300,740,cs),
(411,740,o),
(491,672,o),
(502,574,cs),
(504,558,o),
(495,550,o),
(478,550,cs),
(462,550,o),
(453,557,o),
(449,574,cs)
);
}
);
width = 600;
}
);
unicode = 83;
},
{
glyphname = Germandbls;
layers = (
{
layerId = "DA9EFFB3-F552-472D-9366-30BF08E10A4D";
shapes = (
{
closed = 1;
nodes = (
(83,0,o),
(60,23,o),
(60,68,cs),
(60,511,ls),
(60,652,o),
(161,730,o),
(296,730,cs),
(452,730,ls),
(515,730,o),
(546,699,o),
(546,636,cs),
(546,605,o),
(535,577,o),
(514,554,cs),
(425,458,ls),
(403,434,o),
(407,420,o),
(439,407,cs),
(517,375,o),
(559,305,o),
(559,215,cs),
(559,74,o),
(450,4,o),
(321,0,cs),
(280,-1,o),
(259,21,o),
(259,63,cs),
(259,103,o),
(277,122,o),
(321,128,cs),
(370,135,o),
(408,157,o),
(408,227,cs),
(408,291,o),
(376,314,o),
(332,323,cs),
(280,333,o),
(259,355,o),
(259,401,cs),
(259,426,o),
(267,447,o),
(284,465,cs),
(378,568,ls),
(401,593,o),
(396,605,o),
(362,605,cs),
(295,605,ls),
(237,605,o),
(195,571,o),
(195,511,cs),
(195,68,ls),
(195,23,o),
(173,0,o),
(128,0,cs)
);
}
);
width = 600;
},
{
layerId = "2F9F64D1-8101-471E-9D78-CA49E27A5E76";
shapes = (
{
closed = 1;
nodes = (
(107,0,o),
(92,15,o),
(92,45,cs),
(92,524,ls),
(92,650,o),
(177,730,o),
(302,730,cs),
(470,730,ls),
(509,730,o),
(529,710,o),
(529,671,cs),
(529,651,o),
(524,634,o),
(512,618,cs),
(391,455,ls),
(376,434,o),
(380,424,o),
(407,417,cs),
(496,393,o),
(540,310,o),
(540,215,cs),
(540,63,o),
(439,0,o),
(299,0,cs),
(272,0,o),
(258,14,o),
(258,41,cs),
(258,68,o),
(271,82,o),
(299,83,cs),
(379,87,o),
(445,107,o),
(445,215,cs),
(445,310,o),
(392,336,o),
(322,343,cs),
(286,346,o),
(270,363,o),
(270,397,cs),
(270,414,o),
(275,430,o),
(285,444,cs),
(410,616,ls),
(426,638,o),
(421,648,o),
(394,648,cs),
(302,648,ls),
(226,648,o),
(182,599,o),
(182,524,cs),
(182,45,ls),
(182,15,o),
(167,0,o),
(137,0,cs)
);
}
);
width = 600;
},
{
layerId = "DE89D2D6-523F-41BC-8875-C89AC2ABC816";
shapes = (
{
closed = 1;
nodes = (
(118,0,o),
(110,8,o),
(110,25,cs),
(110,543,ls),
(110,660,o),
(190,730,o),
(305,730,cs),
(486,730,ls),
(507,730,o),
(517,720,o),
(517,699,cs),
(517,689,o),
(514,680,o),
(508,672,cs),
(334,431,ls),
(322,415,o),
(326,408,o),
(346,405,cs),
(449,392,o),
(520,322,o),
(520,210,cs),
(520,48,o),
(412,0,o),
(270,0,cs),
(255,0,o),
(248,8,o),
(248,23,cs),
(248,38,o),
(255,45,o),
(270,45,cs),
(378,47,o),
(470,69,o),
(470,208,cs),
(470,329,o),
(397,362,o),
(299,367,cs),
(280,368,o),
(270,378,o),
(270,397,cs),
(270,407,o),
(272,415,o),
(278,423,cs),
(449,661,ls),
(461,677,o),
(456,685,o),
(436,685,cs),
(305,685,ls),
(218,685,o),
(160,631,o),
(160,543,cs),
(160,25,ls),
(160,8,o),
(152,0,o),
(135,0,cs)
);
}
);
width = 600;
}
);
unicode = 7838;
},
{
color = (255, 204, 153, 255);
glyphname = T;
layers = (
{
anchors = (
{
name = top;
position = "{300, 730}";
},
{
name = bottom;
position = "{300, 0}";
},
{
name = center;
position = "{300, 365}";
}
);
layerId = "DA9EFFB3-F552-472D-9366-30BF08E10A4D";
shapes = (
{
closed = 1;
nodes = (
(225,595,l),
(108,595,ls),
(63,595,o),
(40,618,o),
(40,663,cs),
(40,708,o),
(62,730,o),
(107,730,cs),
(493,730,ls),
(538,730,o),
(560,708,o),
(560,663,cs),
(560,618,o),
(537,595,o),
(492,595,cs),
(375,595,l),
(375,75,ls),
(375,25,o),
(350,0,o),
(300,0,cs),
(250,0,o),
(225,25,o),
(225,75,cs)
);
}
);
width = 600;
},
{
anchors = (
{
name = top;
position = "{300, 730}";
},
{
name = bottom;
position = "{300, 0}";
},
{
name = center;
position = "{300, 365}";
}
);
layerId = "2F9F64D1-8101-471E-9D78-CA49E27A5E76";
shapes = (
{
closed = 1;
nodes = (
(255,640,l),
(100,640,ls),
(73,640,o),
(55,658,o),
(55,685,cs),
(55,712,o),
(73,730,o),
(100,730,cs),
(500,730,ls),
(527,730,o),
(545,712,o),
(545,685,cs),
(545,658,o),
(527,640,o),
(500,640,cs),
(345,640,l),
(345,35,ls),
(345,5,o),
(330,-10,o),
(300,-10,cs),
(270,-10,o),
(255,5,o),
(255,35,cs)
);
}
);
width = 600;
},
{
anchors = (
{
name = top;
position = "{300, 730}";
},
{
name = bottom;
position = "{300, 0}";
},
{
name = center;
position = "{300, 365}";
}
);
layerId = "DE89D2D6-523F-41BC-8875-C89AC2ABC816";
shapes = (
{
closed = 1;
nodes = (
(276,680,l),
(85,680,ls),
(70,680,o),
(60,690,o),
(60,705,cs),
(60,720,o),
(70,730,o),
(85,730,cs),
(515,730,ls),
(530,730,o),
(540,720,o),
(540,705,cs),
(540,690,o),
(529,680,o),
(514,680,cs),
(325,680,l),
(326,15,ls),
(326,-2,o),
(318,-10,o),
(301,-10,cs),
(284,-10,o),
(276,-2,o),
(276,15,cs)
);
}
);
width = 600;
}
);
unicode = 84;
},
{
color = (255, 204, 153, 255);
glyphname = U;
layers = (
{
anchors = (
{
name = bottom;
position = "{300, 0}";
},
{
name = horn;
position = "{392, 730}";
},
{
name = ogonek;
position = "{355, 0}";
},
{
name = top;
position = "{300, 730}";
},
{
name = topright;
position = "{580, 730}";
}
);
layerId = "DA9EFFB3-F552-472D-9366-30BF08E10A4D";
shapes = (
{
closed = 1;
nodes = (
(60,655,ls),
(60,705,o),
(85,730,o),
(135,730,cs),
(185,730,o),
(210,705,o),
(210,655,cs),
(210,225,ls),
(210,169,o),
(238,120,o),
(300,120,cs),
(361,120,o),
(390,169,o),
(390,225,cs),
(390,655,ls),
(390,705,o),
(415,730,o),
(465,730,cs),
(515,730,o),
(540,705,o),
(540,655,cs),
(540,224,ls),
(540,80,o),
(442,-10,o),
(300,-10,cs),
(157,-10,o),
(60,79,o),
(60,224,cs)
);
}
);
width = 600;
},
{
anchors = (
{
name = bottom;
position = "{300, 0}";
},
{
name = horn;
position = "{392, 730}";
},
{
name = ogonek;
position = "{355, 0}";
},
{
name = top;
position = "{300, 730}";
},
{
name = topright;
position = "{580, 730}";
}
);
layerId = "2F9F64D1-8101-471E-9D78-CA49E27A5E76";
shapes = (
{
closed = 1;
nodes = (
(90,685,ls),
(90,715,o),
(105,730,o),
(135,730,cs),
(165,730,o),
(180,715,o),
(180,685,cs),
(180,210,ls),
(180,131,o),
(218,80,o),
(300,80,cs),
(382,80,o),
(420,132,o),
(420,210,cs),
(420,685,ls),
(420,715,o),
(435,730,o),
(465,730,cs),
(495,730,o),
(510,715,o),
(510,685,cs),
(510,210,ls),
(510,77,o),
(436,-10,o),
(300,-10,cs),
(165,-10,o),
(90,78,o),
(90,210,cs)
);
}
);
width = 600;
},
{
anchors = (
{
name = bottom;
position = "{300, 0}";
},
{
name = horn;
position = "{392, 730}";
},
{
name = ogonek;
position = "{355, 0}";
},
{
name = top;
position = "{300, 730}";
},
{
name = topright;
position = "{580, 730}";
}
);
layerId = "DE89D2D6-523F-41BC-8875-C89AC2ABC816";
shapes = (
{
closed = 1;
nodes = (
(108,705,ls),
(108,722,o),
(116,730,o),
(133,730,cs),
(150,730,o),
(158,722,o),
(158,705,cs),
(158,200,ls),
(158,110,o),
(204,40,o),
(300,40,cs),
(396,40,o),
(442,110,o),
(442,200,cs),
(442,705,ls),
(442,722,o),
(450,730,o),
(467,730,cs),
(484,730,o),
(492,722,o),
(492,705,cs),
(492,200,ls),
(492,84,o),
(422,-10,o),
(300,-10,cs),
(177,-10,o),
(108,84,o),
(108,200,cs)
);
}
);
width = 600;
}
);
unicode = 85;
},
{
color = (255, 204, 153, 255);
glyphname = V;
layers = (
{
anchors = (
{
name = top;
position = "{300, 730}";
},
{
name = bottom;
position = "{300, 0}";
}
);
layerId = "DA9EFFB3-F552-472D-9366-30BF08E10A4D";
shapes = (
{
closed = 1;
nodes = (
(46,662,ls),
(32,714,o),
(62,740,o),
(106,740,cs),
(142,740,o),
(170,723,o),
(178,688,cs),
(281,263,ls),
(289,230,o),
(311,230,o),
(319,263,cs),
(422,688,ls),
(430,723,o),
(458,740,o),
(494,740,cs),
(538,740,o),
(568,714,o),
(554,662,cs),
(394,62,ls),
(381,13,o),
(350,-10,o),
(300,-10,cs),
(250,-10,o),
(219,13,o),
(206,62,cs)
);
}
);
width = 600;
},
{
anchors = (
{
name = top;
position = "{300, 730}";
},
{
name = bottom;
position = "{300, 0}";
}
);
layerId = "2F9F64D1-8101-471E-9D78-CA49E27A5E76";
shapes = (
{
closed = 1;
nodes = (
(64,688,ls),
(57,714,o),
(63,740,o),
(102,740,cs),
(128,740,o),
(148,728,o),
(154,705,cs),
(285,185,ls),
(293,155,o),
(307,155,o),
(315,185,cs),
(446,705,ls),
(452,728,o),
(472,740,o),
(498,740,cs),
(537,740,o),
(543,714,o),
(536,688,cs),
(363,38,ls),
(354,6,o),
(334,-10,o),
(300,-10,cs),
(267,-10,o),
(246,6,o),
(237,38,cs)
);
}
);
width = 600;
},
{
anchors = (
{
name = top;
position = "{300, 730}";
},
{
name = bottom;
position = "{300, 0}";
}
);
layerId = "DE89D2D6-523F-41BC-8875-C89AC2ABC816";
shapes = (
{
closed = 1;
nodes = (
(78,711,ls),
(74,727,o),
(80,740,o),
(100,740,cs),
(113,740,o),
(127,734,o),
(130,721,cs),
(290,100,ls),
(295,80,o),
(305,80,o),
(310,100,cs),
(470,721,ls),
(473,734,o),
(487,740,o),
(500,740,cs),
(520,740,o),
(526,727,o),
(522,711,cs),
(338,19,ls),
(333,0,o),
(320,-10,o),
(300,-10,cs),
(280,-10,o),
(267,0,o),
(262,19,cs)
);
}
);
width = 600;
}
);
unicode = 86;
},
{
color = (255, 204, 153, 255);
glyphname = W;
layers = (
{
anchors = (
{
name = top;
position = "{300, 730}";
},
{
name = bottom;
position = "{300, 0}";
}
);
layerId = "DA9EFFB3-F552-472D-9366-30BF08E10A4D";
shapes = (
{
closed = 1;
nodes = (
(17,660,ls),
(14,708,o),
(37,740,o),
(83,740,cs),
(125,740,o),
(152,710,o),
(154,670,cs),
(180,190,l),
(230,505,ls),
(236,542,o),
(262,560,o),
(300,560,cs),
(338,560,o),
(364,542,o),
(370,505,cs),
(420,190,l),
(446,678,ls),
(448,713,o),
(472,740,o),
(514,740,cs),
(563,740,o),
(585,708,o),
(581,660,cs),
(536,71,ls),
(532,17,o),
(490,-10,o),
(436,-10,cs),
(382,-10,o),
(351,16,o),
(343,70,cs),
(300,350,l),
(257,73,ls),
(248,18,o),
(218,-10,o),
(162,-10,cs),
(106,-10,o),
(63,17,o),
(59,73,cs)
);
}
);
width = 600;
},
{
anchors = (
{
name = top;
position = "{300, 730}";
},
{
name = bottom;
position = "{300, 0}";
}
);
layerId = "2F9F64D1-8101-471E-9D78-CA49E27A5E76";
shapes = (
{
closed = 1;
nodes = (
(37,685,ls),
(34,722,o),
(49,740,o),
(83,740,cs),
(111,740,o),
(125,723,o),
(127,698,cs),
(170,100,l),
(244,513,ls),
(250,545,o),
(268,560,o),
(300,560,cs),
(332,560,o),
(350,545,o),
(356,513,cs),
(430,100,l),
(473,698,ls),
(475,723,o),
(489,740,o),
(517,740,cs),
(551,740,o),
(566,722,o),
(563,685,cs),
(504,50,ls),
(500,10,o),
(477,-10,o),
(436,-10,cs),
(395,-10,o),
(372,10,o),
(365,50,cs),
(300,430,l),
(235,51,ls),
(228,10,o),
(205,-10,o),
(164,-10,cs),
(123,-10,o),
(99,10,o),
(95,51,cs)
);
}
);
width = 600;
},
{
anchors = (
{
name = top;
position = "{300, 730}";
},
{
name = bottom;
position = "{300, 0}";
}
);
layerId = "DE89D2D6-523F-41BC-8875-C89AC2ABC816";
shapes = (
{
closed = 1;
nodes = (
(59,710,ls),
(57,730,o),
(65,740,o),
(85,740,cs),
(100,740,o),
(107,729,o),
(108,715,cs),
(170,35,l),
(262,529,ls),
(266,550,o),
(279,560,o),
(300,560,cs),
(321,560,o),
(334,550,o),
(338,529,cs),
(430,35,l),
(492,715,ls),
(493,729,o),
(500,740,o),
(515,740,cs),
(535,740,o),
(543,730,o),
(541,710,cs),
(474,27,ls),
(472,2,o),
(457,-10,o),
(432,-10,cs),
(407,-10,o),
(392,2,o),
(387,27,c),
(300,500,l),
(212,27,ls),
(207,2,o),
(193,-10,o),
(168,-10,cs),
(143,-10,o),
(127,2,o),
(125,27,cs)
);
}
);
width = 600;
}
);
unicode = 87;
},
{
color = (255, 204, 153, 255);
glyphname = X;
layers = (
{
anchors = (
{
name = top;
position = "{300, 730}";
},
{
name = bottom;
position = "{300, 0}";
}
);
layerId = "DA9EFFB3-F552-472D-9366-30BF08E10A4D";
shapes = (
{
closed = 1;
nodes = (
(208,40,ls),
(191,7,o),
(167,-10,o),
(129,-10,cs),
(76,-10,o),
(36,23,o),
(70,88,cs),
(380,690,ls),
(397,723,o),
(420,740,o),
(458,740,cs),
(511,740,o),
(550,708,o),
(517,642,cs)
);
},
{
closed = 1;
nodes = (
(530,88,ls),
(563,22,o),
(524,-10,o),
(471,-10,cs),
(433,-10,o),
(408,7,o),
(392,40,cs),
(83,642,ls),
(49,707,o),
(89,740,o),
(142,740,cs),
(180,740,o),
(203,723,o),
(220,690,cs)
);
}
);
width = 600;
},
{
anchors = (
{
name = top;
position = "{300, 730}";
},
{
name = bottom;
position = "{300, 0}";
}
);
layerId = "2F9F64D1-8101-471E-9D78-CA49E27A5E76";
shapes = (
{
closed = 1;
nodes = (
(155,20,ls),
(144,0,o),
(129,-10,o),
(107,-10,cs),
(77,-10,o),
(50,9,o),
(72,48,cs),
(435,711,ls),
(446,731,o),
(461,740,o),
(482,740,cs),
(512,740,o),
(539,721,o),
(517,682,cs)
);
},
{
closed = 1;
nodes = (
(528,49,ls),
(550,10,o),
(523,-10,o),
(493,-10,cs),
(471,-10,o),
(456,0,o),
(445,20,cs),
(82,682,ls),
(60,720,o),
(88,740,o),
(119,740,cs),
(139,740,o),
(154,731,o),
(165,711,cs)
);
}
);
width = 600;
},
{
anchors = (
{
name = top;
position = "{300, 730}";
},
{
name = bottom;
position = "{300, 0}";
}
);
layerId = "DE89D2D6-523F-41BC-8875-C89AC2ABC816";
shapes = (
{
closed = 1;
nodes = (
(117,6,ls),
(111,-5,o),
(102,-10,o),
(91,-10,cs),
(75,-10,o),
(59,1,o),
(71,22,cs),
(467,724,ls),
(473,735,o),
(482,740,o),
(493,740,cs),
(510,740,o),
(527,729,o),
(514,707,cs)
);
},
{
closed = 1;
nodes = (
(529,22,ls),
(541,1,o),
(525,-10,o),
(509,-10,cs),
(498,-10,o),
(489,-5,o),
(483,6,cs),
(86,707,ls),
(73,729,o),
(90,740,o),
(107,740,cs),
(118,740,o),
(127,735,o),
(133,724,cs)
);
}
);
width = 600;
}
);
unicode = 88;
},
{
color = (255, 204, 153, 255);
glyphname = Y;
layers = (
{
anchors = (
{
name = top;
position = "{300, 730}";
},
{
name = bottom;
position = "{300, 0}";
}
);
layerId = "DA9EFFB3-F552-472D-9366-30BF08E10A4D";
shapes = (
{
closed = 1;
nodes = (
(250,-10,o),
(225,15,o),
(225,65,cs),
(225,230,ls),
(225,250,o),
(221,269,o),
(213,287,cs),
(52,655,ls),
(31,704,o),
(66,740,o),
(115,740,cs),
(150,740,o),
(177,721,o),
(193,683,cs),
(289,448,ls),
(297,429,o),
(303,429,o),
(311,448,cs),
(407,683,ls),
(423,721,o),
(450,740,o),
(485,740,cs),
(534,740,o),
(569,704,o),
(548,655,cs),
(387,287,ls),
(379,269,o),
(375,250,o),
(375,230,cs),
(375,65,ls),
(375,15,o),
(350,-10,o),
(300,-10,cs)
);
}
);
width = 600;
},
{
anchors = (
{
name = top;
position = "{300, 730}";
},
{
name = bottom;
position = "{300, 0}";
}
);
layerId = "2F9F64D1-8101-471E-9D78-CA49E27A5E76";
shapes = (
{
closed = 1;
nodes = (
(270,-10,o),
(255,5,o),
(255,35,cs),
(255,248,ls),
(255,265,o),
(251,281,o),
(244,296,cs),
(59,690,ls),
(47,716,o),
(69,740,o),
(91,740,cs),
(116,740,o),
(129,735,o),
(143,706,cs),
(290,390,ls),
(297,375,o),
(303,375,o),
(310,390,cs),
(457,706,ls),
(471,735,o),
(484,740,o),
(509,740,cs),
(531,740,o),
(553,716,o),
(541,690,cs),
(356,296,ls),
(349,281,o),
(345,265,o),
(345,248,cs),
(345,35,ls),
(345,5,o),
(330,-10,o),
(300,-10,cs)
);
}
);
width = 600;
},
{
anchors = (
{
name = top;
position = "{300, 730}";
},
{
name = bottom;
position = "{300, 0}";
}
);
layerId = "DE89D2D6-523F-41BC-8875-C89AC2ABC816";
shapes = (
{
closed = 1;
nodes = (
(283,-10,o),
(275,-2,o),
(275,15,cs),
(275,260,ls),
(275,273,o),
(272,286,o),
(266,298,cs),
(64,711,ls),
(56,727,o),
(71,740,o),
(86,740,cs),
(96,740,o),
(109,734,o),
(115,721,cs),
(291,356,ls),
(297,344,o),
(303,344,o),
(309,356,cs),
(485,721,ls),
(491,734,o),
(504,740,o),
(514,740,cs),
(529,740,o),
(544,727,o),
(536,711,cs),
(334,298,ls),
(328,286,o),
(325,273,o),
(325,260,cs),
(325,15,ls),
(325,-2,o),
(317,-10,o),
(300,-10,cs)
);
}
);
width = 600;
}
);
unicode = 89;
},
{
color = (255, 204, 153, 255);
glyphname = Z;
layers = (
{
anchors = (
{
name = bottom;
position = "{300, 0}";
},
{
name = center;
position = "{300, 365}";
},
{
name = top;
position = "{300, 730}";
}
);
layerId = "DA9EFFB3-F552-472D-9366-30BF08E10A4D";
shapes = (
{
closed = 1;
nodes = (
(176,0,ls),
(108,0,o),
(75,33,o),
(75,97,cs),
(75,124,o),
(81,144,o),
(92,164,cs),
(328,569,ls),
(338,586,o),
(333,595,o),
(313,595,cs),
(150,595,ls),
(105,595,o),
(83,618,o),
(83,663,cs),
(83,708,o),
(106,730,o),
(151,730,cs),
(413,730,ls),
(481,730,o),
(514,697,o),
(514,631,cs),
(514,606,o),
(509,586,o),
(497,566,cs),
(260,161,ls),
(250,144,o),
(255,135,o),
(275,135,cs),
(458,135,ls),
(503,135,o),
(525,113,o),
(525,68,cs),
(525,23,o),
(503,0,o),
(458,0,cs)
);
}
);
width = 600;
},
{
anchors = (
{
name = bottom;
position = "{300, 0}";
},
{
name = center;
position = "{300, 365}";
},
{
name = top;
position = "{300, 730}";
}
);
layerId = "2F9F64D1-8101-471E-9D78-CA49E27A5E76";
shapes = (
{
closed = 1;
nodes = (
(153,0,ls),
(108,0,o),
(85,23,o),
(85,68,cs),
(85,83,o),
(88,96,o),
(96,109,cs),
(391,618,ls),
(399,632,o),
(396,640,o),
(379,640,cs),
(135,640,ls),
(108,640,o),
(90,658,o),
(90,685,cs),
(90,712,o),
(108,730,o),
(135,730,cs),
(437,730,ls),
(482,730,o),
(505,708,o),
(505,663,cs),
(505,648,o),
(502,634,o),
(494,621,cs),
(199,112,ls),
(191,98,o),
(194,90,o),
(211,90,cs),
(470,90,ls),
(497,90,o),
(515,72,o),
(515,45,cs),
(515,18,o),
(497,0,o),
(470,0,cs)
);
}
);
width = 600;
},
{
anchors = (
{
name = bottom;
position = "{300, 0}";
},
{
name = center;
position = "{300, 365}";
},
{
name = top;
position = "{300, 730}";
}
);
layerId = "DE89D2D6-523F-41BC-8875-C89AC2ABC816";
shapes = (
{
closed = 1;
nodes = (
(127,0,ls),
(102,0,o),
(90,13,o),
(90,36,cs),
(90,46,o),
(92,54,o),
(96,61,cs),
(433,663,ls),
(440,675,o),
(436,680,o),
(423,680,cs),
(121,680,ls),
(106,680,o),
(94,690,o),
(94,705,cs),
(94,720,o),
(106,730,o),
(121,730,cs),
(454,730,ls),
(483,730,o),
(497,716,o),
(497,687,cs),
(497,677,o),
(495,669,o),
(490,661,cs),
(157,67,ls),
(150,55,o),
(154,50,o),
(167,50,cs),
(485,50,ls),
(500,50,o),
(510,40,o),
(510,25,cs),
(510,10,o),
(500,0,o),
(485,0,cs)
);
}
);
width = 600;
}
);
unicode = 90;
},
{
color = (255, 204, 153, 255);
glyphname = a;
layers = (
{
anchors = (
{
name = top;
position = "{286, 550}";
},
{
name = bottom;
position = "{286, 0}";
},
{
name = ogonek;
position = "{460, 0}";
}
);
layerId = "DA9EFFB3-F552-472D-9366-30BF08E10A4D";
shapes = (
{
closed = 1;
nodes = (
(135,-10,o),
(40,63,o),
(40,238,cs),
(40,417,o),
(120,560,o),
(270,560,cs),
(395,560,o),
(425,432,o),
(425,298,cs),
(425,106,o),
(365,-10,o),
(230,-10,cs)
);
},
{
closed = 1;
nodes = (
(312,125,o),
(369,176,o),
(369,295,cs),
(369,372,o),
(355,425,o),
(304,425,cs),
(230,425,o),
(190,340,o),
(190,242,cs),
(190,175,o),
(213,125,o),
(262,125,cs)
);
},
{
closed = 1;
nodes = (
(392,538,o),
(421,560,o),
(467,560,cs),
(512,560,o),
(528,539,o),
(522,494,cs),
(502,352,o),
(494,222,o),
(529,54,cs),
(538,9,o),
(527,-10,o),
(482,-10,cs),
(436,-10,o),
(402,10,o),
(393,54,cs),
(358,222,o),
(366,352,o),
(386,494,cs)
);
}
);
width = 600;
},
{
anchors = (
{
name = top;
position = "{286, 550}";
},
{
name = bottom;
position = "{286, 0}";
},
{
name = ogonek;
position = "{460, 0}";
}
);
layerId = "2F9F64D1-8101-471E-9D78-CA49E27A5E76";
shapes = (
{
closed = 1;
nodes = (
(146,-10,o),
(70,49,o),
(70,224,cs),
(70,409,o),
(144,560,o),
(300,560,cs),
(427,560,o),
(435,412,o),
(435,308,cs),
(435,162,o),
(395,-10,o),
(242,-10,cs)
);
},
{
closed = 1;
nodes = (
(334,80,o),
(395,172,o),
(395,308,cs),
(395,372,o),
(395,470,o),
(308,470,cs),
(225,470,o),
(160,360,o),
(160,215,cs),
(160,130,o),
(190,80,o),
(251,80,cs)
);
},
{
closed = 1;
nodes = (
(419,549,o),
(437,560,o),
(465,560,cs),
(497,560,o),
(509,546,o),
(504,516,cs),
(478,358,o),
(476,214,o),
(520,34,cs),
(527,5,o),
(516,-10,o),
(486,-10,cs),
(456,-10,o),
(437,5,o),
(430,34,cs),
(384,214,o),
(390,358,o),
(414,516,cs)
);
}
);
width = 600;
},
{
anchors = (
{
name = top;
position = "{286, 550}";
},
{
name = bottom;
position = "{286, 0}";
},
{
name = ogonek;
position = "{460, 0}";
}
);
layerId = "DE89D2D6-523F-41BC-8875-C89AC2ABC816";
shapes = (
{
closed = 1;
nodes = (
(136,-10,o),
(90,82,o),
(90,205,cs),
(90,392,o),
(162,560,o),
(320,560,cs),
(445,560,o),
(444,418,o),
(441,298,cs),
(438,168,o),
(393,-10,o),
(248,-10,cs)
);
},
{
closed = 1;
nodes = (
(351,40,o),
(412,190,o),
(416,301,cs),
(419,390,o),
(424,510,o),
(318,510,cs),
(200,510,o),
(140,361,o),
(140,205,cs),
(140,103,o),
(178,40,o),
(246,40,cs)
);
},
{
closed = 1;
nodes = (
(439,552,o),
(449,560,o),
(466,560,cs),
(483,560,o),
(489,552,o),
(487,535,cs),
(462,350,o),
(452,208,o),
(496,14,cs),
(500,-2,o),
(494,-10,o),
(477,-10,cs),
(460,-10,o),
(450,-2,o),
(446,14,cs),
(400,208,o),
(412,350,o),
(437,535,cs)
);
}
);
width = 600;
}
);
unicode = 97;
},
{
glyphname = ae;
layers = (
{
anchors = (
{
name = top;
position = "{299, 550}";
}
);
layerId = "DA9EFFB3-F552-472D-9366-30BF08E10A4D";
shapes = (
{
closed = 1;
nodes = (
(243,330,l),
(243,400,ls),
(243,428,o),
(232,463,o),
(198,463,cs),
(180,463,o),
(168,453,o),
(161,439,cs),
(146,409,o),
(135,400,o),
(113,400,cs),
(56,400,o),
(29,433,o),
(50,478,cs),
(72,527,o),
(118,560,o),
(181,560,cs),
(239,560,o),
(294,530,o),
(301,468,c),
(308,530,o),
(364,560,o),
(421,560,cs),
(514,560,o),
(570,489,o),
(570,400,cs),
(570,350,ls),
(570,283,o),
(537,250,o),
(470,250,cs),
(361,250,l),
(361,150,ls),
(361,122,o),
(372,87,o),
(406,87,cs),
(424,87,o),
(436,97,o),
(443,111,cs),
(458,141,o),
(469,150,o),
(491,150,cs),
(548,150,o),
(574,117,o),
(554,72,cs),
(532,23,o),
(487,-10,o),
(424,-10,cs),
(368,-10,o),
(308,20,o),
(301,81,c),
(294,18,o),
(236,-10,o),
(178,-10,cs),
(80,-10,o),
(28,68,o),
(28,159,cs),
(28,261,o),
(96,330,o),
(198,330,cs)
);
},
{
closed = 1;
nodes = (
(243,250,l),
(198,250,ls),
(156,250,o),
(147,201,o),
(147,168,cs),
(147,136,o),
(156,87,o),
(197,87,cs),
(231,87,o),
(243,121,o),
(243,150,cs)
);
},
{
closed = 1;
nodes = (
(361,330,l),
(426,330,ls),
(443,330,o),
(451,338,o),
(451,355,cs),
(451,400,ls),
(451,428,o),
(440,463,o),
(406,463,cs),
(372,463,o),
(361,428,o),
(361,400,cs)
);
}
);
width = 600;
},
{
anchors = (
{
name = top;
position = "{298, 550}";
}
);
layerId = "2F9F64D1-8101-471E-9D78-CA49E27A5E76";
shapes = (
{
closed = 1;
nodes = (
(263,324,l),
(263,399,ls),
(263,443,o),
(245,485,o),
(195,485,cs),
(162,485,o),
(139,467,o),
(130,440,cs),
(124,421,o),
(116,414,o),
(100,414,cs),
(63,414,o),
(44,434,o),
(54,466,cs),
(71,521,o),
(116,560,o),
(182,560,cs),
(238,560,o),
(296,532,o),
(304,471,c),
(311,530,o),
(365,560,o),
(420,560,cs),
(513,560,o),
(565,488,o),
(565,400,cs),
(565,336,ls),
(565,282,o),
(539,256,o),
(485,256,cs),
(343,256,l),
(343,150,ls),
(343,106,o),
(362,65,o),
(412,65,cs),
(445,65,o),
(468,82,o),
(477,109,cs),
(484,129,o),
(492,137,o),
(509,137,cs),
(549,137,o),
(568,115,o),
(556,82,cs),
(537,26,o),
(487,-10,o),
(420,-10,cs),
(365,-10,o),
(315,24,o),
(304,80,c),
(292,21,o),
(235,-10,o),
(178,-10,cs),
(82,-10,o),
(31,70,o),
(31,159,cs),
(31,250,o),
(86,324,o),
(182,324,cs)
);
},
{
closed = 1;
nodes = (
(263,256,l),
(184,256,ls),
(132,256,o),
(115,203,o),
(115,160,cs),
(115,112,o),
(137,65,o),
(191,65,cs),
(241,65,o),
(263,105,o),
(263,150,cs)
);
},
{
closed = 1;
nodes = (
(343,324,l),
(461,324,ls),
(474,324,o),
(481,331,o),
(481,344,cs),
(481,400,ls),
(481,443,o),
(461,485,o),
(412,485,cs),
(363,485,o),
(343,443,o),
(343,400,cs)
);
}
);
width = 600;
},
{
anchors = (
{
name = top;
position = "{300, 550}";
}
);
layerId = "DE89D2D6-523F-41BC-8875-C89AC2ABC816";
shapes = (
{
closed = 1;
nodes = (
(279,312,l),
(279,410,ls),
(279,462,o),
(253,517,o),
(194,517,cs),
(141,517,o),
(112,477,o),
(107,430,cs),
(106,419,o),
(100,414,o),
(90,414,cs),
(68,414,o),
(58,426,o),
(61,446,cs),
(72,510,o),
(115,560,o),
(187,560,cs),
(241,560,o),
(294,531,o),
(303,474,c),
(315,530,o),
(368,560,o),
(422,560,cs),
(510,560,o),
(560,494,o),
(560,410,cs),
(560,329,ls),
(560,289,o),
(540,269,o),
(500,269,cs),
(327,269,l),
(327,140,ls),
(327,82,o),
(361,34,o),
(423,34,cs),
(476,34,o),
(507,73,o),
(512,121,cs),
(513,132,o),
(519,137,o),
(529,137,cs),
(551,137,o),
(562,125,o),
(558,105,cs),
(547,39,o),
(500,-10,o),
(426,-10,cs),
(373,-10,o),
(315,19,o),
(303,75,c),
(292,16,o),
(228,-10,o),
(174,-10,cs),
(83,-10,o),
(40,74,o),
(40,155,cs),
(40,235,o),
(81,312,o),
(170,312,cs)
);
},
{
closed = 1;
nodes = (
(279,269,l),
(170,269,ls),
(109,269,o),
(88,206,o),
(88,155,cs),
(88,97,o),
(116,31,o),
(183,31,cs),
(246,31,o),
(279,81,o),
(279,140,cs)
);
},
{
closed = 1;
nodes = (
(327,312,l),
(497,312,ls),
(507,312,o),
(512,317,o),
(512,327,cs),
(512,410,ls),
(512,466,o),
(480,517,o),
(419,517,cs),
(358,517,o),
(327,466,o),
(327,410,cs)
);
}
);
width = 600;
}
);
unicode = (230,1237);
},
{
color = (255, 204, 153, 255);
glyphname = b;
layers = (
{
anchors = (
{
name = top;
position = "{300, 730}";
},
{
name = bottom;
position = "{300, 0}";
}
);
layerId = "DA9EFFB3-F552-472D-9366-30BF08E10A4D";
shapes = (
{
closed = 1;
nodes = (
(83,-10,o),
(60,14,o),
(60,63,cs),
(60,665,ls),
(60,715,o),
(85,740,o),
(135,740,cs),
(185,740,o),
(210,715,o),
(210,665,cs),
(210,459,l),
(220,523,o),
(273,560,o),
(337,560,cs),
(512,560,o),
(555,406,o),
(555,274,cs),
(555,108,o),
(515,-10,o),
(365,-10,cs),
(268,-10,o),
(231,44,o),
(210,109,c),
(210,63,ls),
(210,14,o),
(183,-10,o),
(133,-10,cs)
);
},
{
closed = 1;
nodes = (
(390,125,o),
(405,207,o),
(405,273,cs),
(405,341,o),
(392,425,o),
(311,425,cs),
(249,425,o),
(210,365,o),
(210,295,cs),
(210,255,ls),
(210,175,o),
(257,125,o),
(317,125,cs)
);
}
);
width = 600;
},
{
anchors = (
{
name = top;
position = "{300, 730}";
},
{
name = bottom;
position = "{300, 0}";
}
);
layerId = "2F9F64D1-8101-471E-9D78-CA49E27A5E76";
shapes = (
{
closed = 1;
nodes = (
(105,-10,o),
(90,5,o),
(90,36,cs),
(90,695,ls),
(90,725,o),
(105,740,o),
(135,740,cs),
(165,740,o),
(180,725,o),
(180,695,cs),
(180,456,l),
(192,515,o),
(244,560,o),
(317,560,cs),
(486,560,o),
(520,400,o),
(520,256,cs),
(520,132,o),
(490,-10,o),
(327,-10,cs),
(250,-10,o),
(205,34,o),
(180,100,c),
(180,36,ls),
(180,5,o),
(165,-10,o),
(135,-10,cs)
);
},
{
closed = 1;
nodes = (
(407,80,o),
(430,157,o),
(430,262,cs),
(430,364,o),
(416,470,o),
(302,470,cs),
(230,470,o),
(180,380,o),
(180,316,cs),
(180,206,ls),
(180,143,o),
(245,80,o),
(318,80,cs)
);
}
);
width = 600;
},
{
anchors = (
{
name = top;
position = "{300, 730}";
},
{
name = bottom;
position = "{300, 0}";
}
);
layerId = "DE89D2D6-523F-41BC-8875-C89AC2ABC816";
shapes = (
{
closed = 1;
nodes = (
(118,-10,o),
(110,-2,o),
(110,15,cs),
(110,715,ls),
(110,732,o),
(118,740,o),
(135,740,cs),
(152,740,o),
(160,732,o),
(160,715,cs),
(160,449,l),
(177,521,o),
(237,560,o),
(310,560,cs),
(461,560,o),
(505,404,o),
(505,255,cs),
(505,125,o),
(461,-10,o),
(313,-10,cs),
(215,-10,o),
(175,49,o),
(160,88,c),
(160,15,ls),
(160,-2,o),
(152,-10,o),
(135,-10,cs)
);
},
{
closed = 1;
nodes = (
(421,38,o),
(455,147,o),
(455,255,cs),
(455,383,o),
(428,512,o),
(303,512,cs),
(229,512,o),
(160,425,o),
(160,355,cs),
(160,194,ls),
(160,119,o),
(224,38,o),
(312,38,cs)
);
}
);
width = 600;
}
);
unicode = 98;
},
{
color = (255, 204, 153, 255);
glyphname = c;
layers = (
{
anchors = (
{
name = bottom;
position = "{309, 0}";
},
{
name = top;
position = "{309, 550}";
}
);
layerId = "DA9EFFB3-F552-472D-9366-30BF08E10A4D";
shapes = (
{
closed = 1;
nodes = (
(55,479,o),
(164,560,o),
(306,560,cs),
(425,560,o),
(497,503,o),
(515,450,cs),
(528,412,o),
(514,371,o),
(481,357,cs),
(459,348,o),
(425,349,o),
(411,372,cs),
(390,407,o),
(357,425,o),
(319,425,cs),
(263,425,o),
(205,387,o),
(205,274,cs),
(205,169,o),
(255,125,o),
(315,125,cs),
(352,125,o),
(381,130,o),
(410,153,cs),
(437,174,o),
(472,180,o),
(500,160,cs),
(526,141,o),
(534,94,o),
(513,69,cs),
(455,0,o),
(395,-10,o),
(317,-10,cs),
(163,-10,o),
(55,78,o),
(55,278,cs)
);
}
);
width = 600;
},
{
anchors = (
{
name = bottom;
position = "{309, 0}";
},
{
name = top;
position = "{309, 550}";
}
);
layerId = "2F9F64D1-8101-471E-9D78-CA49E27A5E76";
shapes = (
{
closed = 1;
nodes = (
(80,479,o),
(193,560,o),
(327,560,cs),
(427,560,o),
(487,522,o),
(511,482,cs),
(529,452,o),
(523,428,o),
(501,415,cs),
(477,401,o),
(454,405,o),
(442,425,cs),
(428,447,o),
(391,470,o),
(333,470,cs),
(236,470,o),
(170,406,o),
(170,279,cs),
(170,148,o),
(240,80,o),
(332,80,cs),
(367,80,o),
(409,88,o),
(429,108,cs),
(445,124,o),
(471,129,o),
(493,110,cs),
(510,95,o),
(513,69,o),
(486,38,cs),
(450,-4,o),
(389,-10,o),
(330,-10,cs),
(184,-10,o),
(80,78,o),
(80,274,cs)
);
}
);
width = 600;
},
{
anchors = (
{
name = bottom;
position = "{309, 0}";
},
{
name = top;
position = "{309, 550}";
}
);
layerId = "DE89D2D6-523F-41BC-8875-C89AC2ABC816";
shapes = (
{
closed = 1;
nodes = (
(100,479,o),
(201,560,o),
(341,560,cs),
(427,560,o),
(468,530,o),
(486,500,cs),
(504,470,o),
(492,454,o),
(479,448,cs),
(466,443,o),
(452,448,o),
(441,466,cs),
(425,491,o),
(384,510,o),
(339,510,cs),
(247,510,o),
(150,432,o),
(150,273,cs),
(150,130,o),
(229,40,o),
(351,40,cs),
(397,40,o),
(430,53,o),
(454,71,cs),
(469,82,o),
(486,85,o),
(496,75,cs),
(506,64,o),
(505,46,o),
(491,33,cs),
(458,3,o),
(415,-10,o),
(339,-10,cs),
(200,-10,o),
(100,78,o),
(100,278,cs)
);
}
);
width = 600;
}
);
unicode = 99;
},
{
color = (255, 204, 153, 255);
glyphname = d;
layers = (
{
anchors = (
{
name = topright;
position = "{580, 550}";
},
{
name = bottom;
position = "{300, 0}";
},
{
name = center;
position = "{300, 275}";
},
{
name = top;
position = "{300, 730}";
}
);
layerId = "DA9EFFB3-F552-472D-9366-30BF08E10A4D";
shapes = (
{
closed = 1;
nodes = (
(417,-10,o),
(390,14,o),
(390,63,cs),
(390,109,l),
(369,44,o),
(332,-10,o),
(235,-10,cs),
(85,-10,o),
(45,108,o),
(45,274,cs),
(45,406,o),
(88,560,o),
(263,560,cs),
(327,560,o),
(380,523,o),
(390,459,c),
(390,665,ls),
(390,715,o),
(415,740,o),
(465,740,cs),
(515,740,o),
(540,715,o),
(540,665,cs),
(540,63,ls),
(540,14,o),
(517,-10,o),
(467,-10,cs)
);
},
{
closed = 1;
nodes = (
(343,125,o),
(390,175,o),
(390,255,cs),
(390,295,ls),
(390,365,o),
(351,425,o),
(289,425,cs),
(208,425,o),
(195,341,o),
(195,273,cs),
(195,207,o),
(210,125,o),
(283,125,cs)
);
}
);
width = 600;
},
{
anchors = (
{
name = topright;
position = "{580, 550}";
},
{
name = bottom;
position = "{300, 0}";
},
{
name = center;
position = "{300, 275}";
},
{
name = top;
position = "{300, 730}";
}
);
layerId = "2F9F64D1-8101-471E-9D78-CA49E27A5E76";
shapes = (
{
closed = 1;
nodes = (
(435,-10,o),
(420,5,o),
(420,36,cs),
(420,100,l),
(395,34,o),
(350,-10,o),
(273,-10,cs),
(110,-10,o),
(80,132,o),
(80,256,cs),
(80,400,o),
(114,560,o),
(283,560,cs),
(356,560,o),
(408,515,o),
(420,456,c),
(420,695,ls),
(420,725,o),
(435,740,o),
(465,740,cs),
(495,740,o),
(510,725,o),
(510,695,cs),
(510,36,ls),
(510,5,o),
(495,-10,o),
(465,-10,cs)
);
},
{
closed = 1;
nodes = (
(355,80,o),
(420,143,o),
(420,206,cs),
(420,316,ls),
(420,380,o),
(370,470,o),
(298,470,cs),
(184,470,o),
(170,364,o),
(170,262,cs),
(170,157,o),
(193,80,o),
(282,80,cs)
);
}
);
width = 600;
},
{
anchors = (
{
name = topright;
position = "{580, 550}";
},
{
name = bottom;
position = "{300, 0}";
},
{
name = center;
position = "{300, 275}";
},
{
name = top;
position = "{300, 730}";
}
);
layerId = "DE89D2D6-523F-41BC-8875-C89AC2ABC816";
shapes = (
{
closed = 1;
nodes = (
(448,-10,o),
(440,-2,o),
(440,15,cs),
(440,88,l),
(425,49,o),
(385,-10,o),
(287,-10,cs),
(139,-10,o),
(95,125,o),
(95,255,cs),
(95,404,o),
(139,560,o),
(290,560,cs),
(363,560,o),
(423,521,o),
(440,449,c),
(440,715,ls),
(440,732,o),
(448,740,o),
(465,740,cs),
(482,740,o),
(490,732,o),
(490,715,cs),
(490,15,ls),
(490,-2,o),
(482,-10,o),
(465,-10,cs)
);
},
{
closed = 1;
nodes = (
(376,38,o),
(440,119,o),
(440,194,cs),
(440,355,ls),
(440,425,o),
(371,512,o),
(297,512,cs),
(172,512,o),
(145,383,o),
(145,255,cs),
(145,147,o),
(179,38,o),
(288,38,cs)
);
}
);
width = 600;
}
);
unicode = 100;
},
{
glyphname = eth;
layers = (
{
layerId = "DA9EFFB3-F552-472D-9366-30BF08E10A4D";
shapes = (
{
closed = 1;
nodes = (
(174,632,ls),
(190,638,o),
(193,646,o),
(184,660,cs),
(182,663,ls),
(152,708,o),
(167,730,o),
(229,730,cs),
(271,730,o),
(306,717,o),
(314,707,cs),
(318,702,ls),
(325,693,o),
(334,690,o),
(345,694,cs),
(427,723,ls),
(471,739,o),
(493,724,o),
(493,677,cs),
(493,654,o),
(482,638,o),
(460,630,cs),
(417,614,ls),
(401,608,o),
(398,599,o),
(408,586,cs),
(446,537,ls),
(528,430,o),
(560,337,o),
(560,251,cs),
(560,96,o),
(459,0,o),
(300,0,cs),
(143,0,o),
(40,94,o),
(40,236,cs),
(40,368,o),
(122,456,o),
(243,456,cs),
(312,456,o),
(365,410,o),
(385,375,c),
(391,375,l),
(392,380,o),
(372,414,o),
(314,489,cs),
(276,538,ls),
(266,551,o),
(253,556,o),
(237,550,cs),
(172,526,ls),
(128,510,o),
(106,525,o),
(106,572,cs),
(106,595,o),
(117,611,o),
(139,619,cs)
);
},
{
closed = 1;
nodes = (
(367,125,o),
(410,168,o),
(410,235,cs),
(410,301,o),
(366,345,o),
(300,345,cs),
(233,345,o),
(190,302,o),
(190,235,cs),
(190,168,o),
(233,125,o),
(300,125,cs)
);
}
);
width = 600;
},
{
layerId = "2F9F64D1-8101-471E-9D78-CA49E27A5E76";
shapes = (
{
closed = 1;
nodes = (
(219,623,ls),
(231,629,o),
(233,636,o),
(225,647,cs),
(206,674,ls),
(179,712,o),
(188,730,o),
(234,730,cs),
(257,730,o),
(276,720,o),
(289,701,cs),
(302,682,ls),
(310,671,o),
(319,668,o),
(331,674,cs),
(413,712,ls),
(445,727,o),
(461,718,o),
(461,682,cs),
(461,664,o),
(453,651,o),
(437,644,cs),
(373,614,ls),
(361,608,o),
(358,601,o),
(366,590,cs),
(433,493,ls),
(492,408,o),
(530,308,o),
(530,223,cs),
(530,83,o),
(438,-10,o),
(299,-10,cs),
(162,-10,o),
(70,80,o),
(70,215,cs),
(70,348,o),
(154,436,o),
(281,436,cs),
(339,436,o),
(380,404,o),
(395,380,c),
(409,380,l),
(403,393,o),
(381,429,o),
(345,480,cs),
(292,555,ls),
(284,566,o),
(274,569,o),
(262,563,cs),
(165,518,ls),
(133,503,o),
(117,512,o),
(117,548,cs),
(117,566,o),
(125,578,o),
(141,586,cs)
);
},
{
closed = 1;
nodes = (
(384,70,o),
(440,128,o),
(440,215,cs),
(440,302,o),
(384,360,o),
(299,360,cs),
(216,360,o),
(160,302,o),
(160,215,cs),
(160,128,o),
(216,70,o),
(299,70,cs)
);
}
);
width = 600;
},
{
layerId = "DE89D2D6-523F-41BC-8875-C89AC2ABC816";
shapes = (
{
closed = 1;
nodes = (
(248,617,ls),
(257,621,o),
(259,627,o),
(253,635,cs),
(210,694,ls),
(193,718,o),
(199,730,o),
(228,730,cs),
(243,730,o),
(254,724,o),
(263,712,cs),
(301,657,ls),
(307,649,o),
(315,647,o),
(324,651,cs),
(437,704,ls),
(453,712,o),
(461,706,o),
(461,688,cs),
(461,679,o),
(457,673,o),
(449,669,cs),
(346,621,ls),
(337,617,o),
(335,611,o),
(341,603,cs),
(401,517,ls),
(482,402,o),
(520,302,o),
(520,213,cs),
(520,78,o),
(434,-10,o),
(300,-10,cs),
(167,-10,o),
(80,79,o),
(80,215,cs),
(80,350,o),
(161,436,o),
(290,436,cs),
(363,436,o),
(420,385,o),
(442,347,c),
(445,347,l),
(439,366,o),
(411,419,o),
(358,491,cs),
(293,581,ls),
(287,589,o),
(279,591,o),
(270,587,cs),
(141,526,ls),
(125,518,o),
(117,524,o),
(117,542,cs),
(117,551,o),
(121,557,o),
(129,561,cs)
);
},
{
closed = 1;
nodes = (
(400,40,o),
(465,109,o),
(465,216,cs),
(465,318,o),
(395,390,o),
(300,390,cs),
(199,390,o),
(135,322,o),
(135,215,cs),
(135,108,o),
(199,40,o),
(300,40,cs)
);
}
);
width = 600;
}
);
unicode = 240;
},
{
glyphname = dcaron;
layers = (
{
layerId = "DA9EFFB3-F552-472D-9366-30BF08E10A4D";
shapes = (
{
closed = 1;
nodes = (
(516,550,o),
(498,569,o),
(501,607,cs),
(506,669,ls),
(509,710,o),
(531,730,o),
(572,730,cs),
(613,730,o),
(631,710,o),
(626,669,cs),
(619,607,ls),
(615,569,o),
(594,550,o),
(555,550,cs)
);
},
{
closed = 1;
nodes = (
(371,-10,o),
(344,14,o),
(344,63,cs),
(344,99,l),
(323,34,o),
(291,-10,o),
(209,-10,cs),
(69,-10,o),
(19,108,o),
(19,274,cs),
(19,406,o),
(72,560,o),
(237,560,cs),
(291,560,o),
(334,523,o),
(344,459,c),
(344,665,ls),
(344,715,o),
(369,740,o),
(419,740,cs),
(469,740,o),
(494,715,o),
(494,665,cs),
(494,63,ls),
(494,14,o),
(471,-10,o),
(421,-10,cs)
);
},
{
closed = 1;
nodes = (
(307,125,o),
(344,175,o),
(344,255,cs),
(344,295,ls),
(344,365,o),
(315,425,o),
(263,425,cs),
(192,425,o),
(169,341,o),
(169,273,cs),
(169,207,o),
(194,125,o),
(257,125,cs)
);
}
);
width = 600;
},
{
layerId = "2F9F64D1-8101-471E-9D78-CA49E27A5E76";
shapes = (
{
closed = 1;
nodes = (
(528,550,o),
(516,562,o),
(518,587,cs),
(527,688,ls),
(529,716,o),
(544,730,o),
(572,730,cs),
(600,730,o),
(612,716,o),
(608,688,cs),
(595,587,ls),
(592,562,o),
(578,550,o),
(553,550,cs)
);
},
{
closed = 1;
nodes = (
(393,-10,o),
(378,5,o),
(378,36,cs),
(378,100,l),
(353,34,o),
(308,-10,o),
(251,-10,cs),
(98,-10,o),
(58,132,o),
(58,256,cs),
(58,400,o),
(102,560,o),
(261,560,cs),
(324,560,o),
(366,515,o),
(378,456,c),
(378,695,ls),
(378,725,o),
(393,740,o),
(423,740,cs),
(453,740,o),
(468,725,o),
(468,695,cs),
(468,36,ls),
(468,5,o),
(453,-10,o),
(423,-10,cs)
);
},
{
closed = 1;
nodes = (
(323,80,o),
(378,143,o),
(378,206,cs),
(378,316,ls),
(378,380,o),
(338,470,o),
(276,470,cs),
(172,470,o),
(148,364,o),
(148,262,cs),
(148,157,o),
(181,80,o),
(260,80,cs)
);
}
);
width = 600;
},
{
layerId = "DE89D2D6-523F-41BC-8875-C89AC2ABC816";
shapes = (
{
closed = 1;
nodes = (
(537,550,o),
(531,557,o),
(533,571,cs),
(551,704,ls),
(553,721,o),
(564,730,o),
(581,730,cs),
(598,730,o),
(605,721,o),
(602,704,cs),
(576,571,ls),
(573,557,o),
(565,550,o),
(551,550,cs)
);
},
{
closed = 1;
nodes = (
(408,-10,o),
(400,-2,o),
(400,15,cs),
(400,88,l),
(385,49,o),
(355,-10,o),
(267,-10,cs),
(129,-10,o),
(75,125,o),
(75,255,cs),
(75,404,o),
(119,560,o),
(270,560,cs),
(333,560,o),
(383,521,o),
(400,449,c),
(400,715,ls),
(400,732,o),
(408,740,o),
(425,740,cs),
(442,740,o),
(450,732,o),
(450,715,cs),
(450,15,ls),
(450,-2,o),
(442,-10,o),
(425,-10,cs)
);
},
{
closed = 1;
nodes = (
(346,38,o),
(400,119,o),
(400,194,cs),
(400,355,ls),
(400,425,o),
(341,512,o),
(277,512,cs),
(152,512,o),
(125,383,o),
(125,255,cs),
(125,147,o),
(169,38,o),
(268,38,cs)
);
}
);
width = 600;
}
);
unicode = 271;
},
{
glyphname = dcroat;
layers = (
{
layerId = "DA9EFFB3-F552-472D-9366-30BF08E10A4D";
shapes = (
{
closed = 1;
nodes = (
(295,555,ls),
(258,555,o),
(240,573,o),
(240,610,cs),
(240,647,o),
(258,665,o),
(295,665,cs),
(555,665,ls),
(592,665,o),
(610,647,o),
(610,610,cs),
(610,573,o),
(592,555,o),
(555,555,cs)
);
},
{
closed = 1;
nodes = (
(417,-10,o),
(390,14,o),
(390,63,cs),
(390,99,l),
(369,34,o),
(327,-10,o),
(235,-10,cs),
(95,-10,o),
(45,108,o),
(45,244,cs),
(45,366,o),
(88,500,o),
(263,500,cs),
(337,500,o),
(380,463,o),
(390,399,c),
(390,665,ls),
(390,715,o),
(415,740,o),
(465,740,cs),
(515,740,o),
(540,715,o),
(540,665,cs),
(540,63,ls),
(540,14,o),
(517,-10,o),
(467,-10,cs)
);
},
{
closed = 1;
nodes = (
(343,125,o),
(390,165,o),
(390,225,cs),
(390,265,ls),
(390,315,o),
(351,365,o),
(289,365,cs),
(208,365,o),
(195,291,o),
(195,243,cs),
(195,187,o),
(220,125,o),
(283,125,cs)
);
}
);
width = 600;
},
{
layerId = "2F9F64D1-8101-471E-9D78-CA49E27A5E76";
shapes = (
{
closed = 1;
nodes = (
(297,572,ls),
(272,572,o),
(260,585,o),
(260,610,cs),
(260,635,o),
(272,647,o),
(297,647,cs),
(552,647,ls),
(577,647,o),
(590,635,o),
(590,610,cs),
(590,585,o),
(577,572,o),
(552,572,cs)
);
},
{
closed = 1;
nodes = (
(435,-10,o),
(420,5,o),
(420,36,cs),
(420,100,l),
(395,34,o),
(340,-10,o),
(273,-10,cs),
(120,-10,o),
(80,112,o),
(80,226,cs),
(80,360,o),
(124,500,o),
(283,500,cs),
(356,500,o),
(408,455,o),
(420,396,c),
(420,695,ls),
(420,725,o),
(435,740,o),
(465,740,cs),
(495,740,o),
(510,725,o),
(510,695,cs),
(510,36,ls),
(510,5,o),
(495,-10,o),
(465,-10,cs)
);
},
{
closed = 1;
nodes = (
(355,80,o),
(420,133,o),
(420,196,cs),
(420,266,ls),
(420,330,o),
(370,410,o),
(298,410,cs),
(194,410,o),
(170,314,o),
(170,232,cs),
(170,147,o),
(203,80,o),
(282,80,cs)
);
}
);
width = 600;
},
{
layerId = "DE89D2D6-523F-41BC-8875-C89AC2ABC816";
shapes = (
{
closed = 1;
nodes = (
(311,588,ls),
(297,588,o),
(290,596,o),
(290,610,cs),
(290,624,o),
(297,631,o),
(311,631,cs),
(559,631,ls),
(573,631,o),
(580,624,o),
(580,610,cs),
(580,596,o),
(573,588,o),
(559,588,cs)
);
},
{
closed = 1;
nodes = (
(448,-10,o),
(440,-2,o),
(440,15,cs),
(440,88,l),
(425,49,o),
(385,-10,o),
(287,-10,cs),
(149,-10,o),
(95,105,o),
(95,225,cs),
(95,364,o),
(149,500,o),
(290,500,cs),
(363,500,o),
(423,461,o),
(440,389,c),
(440,715,ls),
(440,732,o),
(448,740,o),
(465,740,cs),
(482,740,o),
(490,732,o),
(490,715,cs),
(490,15,ls),
(490,-2,o),
(482,-10,o),
(465,-10,cs)
);
},
{
closed = 1;
nodes = (
(376,38,o),
(440,119,o),
(440,194,cs),
(440,295,ls),
(440,365,o),
(371,452,o),
(297,452,cs),
(182,452,o),
(145,343,o),
(145,225,cs),
(145,127,o),
(189,38,o),
(288,38,cs)
);
}
);
width = 600;
}
);
unicode = 273;
},
{
color = (255, 204, 153, 255);
glyphname = e;
layers = (
{
anchors = (
{
name = top;
position = "{300, 550}";
},
{
name = bottom;
position = "{300, 0}";
},
{
name = ogonek;
position = "{355, 0}";
}
);
layerId = "DA9EFFB3-F552-472D-9366-30BF08E10A4D";
shapes = (
{
closed = 1;
nodes = (
(497,173,o),
(518,138,o),
(518,101,cs),
(518,80,o),
(512,63,o),
(486,41,cs),
(446,8,o),
(390,-10,o),
(305,-10,cs),
(140,-10,o),
(62,117,o),
(62,270,cs),
(62,417,o),
(128,560,o),
(310,560,cs),
(475,560,o),
(533,429,o),
(533,295,cs),
(533,251,o),
(513,230,o),
(472,230,cs),
(201,230,l),
(216,150,o),
(265,125,o),
(313,125,cs),
(356,125,o),
(402,143,o),
(419,157,cs),
(432,167,o),
(447,173,o),
(461,173,cs)
);
},
{
closed = 1;
nodes = (
(395,340,ls),
(403,340,o),
(407,343,o),
(407,354,cs),
(407,390,o),
(374,425,o),
(310,425,cs),
(252,425,o),
(216,393,o),
(202,340,c)
);
}
);
width = 600;
},
{
anchors = (
{
name = top;
position = "{300, 550}";
},
{
name = bottom;
position = "{300, 0}";
},
{
name = ogonek;
position = "{355, 0}";
}
);
layerId = "2F9F64D1-8101-471E-9D78-CA49E27A5E76";
shapes = (
{
closed = 1;
nodes = (
(484,132,o),
(503,110,o),
(503,88,cs),
(503,76,o),
(498,66,o),
(482,50,cs),
(440,10,o),
(385,-10,o),
(319,-10,cs),
(165,-10,o),
(73,98,o),
(73,272,cs),
(73,425,o),
(135,560,o),
(305,560,cs),
(464,560,o),
(515,443,o),
(515,287,cs),
(515,263,o),
(496,240,o),
(468,240,cs),
(165,240,l),
(176,132,o),
(235,80,o),
(320,80,cs),
(379,80,o),
(413,104,o),
(433,120,cs),
(444,129,o),
(449,132,o),
(459,132,cs)
);
},
{
closed = 1;
nodes = (
(409,320,ls),
(416,320,o),
(425,325,o),
(425,353,cs),
(425,410,o),
(380,470,o),
(305,470,cs),
(221,470,o),
(175,408,o),
(165,320,c)
);
}
);
width = 600;
},
{
anchors = (
{
name = top;
position = "{300, 550}";
},
{
name = bottom;
position = "{300, 0}";
},
{
name = ogonek;
position = "{355, 0}";
}
);
layerId = "DE89D2D6-523F-41BC-8875-C89AC2ABC816";
shapes = (
{
closed = 1;
nodes = (
(479,114,o),
(490,96,o),
(490,82,cs),
(490,75,o),
(487,69,o),
(482,64,cs),
(431,10,o),
(395,-10,o),
(300,-10,cs),
(142,-10,o),
(83,106,o),
(83,263,cs),
(83,418,o),
(135,560,o),
(300,560,cs),
(455,560,o),
(503,432,o),
(503,288,cs),
(503,273,o),
(492,258,o),
(476,258,cs),
(134,258,l),
(141,118,o),
(197,40,o),
(302,40,cs),
(363,40,o),
(398,57,o),
(441,100,cs),
(447,106,o),
(454,114,o),
(464,114,cs)
);
},
{
closed = 1;
nodes = (
(445,308,ls),
(451,308,o),
(453,311,o),
(453,329,cs),
(453,409,o),
(414,510,o),
(300,510,cs),
(186,510,o),
(140,405,o),
(134,308,c)
);
}
);
width = 600;
}
);
unicode = 101;
},
{
color = (255, 204, 153, 255);
glyphname = f;
layers = (
{
anchors = (
{
name = bottom;
position = "{300, 0}";
},
{
name = top;
position = "{300, 730}";
}
);
layerId = "DA9EFFB3-F552-472D-9366-30BF08E10A4D";
shapes = (
{
closed = 1;
nodes = (
(101,335,ls),
(56,335,o),
(34,358,o),
(34,403,cs),
(34,448,o),
(56,470,o),
(101,470,cs),
(484,470,ls),
(529,470,o),
(551,448,o),
(551,403,cs),
(551,358,o),
(529,335,o),
(484,335,cs)
);
},
{
closed = 1;
nodes = (
(350,65,ls),
(350,15,o),
(325,-10,o),
(275,-10,cs),
(225,-10,o),
(200,15,o),
(200,65,cs),
(200,545,ls),
(200,653,o),
(284,730,o),
(405,730,cs),
(476,730,ls),
(520,730,o),
(541,709,o),
(541,665,cs),
(541,621,o),
(520,600,o),
(476,600,cs),
(405,600,ls),
(372,600,o),
(350,578,o),
(350,545,cs)
);
}
);
width = 600;
},
{
anchors = (
{
name = bottom;
position = "{300, 0}";
},
{
name = top;
position = "{300, 730}";
}
);
layerId = "2F9F64D1-8101-471E-9D78-CA49E27A5E76";
shapes = (
{
closed = 1;
nodes = (
(89,380,ls),
(62,380,o),
(45,398,o),
(45,425,cs),
(45,452,o),
(62,470,o),
(89,470,cs),
(496,470,ls),
(523,470,o),
(540,452,o),
(540,425,cs),
(540,398,o),
(523,380,o),
(496,380,cs)
);
},
{
closed = 1;
nodes = (
(305,35,ls),
(305,5,o),
(290,-10,o),
(260,-10,cs),
(230,-10,o),
(215,5,o),
(215,35,cs),
(215,570,ls),
(215,669,o),
(293,730,o),
(389,730,cs),
(484,730,ls),
(511,730,o),
(530,712,o),
(530,685,cs),
(530,658,o),
(511,640,o),
(484,640,cs),
(389,640,ls),
(335,640,o),
(305,600,o),
(305,570,cs)
);
}
);
width = 600;
},
{
anchors = (
{
name = bottom;
position = "{300, 0}";
},
{
name = top;
position = "{300, 730}";
}
);
layerId = "DE89D2D6-523F-41BC-8875-C89AC2ABC816";
shapes = (
{
closed = 1;
nodes = (
(80,420,ls),
(65,420,o),
(55,431,o),
(55,446,cs),
(55,461,o),
(65,470,o),
(80,470,cs),
(503,470,ls),
(518,470,o),
(528,461,o),
(528,446,cs),
(528,431,o),
(518,420,o),
(503,420,cs)
);
},
{
closed = 1;
nodes = (
(285,15,ls),
(285,-2,o),
(277,-10,o),
(260,-10,cs),
(243,-10,o),
(235,-2,o),
(235,15,cs),
(235,595,ls),
(235,672,o),
(291,730,o),
(375,730,cs),
(494,730,ls),
(509,730,o),
(518,720,o),
(518,705,cs),
(518,690,o),
(509,680,o),
(494,680,cs),
(375,680,ls),
(322,680,o),
(285,637,o),
(285,595,cs)
);
}
);
width = 600;
}
);
unicode = 102;
},
{
color = (255, 204, 153, 255);
glyphname = g;
layers = (
{
anchors = (
{
name = top;
position = "{297, 550}";
},
{
name = bottom;
position = "{300, -270}";
}
);
layerId = "DA9EFFB3-F552-472D-9366-30BF08E10A4D";
shapes = (
{
closed = 1;
nodes = (
(400,99,l),
(385,37,o),
(327,-10,o),
(245,-10,cs),
(85,-10,o),
(45,148,o),
(45,274,cs),
(45,406,o),
(88,560,o),
(263,560,cs),
(327,560,o),
(375,523,o),
(395,459,c),
(395,485,ls),
(395,535,o),
(415,560,o),
(465,560,cs),
(515,560,o),
(535,535,o),
(535,485,cs),
(535,0,ls),
(535,-172,o),
(473,-270,o),
(280,-270,cs),
(201,-270,o),
(130,-241,o),
(77,-181,cs),
(65,-167,o),
(57,-148,o),
(57,-130,cs),
(57,-93,o),
(91,-53,o),
(133,-53,cs),
(146,-53,o),
(160,-57,o),
(171,-67,cs),
(204,-98,o),
(247,-135,o),
(301,-135,cs),
(362,-135,o),
(400,-88,o),
(400,0,cs)
);
},
{
closed = 1;
nodes = (
(353,140,o),
(395,181,o),
(395,235,cs),
(395,315,ls),
(395,373,o),
(361,420,o),
(299,420,cs),
(218,420,o),
(195,341,o),
(195,273,cs),
(195,207,o),
(217,140,o),
(293,140,cs)
);
}
);
width = 600;
},
{
anchors = (
{
name = top;
position = "{297, 550}";
},
{
name = bottom;
position = "{300, -270}";
}
);
layerId = "2F9F64D1-8101-471E-9D78-CA49E27A5E76";
shapes = (
{
closed = 1;
nodes = (
(420,120,l),
(395,41,o),
(343,10,o),
(273,10,cs),
(114,10,o),
(80,157,o),
(80,281,cs),
(80,405,o),
(114,560,o),
(283,560,cs),
(356,560,o),
(401,519,o),
(420,456,c),
(420,515,ls),
(420,545,o),
(435,560,o),
(465,560,cs),
(495,560,o),
(510,545,o),
(510,515,cs),
(510,0,ls),
(510,-169,o),
(413,-240,o),
(292,-240,cs),
(199,-240,o),
(143,-202,o),
(106,-156,cs),
(96,-144,o),
(92,-132,o),
(92,-120,cs),
(92,-98,o),
(109,-64,o),
(139,-64,cs),
(154,-64,o),
(164,-70,o),
(173,-82,cs),
(202,-117,o),
(249,-150,o),
(304,-150,cs),
(353,-150,o),
(420,-114,o),
(420,0,cs)
);
},
{
closed = 1;
nodes = (
(355,95,o),
(420,163,o),
(420,226,cs),
(420,316,ls),
(420,380,o),
(370,475,o),
(298,475,cs),
(184,475,o),
(170,369,o),
(170,287,cs),
(170,202,o),
(185,95,o),
(282,95,cs)
);
}
);
width = 600;
},
{
anchors = (
{
name = top;
position = "{297, 550}";
},
{
name = bottom;
position = "{300, -270}";
}
);
layerId = "DE89D2D6-523F-41BC-8875-C89AC2ABC816";
shapes = (
{
closed = 1;
nodes = (
(440,128,l),
(434,87,o),
(395,30,o),
(287,30,cs),
(139,30,o),
(105,165,o),
(105,285,cs),
(105,404,o),
(139,560,o),
(290,560,cs),
(363,560,o),
(413,521,o),
(440,449,c),
(440,535,ls),
(440,552,o),
(448,560,o),
(465,560,cs),
(482,560,o),
(490,552,o),
(490,535,cs),
(490,0,ls),
(490,-173,o),
(391,-210,o),
(296,-210,cs),
(209,-210,o),
(170,-179,o),
(138,-147,cs),
(126,-134,o),
(122,-127,o),
(122,-114,cs),
(122,-97,o),
(131,-85,o),
(147,-85,cs),
(153,-85,o),
(160,-87,o),
(170,-97,cs),
(186,-113,o),
(236,-160,o),
(298,-160,cs),
(376,-160,o),
(440,-128,o),
(440,0,cs)
);
},
{
closed = 1;
nodes = (
(376,78,o),
(440,159,o),
(440,234,cs),
(440,355,ls),
(440,425,o),
(371,512,o),
(297,512,cs),
(172,512,o),
(155,383,o),
(155,285,cs),
(155,187,o),
(172,78,o),
(288,78,cs)
);
}
);
width = 600;
}
);
unicode = 103;
},
{
color = (255, 204, 153, 255);
glyphname = h;
layers = (
{
anchors = (
{
name = bottom;
position = "{300, 0}";
},
{
name = center;
position = "{300, 365}";
},
{
name = top;
position = "{135, 730}";
}
);
layerId = "DA9EFFB3-F552-472D-9366-30BF08E10A4D";
shapes = (
{
closed = 1;
nodes = (
(212,65,ls),
(212,15,o),
(187,-10,o),
(137,-10,cs),
(87,-10,o),
(62,15,o),
(62,65,cs),
(62,667,ls),
(62,716,o),
(86,740,o),
(131,740,cs),
(176,740,o),
(207,716,o),
(207,667,cs),
(207,450,l),
(228,520,o),
(275,560,o),
(339,560,cs),
(467,560,o),
(538,469,o),
(538,355,cs),
(538,65,ls),
(538,15,o),
(513,-10,o),
(463,-10,cs),
(413,-10,o),
(388,15,o),
(388,65,cs),
(388,325,ls),
(388,371,o),
(368,420,o),
(313,420,cs),
(251,420,o),
(212,373,o),
(212,315,cs)
);
}
);
width = 600;
},
{
anchors = (
{
name = bottom;
position = "{300, 0}";
},
{
name = center;
position = "{300, 365}";
},
{
name = top;
position = "{135, 730}";
}
);
layerId = "2F9F64D1-8101-471E-9D78-CA49E27A5E76";
shapes = (
{
closed = 1;
nodes = (
(185,35,ls),
(185,5,o),
(170,-10,o),
(140,-10,cs),
(110,-10,o),
(95,5,o),
(95,35,cs),
(95,695,ls),
(95,725,o),
(110,740,o),
(140,740,cs),
(170,740,o),
(185,725,o),
(185,695,cs),
(185,456,l),
(204,519,o),
(249,560,o),
(322,560,cs),
(428,560,o),
(505,484,o),
(505,370,cs),
(505,35,ls),
(505,5,o),
(490,-10,o),
(460,-10,cs),
(430,-10,o),
(415,5,o),
(415,35,cs),
(415,344,ls),
(415,413,o),
(378,475,o),
(307,475,cs),
(235,475,o),
(185,380,o),
(185,316,cs)
);
}
);
width = 600;
},
{
anchors = (
{
name = bottom;
position = "{300, 0}";
},
{
name = center;
position = "{300, 365}";
},
{
name = top;
position = "{135, 730}";
}
);
layerId = "DE89D2D6-523F-41BC-8875-C89AC2ABC816";
shapes = (
{
closed = 1;
nodes = (
(165,15,ls),
(165,-2,o),
(157,-10,o),
(140,-10,cs),
(123,-10,o),
(115,-2,o),
(115,15,cs),
(115,715,ls),
(115,732,o),
(123,740,o),
(140,740,cs),
(157,740,o),
(165,732,o),
(165,715,cs),
(165,449,l),
(192,521,o),
(242,560,o),
(315,560,cs),
(423,560,o),
(485,476,o),
(485,367,cs),
(485,15,ls),
(485,-2,o),
(477,-10,o),
(460,-10,cs),
(443,-10,o),
(435,-2,o),
(435,15,cs),
(435,355,ls),
(435,438,o),
(391,512,o),
(308,512,cs),
(234,512,o),
(165,425,o),
(165,355,cs)
);
}
);
width = 600;
}
);
unicode = 104;
},
{
glyphname = idotless;
layers = (
{
anchors = (
{
name = bottom;
position = "{315, 0}";
},
{
name = ogonek;
position = "{330, 0}";
},
{
name = top;
position = "{315, 550}";
}
);
layerId = "DA9EFFB3-F552-472D-9366-30BF08E10A4D";
shapes = (
{
closed = 1;
nodes = (
(493,135,ls),
(538,135,o),
(560,113,o),
(560,68,cs),
(560,23,o),
(537,0,o),
(492,0,cs),
(138,0,ls),
(93,0,o),
(70,23,o),
(70,68,cs),
(70,113,o),
(92,135,o),
(137,135,cs)
);
},
{
closed = 1;
nodes = (
(252,55,l),
(252,339,ls),
(252,376,o),
(234,395,o),
(197,395,cs),
(160,395,ls),
(113,395,o),
(90,417,o),
(90,462,cs),
(90,507,o),
(113,530,o),
(160,530,cs),
(282,530,ls),
(362,530,o),
(402,490,o),
(402,410,cs),
(402,55,l)
);
}
);
width = 600;
},
{
anchors = (
{
name = bottom;
position = "{315, 0}";
},
{
name = ogonek;
position = "{330, 0}";
},
{
name = top;
position = "{315, 550}";
}
);
layerId = "2F9F64D1-8101-471E-9D78-CA49E27A5E76";
shapes = (
{
closed = 1;
nodes = (
(512,90,ls),
(539,90,o),
(555,72,o),
(555,45,cs),
(555,18,o),
(539,0,o),
(512,0,cs),
(128,0,ls),
(101,0,o),
(85,18,o),
(85,45,cs),
(85,72,o),
(101,90,o),
(128,90,cs)
);
},
{
closed = 1;
nodes = (
(280,40,l),
(280,400,ls),
(280,427,o),
(267,440,o),
(240,440,cs),
(149,440,ls),
(122,440,o),
(105,458,o),
(105,485,cs),
(105,512,o),
(122,530,o),
(149,530,cs),
(290,530,ls),
(344,530,o),
(370,504,o),
(370,450,cs),
(370,40,l)
);
}
);
width = 600;
},
{
anchors = (
{
name = bottom;
position = "{315, 0}";
},
{
name = ogonek;
position = "{330, 0}";
},
{
name = top;
position = "{315, 550}";
}
);
layerId = "DE89D2D6-523F-41BC-8875-C89AC2ABC816";
shapes = (
{
closed = 1;
nodes = (
(510,50,ls),
(525,50,o),
(535,40,o),
(535,25,cs),
(535,10,o),
(526,0,o),
(511,0,cs),
(119,0,ls),
(104,0,o),
(95,10,o),
(95,25,cs),
(95,40,o),
(104,50,o),
(119,50,cs)
);
},
{
closed = 1;
nodes = (
(296,25,l),
(296,450,ls),
(296,470,o),
(286,480,o),
(266,480,cs),
(145,480,ls),
(130,480,o),
(120,490,o),
(120,505,cs),
(120,520,o),
(130,530,o),
(145,530,cs),
(286,530,ls),
(326,530,o),
(346,510,o),
(346,470,cs),
(346,25,l)
);
}
);
width = 600;
}
);
unicode = 305;
},
{
glyphname = ij;
layers = (
{
layerId = "DA9EFFB3-F552-472D-9366-30BF08E10A4D";
shapes = (
{
closed = 1;
nodes = (
(152,-180,ls),
(107,-180,o),
(85,-158,o),
(85,-113,cs),
(85,-68,o),
(107,-45,o),
(152,-45,cs),
(280,-45,ls),
(318,-45,o),
(365,5,o),
(365,45,qs),
(365,475,ls),
(365,525,o),
(390,550,o),
(440,550,cs),
(490,550,o),
(515,525,o),
(515,475,cs),
(515,40,ls),
(515,-62,o),
(395,-180,o),
(291,-180,qs)
);
},
{
closed = 1;
nodes = (
(85,475,ls),
(85,525,o),
(110,550,o),
(160,550,cs),
(210,550,o),
(235,525,o),
(235,475,cs),
(235,140,ls),
(235,90,o),
(210,65,o),
(160,65,cs),
(110,65,o),
(85,90,o),
(85,140,cs)
);
},
{
closed = 1;
nodes = (
(119,637,o),
(70,679,o),
(70,715,qs),
(70,751,o),
(119,793,o),
(160,793,qs),
(201,793,o),
(250,751,o),
(250,715,qs),
(250,679,o),
(201,637,o),
(160,637,qs)
);
},
{
closed = 1;
nodes = (
(399,637,o),
(350,679,o),
(350,715,qs),
(350,751,o),
(399,793,o),
(440,793,qs),
(481,793,o),
(530,751,o),
(530,715,qs),
(530,679,o),
(481,637,o),
(440,637,qs)
);
}
);
width = 600;
},
{
layerId = "2F9F64D1-8101-471E-9D78-CA49E27A5E76";
shapes = (
{
closed = 1;
nodes = (
(149,-180,ls),
(122,-180,o),
(108,-166,o),
(108,-139,cs),
(108,-112,o),
(122,-98,o),
(149,-98,cs),
(274,-98,ls),
(336,-98,o),
(405,-30,o),
(405,31,qs),
(405,505,ls),
(405,535,o),
(420,550,o),
(450,550,cs),
(480,550,o),
(495,535,o),
(495,505,cs),
(495,31,ls),
(495,-66,o),
(375,-180,o),
(274,-180,qs)
);
},
{
closed = 1;
nodes = (
(108,505,ls),
(108,535,o),
(123,550,o),
(153,550,cs),
(183,550,o),
(198,535,o),
(198,505,cs),
(198,45,ls),
(198,15,o),
(183,0,o),
(153,0,cs),
(123,0,o),
(108,15,o),
(108,45,cs)
);
},
{
closed = 1;
nodes = (
(118,649,o),
(80,683,o),
(80,712,qs),
(80,742,o),
(118,777,o),
(151,777,qs),
(184,777,o),
(222,742,o),
(222,712,qs),
(222,683,o),
(184,649,o),
(151,649,qs)
);
},
{
closed = 1;
nodes = (
(416,649,o),
(378,683,o),
(378,712,qs),
(378,742,o),
(416,777,o),
(449,777,qs),
(482,777,o),
(520,742,o),
(520,712,qs),
(520,683,o),
(482,649,o),
(449,649,qs)
);
}
);
width = 600;
},
{
layerId = "DE89D2D6-523F-41BC-8875-C89AC2ABC816";
shapes = (
{
closed = 1;
nodes = (
(150,-180,ls),
(135,-180,o),
(127,-173,o),
(127,-158,cs),
(127,-143,o),
(135,-135,o),
(150,-135,cs),
(281,-135,ls),
(352,-135,o),
(425,-60,o),
(425,10,qs),
(425,525,ls),
(425,542,o),
(433,550,o),
(450,550,cs),
(467,550,o),
(475,542,o),
(475,525,cs),
(475,10,ls),
(475,-79,o),
(373,-180,o),
(281,-180,qs)
);
},
{
closed = 1;
nodes = (
(127,525,ls),
(127,542,o),
(135,550,o),
(152,550,cs),
(169,550,o),
(177,542,o),
(177,525,cs),
(177,25,ls),
(177,8,o),
(169,0,o),
(152,0,cs),
(135,0,o),
(127,8,o),
(127,25,cs)
);
},
{
closed = 1;
nodes = (
(126,655,o),
(94,685,o),
(94,710,qs),
(94,735,o),
(126,765,o),
(152,765,qs),
(178,765,o),
(210,735,o),
(210,710,qs),
(210,685,o),
(178,655,o),
(152,655,qs)
);
},
{
closed = 1;
nodes = (
(422,655,o),
(390,685,o),
(390,710,qs),
(390,735,o),
(422,765,o),
(448,765,qs),
(474,765,o),
(506,735,o),
(506,710,qs),
(506,685,o),
(474,655,o),
(448,655,qs)
);
}
);
width = 600;
}
);
unicode = 307;
},
{
glyphname = ij_acute;
layers = (
{
layerId = "DA9EFFB3-F552-472D-9366-30BF08E10A4D";
shapes = (
{
closed = 1;
nodes = (
(85,-68,o),
(107,-45,o),
(152,-45,cs),
(280,-45,ls),
(318,-45,o),
(365,5,o),
(365,45,qs),
(365,475,ls),
(365,525,o),
(390,550,o),
(440,550,cs),
(490,550,o),
(515,525,o),
(515,475,cs),
(515,40,ls),
(515,-62,o),
(395,-180,o),
(291,-180,qs),
(152,-180,ls),
(107,-180,o),
(85,-158,o),
(85,-113,cs)
);
},
{
closed = 1;
nodes = (
(110,65,o),
(85,90,o),
(85,140,cs),
(85,475,ls),
(85,525,o),
(110,550,o),
(160,550,cs),
(210,550,o),
(235,525,o),
(235,475,cs),
(235,140,ls),
(235,90,o),
(210,65,o),
(160,65,cs)
);
},
{
closed = 1;
nodes = (
(394,645,o),
(382,671,o),
(422,724,c),
(437,745,ls),
(461,778,o),
(489,785,o),
(528,785,cs),
(595,785,o),
(607,759,o),
(564,708,cs),
(543,683,ls),
(522,657,o),
(494,645,o),
(461,645,cs)
);
},
{
closed = 1;
nodes = (
(110,645,o),
(98,671,o),
(138,724,c),
(153,745,ls),
(177,778,o),
(205,785,o),
(244,785,cs),
(311,785,o),
(323,759,o),
(280,708,cs),
(259,683,ls),
(238,657,o),
(210,645,o),
(177,645,cs)
);
}
);
width = 600;
},
{
layerId = "2F9F64D1-8101-471E-9D78-CA49E27A5E76";
shapes = (
{
closed = 1;
nodes = (
(108,-112,o),
(122,-98,o),
(149,-98,cs),
(274,-98,ls),
(336,-98,o),
(405,-30,o),
(405,31,qs),
(405,505,ls),
(405,535,o),
(420,550,o),
(450,550,cs),
(480,550,o),
(495,535,o),
(495,505,cs),
(495,31,ls),
(495,-66,o),
(375,-180,o),
(274,-180,qs),
(149,-180,ls),
(122,-180,o),
(108,-166,o),
(108,-139,cs)
);
},
{
closed = 1;
nodes = (
(123,0,o),
(108,15,o),
(108,45,cs),
(108,505,ls),
(108,535,o),
(123,550,o),
(153,550,cs),
(183,550,o),
(198,535,o),
(198,505,cs),
(198,45,ls),
(198,15,o),
(183,0,o),
(153,0,cs)
);
},
{
closed = 1;
nodes = (
(417,645,o),
(409,661,o),
(434,694,cs),
(483,759,ls),
(496,776,o),
(513,785,o),
(535,785,cs),
(578,785,o),
(587,768,o),
(560,734,cs),
(508,669,ls),
(495,653,o),
(479,645,o),
(458,645,cs)
);
},
{
closed = 1;
nodes = (
(128,645,o),
(120,661,o),
(145,694,cs),
(194,759,ls),
(207,776,o),
(224,785,o),
(246,785,cs),
(289,785,o),
(298,768,o),
(271,734,cs),
(219,669,ls),
(206,653,o),
(190,645,o),
(169,645,cs)
);
}
);
width = 600;
},
{
layerId = "DE89D2D6-523F-41BC-8875-C89AC2ABC816";
shapes = (
{
closed = 1;
nodes = (
(127,-143,o),
(135,-135,o),
(150,-135,cs),
(281,-135,ls),
(352,-135,o),
(425,-60,o),
(425,10,qs),
(425,525,ls),
(425,542,o),
(433,550,o),
(450,550,cs),
(467,550,o),
(475,542,o),
(475,525,cs),
(475,10,ls),
(475,-79,o),
(373,-180,o),
(281,-180,qs),
(150,-180,ls),
(135,-180,o),
(127,-173,o),
(127,-158,cs)
);
},
{
closed = 1;
nodes = (
(135,0,o),
(127,8,o),
(127,25,cs),
(127,525,ls),
(127,542,o),
(135,550,o),
(152,550,cs),
(169,550,o),
(177,542,o),
(177,525,cs),
(177,25,ls),
(177,8,o),
(169,0,o),
(152,0,cs)
);
},
{
closed = 1;
nodes = (
(431,645,o),
(427,654,o),
(441,673,cs),
(514,769,ls),
(522,780,o),
(533,785,o),
(546,785,cs),
(572,785,o),
(576,775,o),
(560,754,cs),
(484,659,ls),
(477,650,o),
(467,645,o),
(455,645,cs)
);
},
{
closed = 1;
nodes = (
(136,645,o),
(132,654,o),
(146,673,cs),
(219,769,ls),
(227,780,o),
(238,785,o),
(251,785,cs),
(277,785,o),
(281,775,o),
(265,754,cs),
(189,659,ls),
(182,650,o),
(172,645,o),
(160,645,cs)
);
}
);
width = 600;
}
);
},
{
glyphname = jdotless;
layers = (
{
anchors = (
{
name = bottom;
position = "{296, -270}";
},
{
name = top;
position = "{380, 550}";
}
);
layerId = "DA9EFFB3-F552-472D-9366-30BF08E10A4D";
shapes = (
{
closed = 1;
nodes = (
(315,339,ls),
(315,376,o),
(297,395,o),
(260,395,cs),
(168,395,ls),
(125,395,o),
(103,417,o),
(103,461,cs),
(103,507,o),
(126,530,o),
(173,530,cs),
(345,530,ls),
(425,530,o),
(465,490,o),
(465,410,cs),
(465,46,ls),
(465,-162,o),
(409,-270,o),
(225,-270,cs),
(182,-270,o),
(118,-264,o),
(42,-181,cs),
(29,-167,o),
(22,-145,o),
(22,-128,cs),
(22,-95,o),
(47,-57,o),
(88,-53,cs),
(113,-51,o),
(135,-63,o),
(154,-88,cs),
(167,-106,o),
(195,-135,o),
(237,-135,cs),
(290,-135,o),
(315,-89,o),
(315,22,cs)
);
}
);
width = 600;
},
{
anchors = (
{
name = bottom;
position = "{296, -270}";
},
{
name = top;
position = "{380, 550}";
}
);
layerId = "2F9F64D1-8101-471E-9D78-CA49E27A5E76";
shapes = (
{
closed = 1;
nodes = (
(350,400,ls),
(350,427,o),
(337,440,o),
(310,440,cs),
(175,440,ls),
(148,440,o),
(130,458,o),
(130,485,cs),
(130,510,o),
(148,530,o),
(175,530,cs),
(360,530,ls),
(414,530,o),
(440,504,o),
(440,450,cs),
(440,-33,ls),
(440,-157,o),
(352,-240,o),
(240,-240,cs),
(162,-240,o),
(106,-199,o),
(61,-148,cs),
(53,-140,o),
(50,-129,o),
(50,-120,cs),
(50,-99,o),
(66,-68,o),
(96,-68,cs),
(115,-68,o),
(128,-81,o),
(142,-97,cs),
(165,-123,o),
(193,-150,o),
(240,-150,cs),
(296,-150,o),
(350,-113,o),
(350,-47,cs)
);
}
);
width = 600;
},
{
anchors = (
{
name = bottom;
position = "{296, -270}";
},
{
name = top;
position = "{380, 550}";
}
);
layerId = "DE89D2D6-523F-41BC-8875-C89AC2ABC816";
shapes = (
{
closed = 1;
nodes = (
(366,450,ls),
(366,470,o),
(356,480,o),
(336,480,cs),
(175,480,ls),
(160,480,o),
(150,490,o),
(150,505,cs),
(150,520,o),
(160,530,o),
(175,530,cs),
(356,530,ls),
(396,530,o),
(416,510,o),
(416,470,cs),
(416,-63,ls),
(416,-156,o),
(339,-220,o),
(239,-220,cs),
(151,-220,o),
(100,-170,o),
(75,-144,cs),
(70,-139,o),
(69,-131,o),
(69,-127,cs),
(69,-114,o),
(80,-94,o),
(92,-94,cs),
(99,-94,o),
(107,-101,o),
(117,-111,cs),
(154,-146,o),
(188,-170,o),
(237,-170,cs),
(306,-170,o),
(366,-123,o),
(366,-67,cs)
);
}
);
width = 600;
}
);
unicode = 567;
},
{
color = (255, 204, 153, 255);
glyphname = k;
layers = (
{
anchors = (
{
name = bottom;
position = "{300, 0}";
},
{
name = top;
position = "{300, 730}";
}
);
layerId = "DA9EFFB3-F552-472D-9366-30BF08E10A4D";
shapes = (
{
closed = 1;
nodes = (
(225,65,ls),
(225,15,o),
(200,-10,o),
(150,-10,cs),
(100,-10,o),
(75,15,o),
(75,65,cs),
(75,665,ls),
(75,715,o),
(100,740,o),
(150,740,cs),
(200,740,o),
(225,715,o),
(225,665,cs)
);
},
{
closed = 1;
nodes = (
(202,136,l),
(202,340,l),
(373,527,ls),
(395,551,o),
(420,560,o),
(445,560,cs),
(499,560,o),
(539,507,o),
(495,459,cs)
);
},
{
closed = 1;
nodes = (
(364,348,l),
(533,86,ls),
(564,38,o),
(523,-10,o),
(478,-10,cs),
(440,-10,o),
(410,1,o),
(390,33,cs),
(258,240,l)
);
}
);
width = 600;
},
{
anchors = (
{
name = bottom;
position = "{300, 0}";
},
{
name = top;
position = "{300, 730}";
}
);
layerId = "2F9F64D1-8101-471E-9D78-CA49E27A5E76";
shapes = (
{
closed = 1;
nodes = (
(190,35,ls),
(190,5,o),
(175,-10,o),
(145,-10,cs),
(115,-10,o),
(100,5,o),
(100,35,cs),
(100,695,ls),
(100,725,o),
(115,740,o),
(145,740,cs),
(175,740,o),
(190,725,o),
(190,695,cs)
);
},
{
closed = 1;
nodes = (
(164,163,l),
(164,287,l),
(415,539,ls),
(430,554,o),
(445,560,o),
(462,560,cs),
(500,560,o),
(517,524,o),
(491,497,cs)
);
},
{
closed = 1;
nodes = (
(332,360,l),
(518,46,ls),
(536,16,o),
(515,-10,o),
(491,-10,cs),
(469,-10,o),
(446,-10,o),
(430,18,cs),
(266,297,l)
);
}
);
width = 600;
},
{
anchors = (
{
name = bottom;
position = "{300, 0}";
},
{
name = top;
position = "{300, 730}";
}
);
layerId = "DE89D2D6-523F-41BC-8875-C89AC2ABC816";
shapes = (
{
closed = 1;
nodes = (
(170,15,ls),
(170,-2,o),
(162,-10,o),
(145,-10,cs),
(128,-10,o),
(120,-2,o),
(120,15,cs),
(120,715,ls),
(120,732,o),
(128,740,o),
(145,740,cs),
(162,740,o),
(170,732,o),
(170,715,cs)
);
},
{
closed = 1;
nodes = (
(160,179,l),
(160,260,l),
(438,546,ls),
(447,555,o),
(457,560,o),
(467,560,cs),
(488,560,o),
(503,536,o),
(487,519,cs)
);
},
{
closed = 1;
nodes = (
(314,355,l),
(510,23,ls),
(519,8,o),
(507,-10,o),
(489,-10,cs),
(478,-10,o),
(468,-4,o),
(462,7,cs),
(279,321,l)
);
}
);
width = 600;
}
);
unicode = 107;
},
{
color = (255, 204, 153, 255);
glyphname = l;
layers = (
{
anchors = (
{
name = bottom;
position = "{320, 0}";
},
{
name = center;
position = "{300, 365}";
},
{
name = top;
position = "{240, 730}";
}
);
layerId = "DA9EFFB3-F552-472D-9366-30BF08E10A4D";
shapes = (
{
closed = 1;
nodes = (
(350,270,ls),
(350,168,o),
(373,125,o),
(415,125,cs),
(433,125,o),
(453,128,o),
(471,136,cs),
(514,154,o),
(541,141,o),
(560,106,cs),
(582,66,o),
(572,35,o),
(537,18,cs),
(491,-4,o),
(442,-10,o),
(390,-10,cs),
(265,-10,o),
(200,69,o),
(200,254,cs),
(200,536,ls),
(200,576,o),
(180,596,o),
(140,596,cs),
(110,596,ls),
(65,596,o),
(43,618,o),
(43,663,cs),
(43,708,o),
(65,730,o),
(110,730,cs),
(230,730,ls),
(310,730,o),
(350,690,o),
(350,610,cs)
);
}
);
width = 600;
},
{
anchors = (
{
name = bottom;
position = "{320, 0}";
},
{
name = center;
position = "{300, 365}";
},
{
name = top;
position = "{240, 730}";
}
);
layerId = "2F9F64D1-8101-471E-9D78-CA49E27A5E76";
shapes = (
{
closed = 1;
nodes = (
(309,224,ls),
(309,128,o),
(339,80,o),
(394,80,cs),
(421,80,o),
(445,82,o),
(475,97,cs),
(502,111,o),
(523,103,o),
(537,78,cs),
(553,51,o),
(546,28,o),
(521,15,cs),
(481,-6,o),
(434,-10,o),
(379,-10,cs),
(284,-10,o),
(219,57,o),
(219,207,cs),
(220,608,ls),
(220,635,o),
(207,648,o),
(180,648,cs),
(106,648,ls),
(79,648,o),
(65,662,o),
(65,689,cs),
(65,716,o),
(79,730,o),
(106,730,cs),
(230,730,ls),
(284,730,o),
(310,704,o),
(310,650,cs)
);
}
);
width = 600;
},
{
anchors = (
{
name = bottom;
position = "{320, 0}";
},
{
name = center;
position = "{300, 365}";
},
{
name = top;
position = "{240, 730}";
}
);
layerId = "DE89D2D6-523F-41BC-8875-C89AC2ABC816";
shapes = (
{
closed = 1;
nodes = (
(280,200,ls),
(280,86,o),
(313,40,o),
(375,40,cs),
(418,40,o),
(449,44,o),
(482,60,cs),
(498,68,o),
(509,65,o),
(516,50,cs),
(524,34,o),
(520,21,o),
(505,14,cs),
(464,-5,o),
(429,-10,o),
(370,-10,cs),
(290,-10,o),
(230,41,o),
(230,182,cs),
(230,653,ls),
(230,673,o),
(220,683,o),
(200,683,cs),
(103,683,ls),
(87,683,o),
(80,691,o),
(80,707,cs),
(80,723,o),
(88,730,o),
(104,730,cs),
(220,730,ls),
(260,730,o),
(280,710,o),
(280,670,cs)
);
}
);
width = 600;
}
);
unicode = 108;
},
{
color = (255, 204, 153, 255);
glyphname = m;
layers = (
{
anchors = (
{
name = bottom;
position = "{300, 0}";
},
{
name = top;
position = "{300, 550}";
}
);
layerId = "DA9EFFB3-F552-472D-9366-30BF08E10A4D";
shapes = (
{
closed = 1;
nodes = (
(58,-10,o),
(33,15,o),
(33,64,cs),
(33,499,ls),
(33,541,o),
(63,560,o),
(100,560,cs),
(141,560,o),
(168,537,o),
(168,499,cs),
(168,480,l),
(178,529,o),
(209,560,o),
(265,560,cs),
(323,560,o),
(350,521,o),
(358,480,c),
(366,521,o),
(396,560,o),
(458,560,cs),
(525,560,o),
(564,515,o),
(564,440,cs),
(564,64,ls),
(564,15,o),
(540,-10,o),
(498,-10,cs),
(455,-10,o),
(429,16,o),
(429,65,cs),
(429,393,ls),
(429,417,o),
(419,436,o),
(398,436,cs),
(377,436,o),
(368,417,o),
(368,393,cs),
(368,59,ls),
(368,13,o),
(339,-10,o),
(300,-10,cs),
(261,-10,o),
(233,13,o),
(233,59,cs),
(233,393,ls),
(233,417,o),
(222,436,o),
(200,436,cs),
(178,436,o),
(168,417,o),
(168,393,cs),
(168,65,ls),
(168,16,o),
(144,-10,o),
(101,-10,cs)
);
}
);
width = 600;
},
{
anchors = (
{
name = bottom;
position = "{300, 0}";
},
{
name = top;
position = "{300, 550}";
}
);
layerId = "2F9F64D1-8101-471E-9D78-CA49E27A5E76";
shapes = (
{
closed = 1;
nodes = (
(76,-10,o),
(55,8,o),
(55,37,cs),
(55,520,ls),
(55,545,o),
(75,560,o),
(100,560,cs),
(126,560,o),
(145,545,o),
(145,520,cs),
(145,485,l),
(159,531,o),
(181,560,o),
(235,560,cs),
(292,560,o),
(326,525,o),
(332,485,c),
(342,527,o),
(375,560,o),
(435,560,cs),
(517,560,o),
(545,497,o),
(545,418,cs),
(545,37,ls),
(545,8,o),
(525,-10,o),
(498,-10,cs),
(471,-10,o),
(451,8,o),
(451,37,cs),
(451,409,ls),
(451,445,o),
(438,481,o),
(396,481,cs),
(355,481,o),
(342,446,o),
(342,410,cs),
(342,32,ls),
(342,6,o),
(324,-10,o),
(300,-10,cs),
(276,-10,o),
(258,6,o),
(258,32,cs),
(258,409,ls),
(258,444,o),
(246,481,o),
(204,481,cs),
(162,481,o),
(149,447,o),
(149,410,cs),
(149,37,ls),
(149,8,o),
(130,-10,o),
(103,-10,cs)
);
}
);
width = 600;
},
{
anchors = (
{
name = bottom;
position = "{300, 0}";
},
{
name = top;
position = "{300, 550}";
}
);
layerId = "DE89D2D6-523F-41BC-8875-C89AC2ABC816";
shapes = (
{
closed = 1;
nodes = (
(84,-10,o),
(75,-1,o),
(75,15,cs),
(75,538,ls),
(75,553,o),
(86,560,o),
(100,560,cs),
(116,560,o),
(125,553,o),
(125,538,cs),
(125,490,l),
(141,531,o),
(173,560,o),
(218,560,cs),
(271,560,o),
(303,534,o),
(318,490,c),
(339,534,o),
(360,560,o),
(415,560,cs),
(491,560,o),
(525,499,o),
(525,431,cs),
(525,14,ls),
(525,-2,o),
(517,-10,o),
(501,-10,cs),
(485,-10,o),
(476,-2,o),
(476,14,cs),
(476,420,ls),
(476,468,o),
(455,513,o),
(401,513,cs),
(347,513,o),
(324,468,o),
(324,420,cs),
(324,14,ls),
(324,-2,o),
(316,-10,o),
(300,-10,cs),
(284,-10,o),
(275,-2,o),
(275,14,cs),
(275,420,ls),
(275,468,o),
(254,513,o),
(200,513,cs),
(146,513,o),
(124,468,o),
(124,420,cs),
(124,14,ls),
(124,-2,o),
(116,-10,o),
(100,-10,cs)
);
}
);
width = 600;
}
);
unicode = 109;
},
{
color = (255, 204, 153, 255);
glyphname = n;
layers = (
{
anchors = (
{
name = top;
position = "{305, 550}";
},
{
name = bottom;
position = "{300, 0}";
}
);
layerId = "DA9EFFB3-F552-472D-9366-30BF08E10A4D";
shapes = (
{
closed = 1;
nodes = (
(212,65,ls),
(212,15,o),
(187,-10,o),
(137,-10,cs),
(87,-10,o),
(62,15,o),
(62,65,cs),
(62,487,ls),
(62,536,o),
(86,560,o),
(131,560,cs),
(176,560,o),
(207,536,o),
(207,487,cs),
(207,450,l),
(228,520,o),
(275,560,o),
(339,560,cs),
(467,560,o),
(538,469,o),
(538,355,cs),
(538,65,ls),
(538,15,o),
(513,-10,o),
(463,-10,cs),
(413,-10,o),
(388,15,o),
(388,65,cs),
(388,325,ls),
(388,371,o),
(368,420,o),
(313,420,cs),
(251,420,o),
(212,373,o),
(212,315,cs)
);
}
);
width = 600;
},
{
anchors = (
{
name = top;
position = "{305, 550}";
},
{
name = bottom;
position = "{300, 0}";
}
);
layerId = "2F9F64D1-8101-471E-9D78-CA49E27A5E76";
shapes = (
{
closed = 1;
nodes = (
(185,35,ls),
(185,5,o),
(170,-10,o),
(140,-10,cs),
(110,-10,o),
(95,5,o),
(95,35,cs),
(95,515,ls),
(95,545,o),
(110,560,o),
(140,560,cs),
(170,560,o),
(185,545,o),
(185,515,cs),
(185,456,l),
(204,519,o),
(249,560,o),
(322,560,cs),
(428,560,o),
(505,484,o),
(505,370,cs),
(505,35,ls),
(505,5,o),
(490,-10,o),
(460,-10,cs),
(430,-10,o),
(415,5,o),
(415,35,cs),
(415,344,ls),
(415,413,o),
(378,475,o),
(307,475,cs),
(235,475,o),
(185,380,o),
(185,316,cs)
);
}
);
width = 600;
},
{
anchors = (
{
name = top;
position = "{305, 550}";
},
{
name = bottom;
position = "{300, 0}";
}
);
layerId = "DE89D2D6-523F-41BC-8875-C89AC2ABC816";
shapes = (
{
closed = 1;
nodes = (
(165,15,ls),
(165,-2,o),
(157,-10,o),
(140,-10,cs),
(123,-10,o),
(115,-2,o),
(115,15,cs),
(115,535,ls),
(115,552,o),
(123,560,o),
(140,560,cs),
(157,560,o),
(165,552,o),
(165,535,cs),
(165,449,l),
(192,521,o),
(242,560,o),
(315,560,cs),
(423,560,o),
(485,476,o),
(485,367,cs),
(485,15,ls),
(485,-2,o),
(477,-10,o),
(460,-10,cs),
(443,-10,o),
(435,-2,o),
(435,15,cs),
(435,355,ls),
(435,438,o),
(391,512,o),
(308,512,cs),
(234,512,o),
(165,425,o),
(165,355,cs)
);
}
);
width = 600;
}
);
unicode = 110;
},
{
color = (255, 204, 153, 255);
glyphname = o;
layers = (
{
anchors = (
{
name = bottom;
position = "{300, 0}";
},
{
name = center;
position = "{300, 275}";
},
{
name = horn;
position = "{320, 550}";
},
{
name = ogonek;
position = "{355, 0}";
},
{
name = top;
position = "{300, 550}";
},
{
name = topright;
position = "{580, 550}";
}
);
layerId = "DA9EFFB3-F552-472D-9366-30BF08E10A4D";
shapes = (
{
closed = 1;
nodes = (
(135,-10,o),
(55,123,o),
(55,275,cs),
(55,427,o),
(135,560,o),
(300,560,cs),
(465,560,o),
(545,429,o),
(545,275,cs),
(545,123,o),
(465,-10,o),
(300,-10,cs)
);
},
{
closed = 1;
nodes = (
(365,115,o),
(395,190,o),
(395,275,cs),
(395,362,o),
(365,435,o),
(300,435,cs),
(235,435,o),
(205,360,o),
(205,275,cs),
(205,190,o),
(235,115,o),
(300,115,cs)
);
}
);
width = 600;
},
{
anchors = (
{
name = bottom;
position = "{300, 0}";
},
{
name = center;
position = "{300, 275}";
},
{
name = horn;
position = "{320, 550}";
},
{
name = ogonek;
position = "{355, 0}";
},
{
name = top;
position = "{300, 550}";
},
{
name = topright;
position = "{580, 550}";
}
);
layerId = "2F9F64D1-8101-471E-9D78-CA49E27A5E76";
shapes = (
{
closed = 1;
nodes = (
(146,-10,o),
(75,110,o),
(75,276,cs),
(75,440,o),
(144,560,o),
(300,560,cs),
(457,560,o),
(525,440,o),
(525,276,cs),
(525,110,o),
(455,-10,o),
(300,-10,cs)
);
},
{
closed = 1;
nodes = (
(394,80,o),
(435,160,o),
(435,276,cs),
(435,390,o),
(395,470,o),
(300,470,cs),
(205,470,o),
(165,390,o),
(165,275,cs),
(165,160,o),
(206,80,o),
(300,80,cs)
);
}
);
width = 600;
},
{
anchors = (
{
name = bottom;
position = "{300, 0}";
},
{
name = center;
position = "{300, 275}";
},
{
name = horn;
position = "{320, 550}";
},
{
name = ogonek;
position = "{355, 0}";
},
{
name = top;
position = "{300, 550}";
},
{
name = topright;
position = "{580, 550}";
}
);
layerId = "DE89D2D6-523F-41BC-8875-C89AC2ABC816";
shapes = (
{
closed = 1;
nodes = (
(166,-10,o),
(90,100,o),
(90,275,cs),
(90,450,o),
(166,560,o),
(302,560,cs),
(438,560,o),
(510,450,o),
(510,278,cs),
(510,100,o),
(433,-10,o),
(300,-10,cs)
);
},
{
closed = 1;
nodes = (
(401,40,o),
(460,130,o),
(460,278,cs),
(460,420,o),
(406,510,o),
(302,510,cs),
(199,510,o),
(140,420,o),
(140,275,cs),
(140,130,o),
(198,40,o),
(300,40,cs)
);
}
);
width = 600;
}
);
unicode = 111;
},
{
glyphname = oe;
layers = (
{
layerId = "DA9EFFB3-F552-472D-9366-30BF08E10A4D";
shapes = (
{
closed = 1;
nodes = (
(565,350,ls),
(565,283,o),
(532,250,o),
(465,250,cs),
(357,250,l),
(357,140,l),
(357,115,o),
(382,87,o),
(404,87,qs),
(426,87,o),
(438,101,q),
(439,102,o),
(440,103,q),
(460,130,o),
(473,140,o),
(488,140,cs),
(544,140,o),
(570,108,o),
(549,65,cs),
(540,47,o),
(525,32,qs),
(485,-10,o),
(420,-10,qs),
(382,-10,o),
(332,14,o),
(307,49,o),
(300,65,q),
(293,49,o),
(266,14,o),
(217,-10,o),
(180,-10,qs),
(115,-10,o),
(42,73,o),
(35,140,qs),
(25,229,o),
(25,321,o),
(35,410,cs),
(43,478,o),
(115,560,o),
(180,560,qs),
(217,560,o),
(266,536,o),
(293,501,o),
(300,485,q),
(307,501,o),
(332,536,o),
(382,560,o),
(420,560,qs),
(485,560,o),
(565,478,o),
(565,410,qs)
);
},
{
closed = 1;
nodes = (
(219,87,o),
(240,115,o),
(243,140,qs),
(253,229,o),
(253,321,o),
(243,410,cs),
(240,436,o),
(219,463,o),
(197,463,qs),
(175,463,o),
(153,435,o),
(150,410,qs),
(140,321,o),
(140,229,o),
(150,140,cs),
(153,115,o),
(175,87,o),
(197,87,qs)
);
},
{
closed = 1;
nodes = (
(357,330,l),
(400,330,ls),
(434,330,o),
(450,346,o),
(450,380,cs),
(450,410,ls),
(450,436,o),
(426,463,o),
(404,463,qs),
(382,463,o),
(357,435,o),
(357,410,q)
);
}
);
width = 600;
},
{
layerId = "2F9F64D1-8101-471E-9D78-CA49E27A5E76";
shapes = (
{
closed = 1;
nodes = (
(565,330,ls),
(565,276,o),
(539,250,o),
(485,250,cs),
(343,250,l),
(343,150,l),
(343,112,o),
(379,67,o),
(410,67,qs),
(437,67,o),
(455,83,qs),
(463,89,o),
(468,98,qs),
(480,118,o),
(489,125,o),
(505,125,cs),
(545,125,o),
(562,104,o),
(546,71,cs),
(534,46,o),
(514,27,qs),
(476,-10,o),
(420,-10,qs),
(380,-10,o),
(329,16,o),
(304,53,o),
(300,70,q),
(297,53,o),
(271,16,o),
(220,-10,o),
(180,-10,qs),
(113,-10,o),
(44,78,o),
(35,150,qs),
(25,233,o),
(25,318,o),
(35,400,cs),
(44,473,o),
(113,560,o),
(180,560,qs),
(220,560,o),
(271,534,o),
(297,497,o),
(300,480,q),
(304,497,o),
(329,534,o),
(380,560,o),
(420,560,qs),
(487,560,o),
(565,474,o),
(565,400,qs)
);
},
{
closed = 1;
nodes = (
(221,67,o),
(247,112,o),
(252,150,qs),
(262,233,o),
(262,318,o),
(252,400,cs),
(247,438,o),
(221,483,o),
(190,483,qs),
(158,483,o),
(125,438,o),
(120,400,qs),
(110,318,o),
(110,233,o),
(120,150,cs),
(125,112,o),
(158,67,o),
(190,67,qs)
);
},
{
closed = 1;
nodes = (
(343,323,l),
(440,323,ls),
(467,323,o),
(480,336,o),
(480,363,cs),
(480,400,ls),
(480,438,o),
(442,483,o),
(410,483,qs),
(379,483,o),
(343,438,o),
(343,400,q)
);
}
);
width = 600;
},
{
layerId = "DE89D2D6-523F-41BC-8875-C89AC2ABC816";
shapes = (
{
closed = 1;
nodes = (
(565,320,ls),
(565,280,o),
(545,260,o),
(505,260,cs),
(327,260,l),
(327,140,ls),
(327,93,o),
(380,34,o),
(423,34,qs),
(465,35,o),
(491,60,qs),
(509,78,o),
(516,101,qs),
(522,118,o),
(530,125,o),
(546,125,cs),
(563,125,o),
(570,116,o),
(567,100,cs),
(558,56,o),
(527,27,qs),
(488,-10,o),
(426,-10,qs),
(388,-10,o),
(336,17,o),
(308,57,o),
(303,75,q),
(298,57,o),
(268,17,o),
(215,-10,o),
(174,-10,qs),
(110,-10,o),
(43,71,o),
(35,139,qs),
(25,228,o),
(25,319,o),
(35,408,cs),
(43,477,o),
(114,560,o),
(180,560,qs),
(219,560,o),
(270,532,o),
(299,493,o),
(303,474,q),
(309,493,o),
(338,532,o),
(388,560,o),
(423,560,qs),
(488,560,o),
(565,478,o),
(565,410,qs)
);
},
{
closed = 1;
nodes = (
(226,34,o),
(268,93,o),
(273,140,qs),
(283,229,o),
(283,321,o),
(273,410,cs),
(268,457,o),
(226,516,o),
(183,516,qs),
(140,516,o),
(91,457,o),
(86,408,qs),
(76,319,o),
(76,228,o),
(86,139,cs),
(91,92,o),
(140,34,o),
(183,34,qs)
);
},
{
closed = 1;
nodes = (
(327,310,l),
(485,310,ls),
(505,310,o),
(515,320,o),
(515,340,cs),
(515,410,ls),
(515,457,o),
(463,516,o),
(420,516,qs),
(378,516,o),
(327,457,o),
(327,410,qs)
);
}
);
width = 600;
}
);
unicode = 339;
},
{
color = (255, 204, 153, 255);
glyphname = p;
layers = (
{
anchors = (
{
name = bottom;
position = "{300, 0}";
},
{
name = top;
position = "{300, 550}";
}
);
layerId = "DA9EFFB3-F552-472D-9366-30BF08E10A4D";
shapes = (
{
closed = 1;
nodes = (
(183,560,o),
(210,536,o),
(210,487,cs),
(210,441,l),
(231,506,o),
(268,560,o),
(365,560,cs),
(515,560,o),
(555,442,o),
(555,276,cs),
(555,144,o),
(512,-10,o),
(337,-10,cs),
(273,-10,o),
(220,27,o),
(210,91,c),
(210,-115,ls),
(210,-165,o),
(185,-190,o),
(135,-190,cs),
(85,-190,o),
(60,-165,o),
(60,-115,cs),
(60,487,ls),
(60,536,o),
(83,560,o),
(133,560,cs)
);
},
{
closed = 1;
nodes = (
(257,425,o),
(210,375,o),
(210,295,cs),
(210,255,ls),
(210,185,o),
(249,125,o),
(311,125,cs),
(392,125,o),
(405,209,o),
(405,277,cs),
(405,343,o),
(390,425,o),
(317,425,cs)
);
}
);
width = 600;
},
{
anchors = (
{
name = bottom;
position = "{300, 0}";
},
{
name = top;
position = "{300, 550}";
}
);
layerId = "2F9F64D1-8101-471E-9D78-CA49E27A5E76";
shapes = (
{
closed = 1;
nodes = (
(165,560,o),
(180,545,o),
(180,514,cs),
(180,450,l),
(205,516,o),
(250,560,o),
(327,560,cs),
(490,560,o),
(520,418,o),
(520,294,cs),
(520,150,o),
(486,-10,o),
(317,-10,cs),
(244,-10,o),
(192,35,o),
(180,94,c),
(180,-145,ls),
(180,-175,o),
(165,-190,o),
(135,-190,cs),
(105,-190,o),
(90,-175,o),
(90,-145,cs),
(90,514,ls),
(90,545,o),
(105,560,o),
(135,560,cs)
);
},
{
closed = 1;
nodes = (
(245,470,o),
(180,407,o),
(180,344,cs),
(180,234,ls),
(180,170,o),
(230,80,o),
(302,80,cs),
(416,80,o),
(430,186,o),
(430,288,cs),
(430,393,o),
(407,470,o),
(318,470,cs)
);
}
);
width = 600;
},
{
anchors = (
{
name = bottom;
position = "{300, 0}";
},
{
name = top;
position = "{300, 550}";
}
);
layerId = "DE89D2D6-523F-41BC-8875-C89AC2ABC816";
shapes = (
{
closed = 1;
nodes = (
(152,560,o),
(160,552,o),
(160,535,cs),
(160,462,l),
(175,501,o),
(215,560,o),
(313,560,cs),
(461,560,o),
(505,425,o),
(505,295,cs),
(505,146,o),
(461,-10,o),
(310,-10,cs),
(237,-10,o),
(177,29,o),
(160,101,c),
(160,-165,ls),
(160,-182,o),
(152,-190,o),
(135,-190,cs),
(118,-190,o),
(110,-182,o),
(110,-165,cs),
(110,535,ls),
(110,552,o),
(118,560,o),
(135,560,cs)
);
},
{
closed = 1;
nodes = (
(224,512,o),
(160,431,o),
(160,356,cs),
(160,195,ls),
(160,125,o),
(229,38,o),
(303,38,cs),
(428,38,o),
(455,167,o),
(455,295,cs),
(455,403,o),
(421,512,o),
(312,512,cs)
);
}
);
width = 600;
}
);
unicode = 112;
},
{
color = (255, 204, 153, 255);
glyphname = q;
layers = (
{
anchors = (
{
name = bottom;
position = "{300, 0}";
},
{
name = top;
position = "{300, 550}";
}
);
layerId = "DA9EFFB3-F552-472D-9366-30BF08E10A4D";
shapes = (
{
closed = 1;
nodes = (
(517,560,o),
(540,536,o),
(540,487,cs),
(540,-115,ls),
(540,-165,o),
(515,-190,o),
(465,-190,cs),
(415,-190,o),
(390,-165,o),
(390,-115,cs),
(390,91,l),
(380,27,o),
(327,-10,o),
(263,-10,cs),
(88,-10,o),
(45,144,o),
(45,276,cs),
(45,442,o),
(85,560,o),
(235,560,cs),
(332,560,o),
(369,506,o),
(390,441,c),
(390,487,ls),
(390,536,o),
(417,560,o),
(467,560,cs)
);
},
{
closed = 1;
nodes = (
(210,425,o),
(195,343,o),
(195,277,cs),
(195,209,o),
(208,125,o),
(289,125,cs),
(351,125,o),
(390,185,o),
(390,255,cs),
(390,295,ls),
(390,375,o),
(343,425,o),
(283,425,cs)
);
}
);
width = 600;
},
{
anchors = (
{
name = bottom;
position = "{300, 0}";
},
{
name = top;
position = "{300, 550}";
}
);
layerId = "2F9F64D1-8101-471E-9D78-CA49E27A5E76";
shapes = (
{
closed = 1;
nodes = (
(495,560,o),
(510,545,o),
(510,514,cs),
(510,-145,ls),
(510,-175,o),
(495,-190,o),
(465,-190,cs),
(435,-190,o),
(420,-175,o),
(420,-145,cs),
(420,94,l),
(408,35,o),
(356,-10,o),
(283,-10,cs),
(114,-10,o),
(80,150,o),
(80,294,cs),
(80,418,o),
(110,560,o),
(273,560,cs),
(350,560,o),
(395,516,o),
(420,450,c),
(420,514,ls),
(420,545,o),
(435,560,o),
(465,560,cs)
);
},
{
closed = 1;
nodes = (
(193,470,o),
(170,393,o),
(170,288,cs),
(170,186,o),
(184,80,o),
(298,80,cs),
(370,80,o),
(420,170,o),
(420,234,cs),
(420,344,ls),
(420,407,o),
(355,470,o),
(282,470,cs)
);
}
);
width = 600;
},
{
anchors = (
{
name = bottom;
position = "{300, 0}";
},
{
name = top;
position = "{300, 550}";
}
);
layerId = "DE89D2D6-523F-41BC-8875-C89AC2ABC816";
shapes = (
{
closed = 1;
nodes = (
(482,560,o),
(490,552,o),
(490,535,cs),
(490,-165,ls),
(490,-182,o),
(482,-190,o),
(465,-190,cs),
(448,-190,o),
(440,-182,o),
(440,-165,cs),
(440,101,l),
(423,29,o),
(363,-10,o),
(290,-10,cs),
(139,-10,o),
(95,146,o),
(95,295,cs),
(95,425,o),
(139,560,o),
(287,560,cs),
(385,560,o),
(425,501,o),
(440,462,c),
(440,535,ls),
(440,552,o),
(448,560,o),
(465,560,cs)
);
},
{
closed = 1;
nodes = (
(179,512,o),
(145,403,o),
(145,295,cs),
(145,167,o),
(172,38,o),
(297,38,cs),
(371,38,o),
(440,125,o),
(440,195,cs),
(440,356,ls),
(440,431,o),
(376,512,o),
(288,512,cs)
);
}
);
width = 600;
}
);
unicode = 113;
},
{
color = (255, 204, 153, 255);
glyphname = r;
layers = (
{
anchors = (
{
name = bottom;
position = "{145, 0}";
},
{
name = top;
position = "{320, 550}";
}
);
layerId = "DA9EFFB3-F552-472D-9366-30BF08E10A4D";
shapes = (
{
closed = 1;
nodes = (
(105,-10,o),
(82,15,o),
(82,65,cs),
(82,487,ls),
(82,536,o),
(106,560,o),
(155,560,cs),
(204,560,o),
(227,536,o),
(227,487,cs),
(227,450,l),
(254,520,o),
(313,560,o),
(402,560,cs),
(516,560,o),
(562,481,o),
(562,360,cs),
(562,350,ls),
(562,300,o),
(537,275,o),
(487,275,cs),
(437,275,o),
(412,300,o),
(412,350,cs),
(412,352,ls),
(412,394,o),
(405,430,o),
(357,430,cs),
(293,430,o),
(227,387,o),
(227,328,cs),
(227,65,ls),
(227,15,o),
(205,-10,o),
(155,-10,cs)
);
}
);
width = 600;
},
{
anchors = (
{
name = bottom;
position = "{145, 0}";
},
{
name = top;
position = "{320, 550}";
}
);
layerId = "2F9F64D1-8101-471E-9D78-CA49E27A5E76";
shapes = (
{
closed = 1;
nodes = (
(125,-10,o),
(110,5,o),
(110,35,cs),
(110,515,ls),
(110,545,o),
(125,560,o),
(155,560,cs),
(185,560,o),
(200,545,o),
(200,515,cs),
(200,456,l),
(222,519,o),
(306,560,o),
(384,560,cs),
(505,560,o),
(530,468,o),
(530,362,cs),
(530,350,ls),
(530,320,o),
(515,305,o),
(485,305,cs),
(455,305,o),
(440,320,o),
(440,350,cs),
(440,362,ls),
(440,423,o),
(425,470,o),
(353,470,cs),
(284,470,o),
(200,432,o),
(200,350,cs),
(200,35,ls),
(200,5,o),
(185,-10,o),
(155,-10,cs)
);
}
);
width = 600;
},
{
anchors = (
{
name = bottom;
position = "{135, 0}";
},
{
name = top;
position = "{320, 550}";
}
);
layerId = "DE89D2D6-523F-41BC-8875-C89AC2ABC816";
shapes = (
{
closed = 1;
nodes = (
(138,-10,o),
(130,-2,o),
(130,15,cs),
(130,535,ls),
(130,552,o),
(138,560,o),
(155,560,cs),
(172,560,o),
(180,552,o),
(180,535,cs),
(180,449,l),
(206,521,o),
(295,560,o),
(368,560,cs),
(479,560,o),
(508,469,o),
(508,365,cs),
(508,355,ls),
(508,338,o),
(500,330,o),
(483,330,cs),
(466,330,o),
(458,338,o),
(458,355,cs),
(458,365,ls),
(458,443,o),
(435,510,o),
(354,510,cs),
(275,510,o),
(180,450,o),
(180,360,cs),
(180,15,ls),
(180,-2,o),
(172,-10,o),
(155,-10,cs)
);
}
);
width = 600;
}
);
unicode = 114;
},
{
color = (255, 204, 153, 255);
glyphname = s;
layers = (
{
anchors = (
{
name = top;
position = "{300, 550}";
},
{
name = bottom;
position = "{300, 0}";
}
);
layerId = "DA9EFFB3-F552-472D-9366-30BF08E10A4D";
shapes = (
{
closed = 1;
nodes = (
(209,-10,o),
(148,7,o),
(97,61,cs),
(79,80,o),
(69,98,o),
(69,125,cs),
(69,165,o),
(91,191,o),
(125,191,cs),
(137,191,o),
(154,188,o),
(167,177,cs),
(206,143,o),
(252,120,o),
(300,120,cs),
(349,120,o),
(391,125,o),
(391,160,cs),
(391,193,o),
(349,207,o),
(300,217,cs),
(195,239,o),
(85,263,o),
(85,398,cs),
(85,510,o),
(164,560,o),
(300,560,cs),
(381,560,o),
(458,536,o),
(496,493,cs),
(506,482,o),
(516,467,o),
(516,439,cs),
(516,397,o),
(493,374,o),
(458,374,cs),
(440,374,o),
(421,380,o),
(408,393,cs),
(391,410,o),
(353,430,o),
(300,430,cs),
(257,430,o),
(235,418,o),
(235,391,cs),
(235,361,o),
(267,350,o),
(300,343,cs),
(401,322,o),
(541,290,o),
(541,157,cs),
(541,21,o),
(423,-10,o),
(300,-10,cs)
);
}
);
width = 600;
},
{
anchors = (
{
name = top;
position = "{300, 550}";
},
{
name = bottom;
position = "{300, 0}";
}
);
layerId = "2F9F64D1-8101-471E-9D78-CA49E27A5E76";
shapes = (
{
closed = 1;
nodes = (
(220,-10,o),
(154,10,o),
(101,71,cs),
(88,86,o),
(81,106,o),
(81,124,cs),
(81,153,o),
(100,162,o),
(119,162,cs),
(133,162,o),
(144,157,o),
(159,144,cs),
(201,107,o),
(236,80,o),
(300,80,cs),
(346,80,o),
(430,88,o),
(430,150,cs),
(430,209,o),
(345,231,o),
(300,240,cs),
(210,258,o),
(102,287,o),
(102,406,cs),
(102,517,o),
(193,560,o),
(300,560,cs),
(386,560,o),
(463,530,o),
(497,475,cs),
(506,460,o),
(509,448,o),
(509,439,cs),
(509,418,o),
(495,399,o),
(469,399,cs),
(457,399,o),
(439,403,o),
(425,417,cs),
(393,449,o),
(361,470,o),
(300,470,cs),
(241,470,o),
(192,451,o),
(192,407,cs),
(192,353,o),
(256,340,o),
(300,331,cs),
(401,310,o),
(520,276,o),
(520,149,cs),
(520,31,o),
(417,-10,o),
(301,-10,cs)
);
}
);
width = 600;
},
{
anchors = (
{
name = top;
position = "{300, 550}";
},
{
name = bottom;
position = "{300, 0}";
}
);
layerId = "DE89D2D6-523F-41BC-8875-C89AC2ABC816";
shapes = (
{
closed = 1;
nodes = (
(236,-10,o),
(162,0,o),
(120,55,cs),
(108,70,o),
(94,95,o),
(94,112,cs),
(94,125,o),
(102,135,o),
(118,135,cs),
(129,135,o),
(140,131,o),
(147,119,cs),
(179,65,o),
(228,40,o),
(300,40,cs),
(372,40,o),
(460,55,o),
(460,138,cs),
(460,231,o),
(368,248,o),
(300,262,cs),
(211,280,o),
(110,296,o),
(110,413,cs),
(110,518,o),
(199,560,o),
(300,560,cs),
(390,560,o),
(453,528,o),
(488,472,cs),
(495,461,o),
(498,453,o),
(498,445,cs),
(498,431,o),
(488,425,o),
(475,425,cs),
(465,425,o),
(457,428,o),
(451,437,cs),
(413,494,o),
(359,510,o),
(300,510,cs),
(222,510,o),
(160,482,o),
(160,414,cs),
(160,334,o),
(240,324,o),
(300,311,cs),
(395,291,o),
(510,268,o),
(510,142,cs),
(510,29,o),
(405,-10,o),
(300,-10,cs)
);
}
);
width = 600;
}
);
unicode = 115;
},
{
glyphname = germandbls;
layers = (
{
layerId = "DA9EFFB3-F552-472D-9366-30BF08E10A4D";
shapes = (
{
closed = 1;
nodes = (
(210,65,ls),
(210,15,o),
(185,-10,o),
(135,-10,cs),
(85,-10,o),
(60,15,o),
(60,65,cs),
(60,512,ls),
(60,647,o),
(159,740,o),
(304,740,cs),
(445,740,o),
(544,659,o),
(544,541,cs),
(544,462,o),
(497,398,o),
(429,386,c),
(509,368,o),
(564,295,o),
(564,207,cs),
(564,74,o),
(471,-10,o),
(337,-10,cs),
(336,-10,ls),
(292,-10,o),
(271,11,o),
(271,55,cs),
(271,99,o),
(292,120,o),
(336,120,cs),
(339,120,ls),
(370,120,o),
(412,160,o),
(412,228,cs),
(412,286,o),
(377,325,o),
(330,325,cs),
(326,325,ls),
(289,325,o),
(271,343,o),
(271,380,cs),
(271,417,o),
(289,435,o),
(326,435,cs),
(330,435,ls),
(374,435,o),
(396,472,o),
(396,525,cs),
(396,578,o),
(357,615,o),
(303,615,cs),
(247,615,o),
(210,573,o),
(210,512,cs)
);
}
);
width = 600;
},
{
layerId = "2F9F64D1-8101-471E-9D78-CA49E27A5E76";
shapes = (
{
closed = 1;
nodes = (
(182,35,ls),
(182,5,o),
(167,-10,o),
(137,-10,cs),
(107,-10,o),
(92,5,o),
(92,35,cs),
(92,534,ls),
(92,656,o),
(178,740,o),
(303,740,cs),
(428,740,o),
(513,665,o),
(513,556,cs),
(513,477,o),
(465,408,o),
(396,391,c),
(479,376,o),
(536,300,o),
(536,204,cs),
(536,78,o),
(446,-10,o),
(315,-10,cs),
(298,-10,ls),
(271,-10,o),
(257,4,o),
(257,31,cs),
(257,58,o),
(271,72,o),
(298,72,cs),
(305,72,ls),
(387,72,o),
(444,130,o),
(444,212,cs),
(444,289,o),
(391,342,o),
(314,342,cs),
(297,342,ls),
(270,342,o),
(257,355,o),
(257,382,cs),
(257,409,o),
(270,422,o),
(297,422,cs),
(303,422,ls),
(374,422,o),
(423,470,o),
(423,541,cs),
(423,612,o),
(374,660,o),
(303,660,cs),
(231,660,o),
(182,609,o),
(182,534,cs)
);
}
);
width = 600;
},
{
layerId = "DE89D2D6-523F-41BC-8875-C89AC2ABC816";
shapes = (
{
closed = 1;
nodes = (
(160,15,ls),
(160,-2,o),
(152,-10,o),
(135,-10,cs),
(118,-10,o),
(110,-2,o),
(110,15,cs),
(110,543,ls),
(110,660,o),
(190,740,o),
(307,740,cs),
(423,740,o),
(502,663,o),
(502,550,cs),
(502,468,o),
(453,398,o),
(382,383,c),
(465,367,o),
(522,292,o),
(522,198,cs),
(522,76,o),
(434,-10,o),
(307,-10,cs),
(288,-10,ls),
(273,-10,o),
(265,-2,o),
(265,13,cs),
(265,28,o),
(273,35,o),
(288,35,cs),
(307,35,ls),
(404,35,o),
(470,104,o),
(470,202,cs),
(470,295,o),
(404,359,o),
(307,359,cs),
(288,359,ls),
(273,359,o),
(265,367,o),
(265,382,cs),
(265,397,o),
(273,404,o),
(288,404,cs),
(307,404,ls),
(393,404,o),
(452,463,o),
(452,550,cs),
(452,636,o),
(393,695,o),
(307,695,cs),
(220,695,o),
(160,633,o),
(160,543,cs)
);
}
);
width = 600;
}
);
unicode = 223;
},
{
glyphname = longs;
layers = (
{
layerId = "DA9EFFB3-F552-472D-9366-30BF08E10A4D";
shapes = (
{
closed = 1;
nodes = (
(285,65,ls),
(285,15,o),
(260,-10,o),
(210,-10,cs),
(160,-10,o),
(135,15,o),
(135,65,cs),
(135,525,ls),
(135,650,o),
(219,730,o),
(350,730,cs),
(470,730,ls),
(514,730,o),
(535,709,o),
(535,665,cs),
(535,621,o),
(514,600,o),
(470,600,cs),
(360,600,ls),
(315,600,o),
(285,570,o),
(285,525,cs)
);
}
);
width = 600;
},
{
layerId = "2F9F64D1-8101-471E-9D78-CA49E27A5E76";
shapes = (
{
closed = 1;
nodes = (
(255,35,ls),
(255,5,o),
(240,-10,o),
(210,-10,cs),
(180,-10,o),
(165,5,o),
(165,35,cs),
(165,571,ls),
(165,666,o),
(233,730,o),
(334,730,cs),
(470,730,ls),
(497,730,o),
(510,717,o),
(510,690,cs),
(510,663,o),
(497,650,o),
(470,650,cs),
(334,650,ls),
(287,650,o),
(255,618,o),
(255,570,cs)
);
}
);
width = 600;
},
{
layerId = "DE89D2D6-523F-41BC-8875-C89AC2ABC816";
shapes = (
{
closed = 1;
nodes = (
(230,15,ls),
(230,-2,o),
(222,-10,o),
(205,-10,cs),
(188,-10,o),
(180,-2,o),
(180,15,cs),
(180,595,ls),
(180,678,o),
(233,730,o),
(316,730,cs),
(472,730,ls),
(487,730,o),
(495,723,o),
(495,708,cs),
(495,693,o),
(488,685,o),
(473,685,cs),
(315,685,ls),
(265,685,o),
(230,648,o),
(230,595,cs)
);
}
);
width = 600;
}
);
unicode = 383;
},
{
color = (255, 204, 153, 255);
glyphname = t;
layers = (
{
anchors = (
{
name = bottom;
position = "{360, 0}";
},
{
name = center;
position = "{300, 275}";
},
{
name = top;
position = "{250, 705}";
},
{
name = topright;
position = "{355, 621}";
}
);
layerId = "DA9EFFB3-F552-472D-9366-30BF08E10A4D";
shapes = (
{
closed = 1;
nodes = (
(472,530,ls),
(517,530,o),
(540,508,o),
(540,463,cs),
(540,418,o),
(517,395,o),
(472,395,cs),
(93,395,ls),
(49,395,o),
(27,417,o),
(27,461,cs),
(27,507,o),
(50,530,o),
(96,530,cs)
);
},
{
closed = 1;
nodes = (
(489,154,o),
(516,141,o),
(535,106,cs),
(557,66,o),
(547,35,o),
(512,18,cs),
(466,-4,o),
(417,-10,o),
(365,-10,cs),
(240,-10,o),
(175,69,o),
(175,254,cs),
(175,630,ls),
(175,680,o),
(200,705,o),
(250,705,cs),
(300,705,o),
(325,680,o),
(325,630,cs),
(325,270,ls),
(325,168,o),
(348,125,o),
(390,125,cs),
(408,125,o),
(428,128,o),
(446,136,cs)
);
}
);
width = 600;
},
{
anchors = (
{
name = bottom;
position = "{360, 0}";
},
{
name = center;
position = "{300, 275}";
},
{
name = top;
position = "{250, 705}";
},
{
name = topright;
position = "{355, 621}";
}
);
layerId = "2F9F64D1-8101-471E-9D78-CA49E27A5E76";
shapes = (
{
closed = 1;
nodes = (
(479,530,ls),
(506,530,o),
(520,512,o),
(520,485,cs),
(520,458,o),
(506,440,o),
(479,440,cs),
(88,440,ls),
(61,440,o),
(47,458,o),
(47,485,cs),
(47,512,o),
(61,530,o),
(88,530,cs)
);
},
{
closed = 1;
nodes = (
(488,111,o),
(509,103,o),
(523,78,cs),
(539,51,o),
(532,28,o),
(507,15,cs),
(467,-6,o),
(420,-10,o),
(365,-10,cs),
(270,-10,o),
(205,57,o),
(205,207,cs),
(205,660,ls),
(205,690,o),
(220,705,o),
(250,705,cs),
(280,705,o),
(295,690,o),
(295,660,cs),
(295,224,ls),
(295,128,o),
(325,80,o),
(380,80,cs),
(407,80,o),
(431,82,o),
(461,97,cs)
);
}
);
width = 600;
},
{
anchors = (
{
name = bottom;
position = "{360, 0}";
},
{
name = center;
position = "{300, 275}";
},
{
name = top;
position = "{250, 705}";
},
{
name = topright;
position = "{355, 621}";
}
);
layerId = "DE89D2D6-523F-41BC-8875-C89AC2ABC816";
shapes = (
{
closed = 1;
nodes = (
(482,530,ls),
(497,530,o),
(505,520,o),
(505,505,cs),
(505,490,o),
(497,480,o),
(482,480,cs),
(85,480,ls),
(70,480,o),
(62,490,o),
(62,505,cs),
(62,520,o),
(70,530,o),
(85,530,cs)
);
},
{
closed = 1;
nodes = (
(493,68,o),
(504,65,o),
(511,50,cs),
(519,34,o),
(515,21,o),
(500,14,cs),
(459,-5,o),
(424,-10,o),
(365,-10,cs),
(285,-10,o),
(225,41,o),
(225,182,cs),
(225,680,ls),
(225,697,o),
(233,705,o),
(250,705,cs),
(267,705,o),
(275,697,o),
(275,680,cs),
(275,200,ls),
(275,86,o),
(308,40,o),
(370,40,cs),
(413,40,o),
(444,44,o),
(477,60,cs)
);
}
);
width = 600;
}
);
unicode = 116;
},
{
color = (255, 204, 153, 255);
glyphname = u;
layers = (
{
anchors = (
{
name = bottom;
position = "{300, 0}";
},
{
name = horn;
position = "{410, 550}";
},
{
name = ogonek;
position = "{355, 0}";
},
{
name = top;
position = "{300, 550}";
},
{
name = topright;
position = "{580, 550}";
}
);
layerId = "DA9EFFB3-F552-472D-9366-30BF08E10A4D";
shapes = (
{
closed = 1;
nodes = (
(388,485,ls),
(388,535,o),
(413,560,o),
(463,560,cs),
(513,560,o),
(538,535,o),
(538,485,cs),
(538,63,ls),
(538,14,o),
(514,-10,o),
(469,-10,cs),
(424,-10,o),
(393,14,o),
(393,63,cs),
(393,100,l),
(372,30,o),
(325,-10,o),
(261,-10,cs),
(133,-10,o),
(62,81,o),
(62,195,cs),
(62,485,ls),
(62,535,o),
(87,560,o),
(137,560,cs),
(187,560,o),
(212,535,o),
(212,485,cs),
(212,225,ls),
(212,179,o),
(232,130,o),
(287,130,cs),
(349,130,o),
(388,177,o),
(388,235,cs)
);
}
);
width = 600;
},
{
anchors = (
{
name = bottom;
position = "{300, 0}";
},
{
name = horn;
position = "{410, 550}";
},
{
name = ogonek;
position = "{355, 0}";
},
{
name = top;
position = "{300, 550}";
},
{
name = topright;
position = "{580, 550}";
}
);
layerId = "2F9F64D1-8101-471E-9D78-CA49E27A5E76";
shapes = (
{
closed = 1;
nodes = (
(415,515,ls),
(415,545,o),
(430,560,o),
(460,560,cs),
(490,560,o),
(505,545,o),
(505,515,cs),
(505,35,ls),
(505,5,o),
(490,-10,o),
(460,-10,cs),
(430,-10,o),
(415,5,o),
(415,35,cs),
(415,94,l),
(396,31,o),
(351,-10,o),
(278,-10,cs),
(172,-10,o),
(95,66,o),
(95,180,cs),
(95,515,ls),
(95,545,o),
(110,560,o),
(140,560,cs),
(170,560,o),
(185,545,o),
(185,515,cs),
(185,206,ls),
(185,137,o),
(222,75,o),
(293,75,cs),
(365,75,o),
(415,170,o),
(415,234,cs)
);
}
);
width = 600;
},
{
anchors = (
{
name = bottom;
position = "{300, 0}";
},
{
name = horn;
position = "{410, 550}";
},
{
name = ogonek;
position = "{355, 0}";
},
{
name = top;
position = "{300, 550}";
},
{
name = topright;
position = "{580, 550}";
}
);
layerId = "DE89D2D6-523F-41BC-8875-C89AC2ABC816";
shapes = (
{
closed = 1;
nodes = (
(435,535,ls),
(435,552,o),
(443,560,o),
(460,560,cs),
(477,560,o),
(485,552,o),
(485,535,cs),
(485,15,ls),
(485,-2,o),
(477,-10,o),
(460,-10,cs),
(443,-10,o),
(435,-2,o),
(435,15,cs),
(435,101,l),
(408,29,o),
(358,-10,o),
(285,-10,cs),
(177,-10,o),
(115,74,o),
(115,183,cs),
(115,535,ls),
(115,552,o),
(123,560,o),
(140,560,cs),
(157,560,o),
(165,552,o),
(165,535,cs),
(165,195,ls),
(165,112,o),
(209,38,o),
(292,38,cs),
(366,38,o),
(435,125,o),
(435,195,cs)
);
}
);
width = 600;
}
);
unicode = 117;
},
{
color = (255, 204, 153, 255);
glyphname = v;
layers = (
{
anchors = (
{
name = bottom;
position = "{300, 0}";
},
{
name = top;
position = "{300, 550}";
}
);
layerId = "DA9EFFB3-F552-472D-9366-30BF08E10A4D";
shapes = (
{
closed = 1;
nodes = (
(56,482,ls),
(38,532,o),
(82,560,o),
(120,560,cs),
(152,560,o),
(177,540,o),
(188,508,cs),
(281,233,ls),
(289,210,o),
(311,210,o),
(319,233,cs),
(412,508,ls),
(423,540,o),
(448,560,o),
(480,560,cs),
(518,560,o),
(562,532,o),
(544,482,cs),
(394,62,ls),
(377,15,o),
(350,-10,o),
(300,-10,cs),
(250,-10,o),
(223,15,o),
(206,62,cs)
);
}
);
width = 600;
},
{
anchors = (
{
name = bottom;
position = "{300, 0}";
},
{
name = top;
position = "{300, 550}";
}
);
layerId = "2F9F64D1-8101-471E-9D78-CA49E27A5E76";
shapes = (
{
closed = 1;
nodes = (
(74,508,ls),
(65,534,o),
(83,560,o),
(116,560,cs),
(138,560,o),
(156,548,o),
(164,525,cs),
(285,175,ls),
(292,155,o),
(308,155,o),
(315,175,cs),
(436,525,ls),
(444,548,o),
(462,560,o),
(484,560,cs),
(517,560,o),
(535,534,o),
(526,508,cs),
(363,38,ls),
(352,6,o),
(334,-10,o),
(300,-10,cs),
(267,-10,o),
(248,6,o),
(237,38,cs)
);
}
);
width = 600;
},
{
anchors = (
{
name = bottom;
position = "{300, 0}";
},
{
name = top;
position = "{300, 550}";
}
);
layerId = "DE89D2D6-523F-41BC-8875-C89AC2ABC816";
shapes = (
{
closed = 1;
nodes = (
(88,531,ls),
(83,547,o),
(100,560,o),
(114,560,cs),
(123,560,o),
(136,554,o),
(140,541,cs),
(290,100,ls),
(296,83,o),
(304,83,o),
(310,100,cs),
(460,541,ls),
(464,554,o),
(477,560,o),
(486,560,cs),
(500,560,o),
(517,547,o),
(512,531,cs),
(338,19,ls),
(331,0,o),
(320,-10,o),
(300,-10,cs),
(280,-10,o),
(269,0,o),
(262,19,cs)
);
}
);
width = 600;
}
);
unicode = 118;
},
{
color = (255, 204, 153, 255);
glyphname = w;
layers = (
{
anchors = (
{
name = bottom;
position = "{300, 0}";
},
{
name = top;
position = "{300, 550}";
}
);
layerId = "DA9EFFB3-F552-472D-9366-30BF08E10A4D";
shapes = (
{
closed = 1;
nodes = (
(17,480,ls),
(12,528,o),
(37,560,o),
(83,560,cs),
(125,560,o),
(151,530,o),
(154,490,cs),
(180,190,l),
(230,395,ls),
(239,432,o),
(262,450,o),
(300,450,cs),
(338,450,o),
(361,432,o),
(370,395,cs),
(420,190,l),
(446,498,ls),
(449,533,o),
(472,560,o),
(514,560,cs),
(563,560,o),
(586,528,o),
(581,480,cs),
(536,71,ls),
(530,17,o),
(490,-10,o),
(436,-10,cs),
(382,-10,o),
(356,17,o),
(343,70,cs),
(300,240,l),
(257,73,ls),
(243,20,o),
(218,-10,o),
(162,-10,cs),
(106,-10,o),
(65,17,o),
(59,73,cs)
);
}
);
width = 600;
},
{
anchors = (
{
name = bottom;
position = "{300, 0}";
},
{
name = top;
position = "{300, 550}";
}
);
layerId = "2F9F64D1-8101-471E-9D78-CA49E27A5E76";
shapes = (
{
closed = 1;
nodes = (
(37,505,ls),
(32,542,o),
(49,560,o),
(83,560,cs),
(111,560,o),
(124,543,o),
(127,518,cs),
(170,100,l),
(244,393,ls),
(252,425,o),
(268,440,o),
(300,440,cs),
(332,440,o),
(348,425,o),
(356,393,cs),
(430,100,l),
(473,518,ls),
(476,543,o),
(489,560,o),
(517,560,cs),
(551,560,o),
(568,542,o),
(563,505,cs),
(504,50,ls),
(499,10,o),
(477,-10,o),
(436,-10,cs),
(395,-10,o),
(375,10,o),
(365,50,cs),
(300,310,l),
(235,51,ls),
(225,10,o),
(205,-10,o),
(164,-10,cs),
(123,-10,o),
(100,10,o),
(95,51,cs)
);
}
);
width = 600;
},
{
anchors = (
{
name = bottom;
position = "{300, 0}";
},
{
name = top;
position = "{300, 550}";
}
);
layerId = "DE89D2D6-523F-41BC-8875-C89AC2ABC816";
shapes = (
{
closed = 1;
nodes = (
(59,530,ls),
(56,550,o),
(65,560,o),
(85,560,cs),
(100,560,o),
(106,549,o),
(108,535,cs),
(170,35,l),
(262,399,ls),
(267,420,o),
(279,430,o),
(300,430,cs),
(321,430,o),
(333,420,o),
(338,399,cs),
(430,35,l),
(492,535,ls),
(494,549,o),
(500,560,o),
(515,560,cs),
(535,560,o),
(544,550,o),
(541,530,cs),
(474,27,ls),
(471,2,o),
(457,-10,o),
(432,-10,cs),
(407,-10,o),
(393,3,o),
(387,27,cs),
(300,370,l),
(212,27,ls),
(206,3,o),
(193,-10,o),
(168,-10,cs),
(143,-10,o),
(128,2,o),
(125,27,cs)
);
}
);
width = 600;
}
);
unicode = 119;
},
{
color = (255, 204, 153, 255);
glyphname = x;
layers = (
{
anchors = (
{
name = bottom;
position = "{300, 0}";
},
{
name = top;
position = "{300, 550}";
}
);
layerId = "DA9EFFB3-F552-472D-9366-30BF08E10A4D";
shapes = (
{
closed = 1;
nodes = (
(220,36,ls),
(200,6,o),
(173,-10,o),
(139,-10,cs),
(92,-10,o),
(44,22,o),
(86,84,cs),
(366,512,ls),
(386,543,o),
(413,560,o),
(447,560,cs),
(495,560,o),
(542,528,o),
(501,466,cs)
);
},
{
closed = 1;
nodes = (
(514,84,ls),
(556,22,o),
(508,-10,o),
(459,-10,cs),
(426,-10,o),
(400,5,o),
(380,36,cs),
(97,466,ls),
(58,525,o),
(106,560,o),
(154,560,cs),
(187,560,o),
(214,543,o),
(234,512,cs)
);
}
);
width = 600;
},
{
anchors = (
{
name = bottom;
position = "{300, 0}";
},
{
name = top;
position = "{300, 550}";
}
);
layerId = "2F9F64D1-8101-471E-9D78-CA49E27A5E76";
shapes = (
{
closed = 1;
nodes = (
(175,20,ls),
(162,1,o),
(145,-10,o),
(124,-10,cs),
(94,-10,o),
(63,11,o),
(89,49,cs),
(413,530,ls),
(426,550,o),
(444,560,o),
(466,560,cs),
(496,560,o),
(527,540,o),
(500,500,cs)
);
},
{
closed = 1;
nodes = (
(511,49,ls),
(537,11,o),
(506,-10,o),
(476,-10,cs),
(455,-10,o),
(438,0,o),
(425,20,cs),
(100,500,ls),
(73,540,o),
(106,560,o),
(135,560,cs),
(157,560,o),
(174,549,o),
(187,530,cs)
);
}
);
width = 600;
},
{
anchors = (
{
name = bottom;
position = "{300, 0}";
},
{
name = top;
position = "{300, 550}";
}
);
layerId = "DE89D2D6-523F-41BC-8875-C89AC2ABC816";
shapes = (
{
closed = 1;
nodes = (
(144,5,ls),
(137,-5,o),
(127,-10,o),
(114,-10,cs),
(98,-10,o),
(81,0,o),
(96,22,cs),
(443,543,ls),
(450,554,o),
(461,560,o),
(474,560,cs),
(491,560,o),
(507,550,o),
(492,528,cs)
);
},
{
closed = 1;
nodes = (
(504,22,ls),
(519,0,o),
(502,-10,o),
(484,-10,cs),
(473,-10,o),
(463,-6,o),
(456,5,cs),
(108,528,ls),
(95,548,o),
(110,560,o),
(126,560,cs),
(139,560,o),
(150,554,o),
(157,543,cs)
);
}
);
width = 600;
}
);
unicode = 120;
},
{
color = (255, 204, 153, 255);
glyphname = y;
layers = (
{
anchors = (
{
name = bottom;
position = "{300, 0}";
},
{
name = top;
position = "{300, 550}";
}
);
layerId = "DA9EFFB3-F552-472D-9366-30BF08E10A4D";
shapes = (
{
closed = 1;
nodes = (
(424,517,ls),
(432,539,o),
(447,550,o),
(470,550,cs),
(523,550,o),
(549,532,o),
(549,494,cs),
(549,482,o),
(546,467,o),
(541,451,cs),
(386,-10,ls),
(367,-66,o),
(329,-177,o),
(275,-217,cs),
(223,-256,o),
(169,-270,o),
(130,-270,cs),
(83,-270,o),
(60,-250,o),
(60,-205,cs),
(60,-204,o),
(60,-204,o),
(60,-203,c),
(61,-165,o),
(79,-137,o),
(116,-137,cs),
(139,-137,o),
(153,-127,o),
(168,-114,cs),
(202,-84,o),
(212,-65,o),
(225,-29,cs)
);
},
{
closed = 1;
nodes = (
(70,455,ls),
(64,471,o),
(61,485,o),
(61,497,cs),
(61,533,o),
(87,550,o),
(128,550,cs),
(160,550,o),
(174,539,o),
(182,518,cs),
(351,53,l),
(265,-80,l)
);
}
);
width = 600;
},
{
anchors = (
{
name = bottom;
position = "{300, 0}";
},
{
name = top;
position = "{300, 550}";
}
);
layerId = "2F9F64D1-8101-471E-9D78-CA49E27A5E76";
shapes = (
{
closed = 1;
nodes = (
(447,528,ls),
(452,543,o),
(463,550,o),
(486,550,cs),
(516,550,o),
(532,538,o),
(532,514,cs),
(532,505,o),
(530,495,o),
(526,483,cs),
(354,-10,ls),
(334,-66,o),
(288,-160,o),
(238,-196,cs),
(208,-218,o),
(163,-229,o),
(130,-229,cs),
(95,-229,o),
(80,-216,o),
(80,-185,c),
(80,-185,o),
(80,-184,o),
(80,-184,c),
(80,-155,o),
(95,-139,o),
(127,-139,cs),
(148,-139,o),
(172,-132,o),
(190,-116,cs),
(228,-83,o),
(237,-57,o),
(253,-11,cs)
);
},
{
closed = 1;
nodes = (
(85,483,ls),
(81,493,o),
(78,505,o),
(78,515,cs),
(78,539,o),
(94,550,o),
(124,550,cs),
(147,550,o),
(158,543,o),
(163,528,cs),
(335,62,l),
(272,-23,l)
);
}
);
width = 600;
},
{
anchors = (
{
name = bottom;
position = "{300, 0}";
},
{
name = top;
position = "{300, 550}";
}
);
layerId = "DE89D2D6-523F-41BC-8875-C89AC2ABC816";
shapes = (
{
closed = 1;
nodes = (
(470,538,ls),
(473,546,o),
(479,550,o),
(491,550,cs),
(506,550,o),
(515,544,o),
(515,532,cs),
(515,528,o),
(514,525,o),
(512,520,cs),
(314,-10,ls),
(293,-66,o),
(270,-125,o),
(231,-159,cs),
(196,-189,o),
(160,-190,o),
(125,-190,cs),
(108,-190,o),
(100,-182,o),
(100,-165,c),
(100,-165,o),
(100,-164,o),
(100,-164,c),
(100,-148,o),
(108,-140,o),
(133,-140,cs),
(150,-140,o),
(177,-136,o),
(202,-113,cs),
(237,-82,o),
(259,-23,o),
(269,5,cs)
);
},
{
closed = 1;
nodes = (
(90,514,ls),
(87,521,o),
(86,526,o),
(86,531,cs),
(86,544,o),
(95,550,o),
(111,550,cs),
(124,550,o),
(130,546,o),
(133,538,cs),
(328,58,l),
(291,15,l)
);
}
);
width = 600;
}
);
unicode = 121;
},
{
color = (255, 204, 153, 255);
glyphname = z;
layers = (
{
anchors = (
{
name = bottom;
position = "{300, 0}";
},
{
name = center;
position = "{300, 275}";
},
{
name = top;
position = "{300, 550}";
}
);
layerId = "DA9EFFB3-F552-472D-9366-30BF08E10A4D";
shapes = (
{
closed = 1;
nodes = (
(325,397,ls),
(337,409,o),
(334,415,o),
(317,415,cs),
(145,415,ls),
(101,415,o),
(80,438,o),
(80,482,cs),
(80,526,o),
(101,550,o),
(145,550,cs),
(432,550,ls),
(490,550,o),
(519,521,o),
(519,466,cs),
(519,434,o),
(509,409,o),
(489,388,cs),
(264,153,ls),
(252,141,o),
(255,135,o),
(272,135,cs),
(465,135,ls),
(509,135,o),
(530,112,o),
(530,68,cs),
(530,24,o),
(509,0,o),
(465,0,cs),
(157,0,ls),
(99,0,o),
(70,29,o),
(70,84,cs),
(70,116,o),
(80,141,o),
(100,162,cs)
);
}
);
width = 600;
},
{
anchors = (
{
name = bottom;
position = "{300, 0}";
},
{
name = center;
position = "{300, 275}";
},
{
name = top;
position = "{300, 550}";
}
);
layerId = "2F9F64D1-8101-471E-9D78-CA49E27A5E76";
shapes = (
{
closed = 1;
nodes = (
(385,445,ls),
(394,455,o),
(391,460,o),
(378,460,cs),
(142,460,ls),
(115,460,o),
(98,478,o),
(98,505,cs),
(98,532,o),
(115,550,o),
(142,550,cs),
(439,550,ls),
(479,550,o),
(499,530,o),
(499,491,cs),
(499,470,o),
(493,452,o),
(480,437,cs),
(202,105,ls),
(193,95,o),
(196,90,o),
(209,90,cs),
(466,90,ls),
(493,90,o),
(510,72,o),
(510,45,cs),
(510,18,o),
(493,0,o),
(466,0,cs),
(150,0,ls),
(110,0,o),
(90,20,o),
(90,59,cs),
(90,80,o),
(96,97,o),
(109,113,cs)
);
}
);
width = 600;
},
{
anchors = (
{
name = bottom;
position = "{300, 0}";
},
{
name = center;
position = "{300, 275}";
},
{
name = top;
position = "{300, 550}";
}
);
layerId = "DE89D2D6-523F-41BC-8875-C89AC2ABC816";
shapes = (
{
closed = 1;
nodes = (
(418,488,ls),
(424,496,o),
(422,500,o),
(412,500,cs),
(137,500,ls),
(122,500,o),
(112,510,o),
(112,525,cs),
(112,540,o),
(121,550,o),
(136,550,cs),
(453,550,ls),
(474,550,o),
(484,540,o),
(484,519,cs),
(484,509,o),
(481,499,o),
(475,490,cs),
(169,62,ls),
(163,54,o),
(165,50,o),
(175,50,cs),
(472,50,ls),
(487,50,o),
(497,40,o),
(497,25,cs),
(497,10,o),
(487,0,o),
(472,0,cs),
(134,0,ls),
(113,0,o),
(103,10,o),
(103,31,cs),
(103,41,o),
(106,51,o),
(112,59,cs)
);
}
);
width = 600;
}
);
unicode = 122;
},
{
glyphname = "alpha-ipa";
layers = (
{
layerId = "DA9EFFB3-F552-472D-9366-30BF08E10A4D";
shapes = (
{
closed = 1;
nodes = (
(125,-10,o),
(55,123,o),
(55,275,cs),
(55,427,o),
(125,560,o),
(270,560,cs),
(435,560,o),
(495,379,o),
(495,275,cs),
(495,173,o),
(435,-10,o),
(270,-10,cs)
);
},
{
closed = 1;
nodes = (
(365,115,o),
(395,190,o),
(395,275,cs),
(395,362,o),
(365,435,o),
(300,435,cs),
(235,435,o),
(205,360,o),
(205,275,cs),
(205,190,o),
(235,115,o),
(300,115,cs)
);
},
{
closed = 1;
nodes = (
(395,485,ls),
(395,535,o),
(420,560,o),
(470,560,cs),
(520,560,o),
(545,535,o),
(545,485,cs),
(545,65,ls),
(545,15,o),
(520,-10,o),
(470,-10,cs),
(420,-10,o),
(395,15,o),
(395,65,cs)
);
}
);
width = 600;
},
{
layerId = "2F9F64D1-8101-471E-9D78-CA49E27A5E76";
shapes = (
{
closed = 1;
nodes = (
(156,-10,o),
(75,110,o),
(75,276,cs),
(75,440,o),
(154,560,o),
(280,560,cs),
(437,560,o),
(490,440,o),
(490,276,cs),
(490,110,o),
(435,-10,o),
(280,-10,cs)
);
},
{
closed = 1;
nodes = (
(394,80,o),
(435,160,o),
(435,276,cs),
(435,390,o),
(395,470,o),
(300,470,cs),
(205,470,o),
(165,390,o),
(165,275,cs),
(165,160,o),
(206,80,o),
(300,80,cs)
);
},
{
closed = 1;
nodes = (
(435,515,ls),
(435,545,o),
(450,560,o),
(480,560,cs),
(510,560,o),
(525,545,o),
(525,515,cs),
(525,35,ls),
(525,5,o),
(510,-10,o),
(480,-10,cs),
(450,-10,o),
(435,5,o),
(435,35,cs)
);
}
);
width = 600;
},
{
layerId = "DE89D2D6-523F-41BC-8875-C89AC2ABC816";
shapes = (
{
closed = 1;
nodes = (
(166,-10,o),
(90,100,o),
(90,275,cs),
(90,450,o),
(166,560,o),
(292,560,cs),
(428,560,o),
(485,450,o),
(485,278,cs),
(485,100,o),
(423,-10,o),
(290,-10,cs)
);
},
{
closed = 1;
nodes = (
(401,40,o),
(460,130,o),
(460,278,cs),
(460,420,o),
(406,510,o),
(302,510,cs),
(199,510,o),
(140,420,o),
(140,275,cs),
(140,130,o),
(198,40,o),
(300,40,cs)
);
},
{
closed = 1;
nodes = (
(460,535,ls),
(460,552,o),
(468,560,o),
(485,560,cs),
(502,560,o),
(510,552,o),
(510,535,cs),
(510,15,ls),
(510,-2,o),
(502,-10,o),
(485,-10,cs),
(468,-10,o),
(460,-2,o),
(460,15,cs)
);
}
);
width = 600;
}
);
unicode = 593;
},
{
glyphname = ezh;
layers = (
{
layerId = "DA9EFFB3-F552-472D-9366-30BF08E10A4D";
shapes = (
{
closed = 1;
nodes = (
(52,-145,o),
(48,-112,o),
(72,-75,cs),
(94,-42,o),
(119,-37,o),
(157,-59,cs),
(192,-79,o),
(228,-89,o),
(277,-89,cs),
(346,-89,o),
(398,-55,o),
(398,19,cs),
(398,114,o),
(298,137,o),
(220,142,cs),
(188,144,o),
(171,159,o),
(168,190,cs),
(165,221,o),
(175,248,o),
(197,270,cs),
(331,404,ls),
(343,416,o),
(341,422,o),
(324,422,cs),
(143,422,ls),
(102,422,o),
(83,442,o),
(83,483,cs),
(83,524,o),
(102,543,o),
(143,543,cs),
(412,543,ls),
(472,543,o),
(502,513,o),
(502,453,cs),
(502,423,o),
(491,398,o),
(469,377,cs),
(356,268,ls),
(344,257,o),
(347,250,o),
(363,246,cs),
(472,219,o),
(533,126,o),
(533,9,cs),
(533,-145,o),
(411,-215,o),
(271,-215,cs),
(204,-215,o),
(141,-201,o),
(86,-166,cs)
);
}
);
width = 600;
},
{
layerId = "2F9F64D1-8101-471E-9D78-CA49E27A5E76";
shapes = (
{
closed = 1;
nodes = (
(57,-141,o),
(56,-116,o),
(80,-91,cs),
(102,-68,o),
(124,-66,o),
(153,-86,cs),
(189,-111,o),
(225,-122,o),
(277,-122,cs),
(358,-122,o),
(419,-80,o),
(419,6,cs),
(419,140,o),
(304,160,o),
(204,163,cs),
(183,164,o),
(171,174,o),
(168,194,cs),
(165,214,o),
(170,232,o),
(184,247,cs),
(368,443,ls),
(377,453,o),
(375,458,o),
(362,458,cs),
(134,458,ls),
(106,458,o),
(91,473,o),
(91,501,cs),
(91,529,o),
(105,543,o),
(133,543,cs),
(434,543,ls),
(473,543,o),
(493,523,o),
(493,484,cs),
(493,458,o),
(484,435,o),
(466,416,cs),
(312,253,ls),
(303,243,o),
(305,237,o),
(318,236,cs),
(438,223,o),
(525,142,o),
(525,9,cs),
(525,-140,o),
(410,-215,o),
(271,-215,cs),
(203,-215,o),
(137,-199,o),
(83,-160,cs)
);
}
);
width = 600;
},
{
layerId = "DE89D2D6-523F-41BC-8875-C89AC2ABC816";
shapes = (
{
closed = 1;
nodes = (
(62,-132,o),
(62,-123,o),
(72,-112,cs),
(82,-102,o),
(93,-101,o),
(104,-110,cs),
(157,-152,o),
(204,-170,o),
(277,-170,cs),
(384,-170,o),
(466,-116,o),
(466,-1,cs),
(466,164,o),
(306,182,o),
(185,183,cs),
(177,183,o),
(171,187,o),
(168,194,c),
(165,201,o),
(166,207,o),
(171,213,cs),
(416,488,ls),
(423,496,o),
(421,499,o),
(411,499,cs),
(125,499,ls),
(110,499,o),
(103,506,o),
(103,521,cs),
(103,536,o),
(110,543,o),
(125,543,cs),
(454,543,ls),
(473,543,o),
(482,534,o),
(482,515,cs),
(482,506,o),
(479,498,o),
(473,491,cs),
(250,238,ls),
(243,230,o),
(245,227,o),
(255,227,cs),
(388,223,o),
(513,157,o),
(513,-1,cs),
(513,-145,o),
(405,-215,o),
(271,-215,cs),
(195,-215,o),
(126,-193,o),
(72,-142,cs)
);
}
);
width = 600;
}
);
unicode = 658;
},
{
glyphname = Ismall;
layers = (
{
layerId = "DA9EFFB3-F552-472D-9366-30BF08E10A4D";
shapes = (
{
closed = 1;
nodes = (
(375,135,l),
(432,135,ls),
(477,135,o),
(500,113,o),
(500,68,cs),
(500,23,o),
(477,0,o),
(432,0,cs),
(168,0,ls),
(123,0,o),
(100,23,o),
(100,68,cs),
(100,113,o),
(123,135,o),
(168,135,cs),
(225,135,l),
(225,415,l),
(168,415,ls),
(123,415,o),
(100,438,o),
(100,483,cs),
(100,528,o),
(123,550,o),
(168,550,cs),
(432,550,ls),
(477,550,o),
(500,528,o),
(500,483,cs),
(500,438,o),
(477,415,o),
(432,415,cs),
(375,415,l)
);
}
);
width = 600;
},
{
layerId = "2F9F64D1-8101-471E-9D78-CA49E27A5E76";
shapes = (
{
closed = 1;
nodes = (
(346,90,l),
(420,90,ls),
(447,90,o),
(465,72,o),
(465,45,cs),
(465,18,o),
(447,0,o),
(420,0,cs),
(180,0,ls),
(153,0,o),
(135,18,o),
(135,45,cs),
(135,72,o),
(153,90,o),
(180,90,cs),
(254,90,l),
(254,460,l),
(180,460,ls),
(153,460,o),
(135,478,o),
(135,505,cs),
(135,532,o),
(153,550,o),
(180,550,cs),
(420,550,ls),
(447,550,o),
(465,532,o),
(465,505,cs),
(465,478,o),
(447,460,o),
(420,460,cs),
(346,460,l)
);
}
);
width = 600;
},
{
layerId = "DE89D2D6-523F-41BC-8875-C89AC2ABC816";
shapes = (
{
closed = 1;
nodes = (
(324,50,l),
(415,50,ls),
(430,50,o),
(440,40,o),
(440,25,cs),
(440,10,o),
(430,0,o),
(415,0,cs),
(185,0,ls),
(170,0,o),
(160,10,o),
(160,25,cs),
(160,40,o),
(170,50,o),
(185,50,cs),
(276,50,l),
(276,500,l),
(185,500,ls),
(170,500,o),
(160,510,o),
(160,525,cs),
(160,540,o),
(170,550,o),
(185,550,cs),
(415,550,ls),
(430,550,o),
(440,540,o),
(440,525,cs),
(440,510,o),
(430,500,o),
(415,500,cs),
(324,500,l)
);
}
);
width = 600;
}
);
unicode = 618;
},
{
glyphname = esh;
layers = (
{
layerId = "DA9EFFB3-F552-472D-9366-30BF08E10A4D";
shapes = (
{
closed = 1;
nodes = (
(93,-224,o),
(71,-198,o),
(74,-153,cs),
(76,-116,o),
(92,-100,o),
(142,-88,cs),
(175,-80,o),
(200,-58,o),
(200,-10,cs),
(200,604,ls),
(200,771,o),
(298,833,o),
(431,821,cs),
(471,817,o),
(491,792,o),
(487,749,cs),
(483,712,o),
(465,694,o),
(418,682,cs),
(382,673,o),
(350,651,o),
(350,604,cs),
(350,-10,ls),
(350,-171,o),
(262,-233,o),
(134,-226,cs)
);
}
);
width = 600;
},
{
layerId = "2F9F64D1-8101-471E-9D78-CA49E27A5E76";
shapes = (
{
closed = 1;
nodes = (
(117,-205,o),
(106,-188,o),
(109,-161,cs),
(112,-136,o),
(124,-127,o),
(152,-128,cs),
(197,-130,o),
(230,-108,o),
(230,-47,cs),
(230,617,ls),
(230,761,o),
(315,805,o),
(429,791,cs),
(454,788,o),
(465,773,o),
(461,747,cs),
(457,723,o),
(444,712,o),
(417,714,cs),
(359,718,o),
(320,695,o),
(320,617,cs),
(320,-47,ls),
(320,-167,o),
(239,-220,o),
(142,-208,cs)
);
}
);
width = 600;
},
{
layerId = "DE89D2D6-523F-41BC-8875-C89AC2ABC816";
shapes = (
{
closed = 1;
nodes = (
(127,-175,o),
(120,-166,o),
(123,-150,cs),
(126,-136,o),
(133,-130,o),
(149,-132,cs),
(207,-140,o),
(256,-108,o),
(256,-39,cs),
(256,628,ls),
(256,739,o),
(336,794,o),
(432,773,cs),
(447,770,o),
(452,760,o),
(449,745,cs),
(446,731,o),
(438,725,o),
(422,728,cs),
(361,739,o),
(307,698,o),
(307,628,cs),
(307,-39,ls),
(307,-134,o),
(228,-202,o),
(141,-179,cs)
);
}
);
width = 600;
}
);
unicode = 643;
},
{
glyphname = "upsilon-ipa";
layers = (
{
layerId = "DA9EFFB3-F552-472D-9366-30BF08E10A4D";
shapes = (
{
closed = 1;
nodes = (
(519,555,o),
(544,532,o),
(544,483,cs),
(544,459,o),
(532,445,o),
(492,422,cs),
(483,417,o),
(480,410,o),
(480,401,cs),
(480,336,o),
(545,266,o),
(545,172,cs),
(545,27,o),
(424,-10,o),
(300,-10,cs),
(175,-10,o),
(55,26,o),
(55,172,cs),
(55,262,o),
(120,334,o),
(120,401,cs),
(120,410,o),
(115,417,o),
(105,422,cs),
(63,442,o),
(53,454,o),
(53,483,cs),
(53,532,o),
(78,555,o),
(123,548,cs),
(196,537,o),
(255,504,o),
(255,422,cs),
(255,342,o),
(190,295,o),
(190,217,cs),
(190,146,o),
(237,121,o),
(300,121,cs),
(364,121,o),
(410,145,o),
(410,217,cs),
(410,295,o),
(345,343,o),
(345,422,cs),
(345,503,o),
(402,537,o),
(474,548,cs)
);
}
);
width = 600;
},
{
layerId = "2F9F64D1-8101-471E-9D78-CA49E27A5E76";
shapes = (
{
closed = 1;
nodes = (
(516,554,o),
(530,541,o),
(530,513,cs),
(530,489,o),
(519,476,o),
(490,466,cs),
(470,459,o),
(454,446,o),
(454,421,cs),
(454,351,o),
(517,303,o),
(517,193,cs),
(517,39,o),
(414,-10,o),
(300,-10,cs),
(186,-10,o),
(83,39,o),
(83,193,cs),
(83,305,o),
(147,350,o),
(147,421,cs),
(147,446,o),
(131,459,o),
(110,466,cs),
(81,476,o),
(70,489,o),
(70,513,cs),
(70,541,o),
(84,554,o),
(110,551,cs),
(175,544,o),
(237,515,o),
(237,435,cs),
(237,357,o),
(173,304,o),
(173,213,cs),
(173,116,o),
(229,80,o),
(300,80,cs),
(371,80,o),
(427,116,o),
(427,213,cs),
(427,303,o),
(363,359,o),
(363,435,cs),
(363,515,o),
(425,544,o),
(490,551,cs)
);
}
);
width = 600;
},
{
layerId = "DE89D2D6-523F-41BC-8875-C89AC2ABC816";
shapes = (
{
closed = 1;
nodes = (
(506,553,o),
(514,546,o),
(514,530,cs),
(514,515,o),
(507,507,o),
(491,505,cs),
(455,501,o),
(417,485,o),
(417,445,cs),
(417,369,o),
(505,319,o),
(505,200,cs),
(505,47,o),
(409,-10,o),
(301,-10,cs),
(192,-10,o),
(95,47,o),
(95,200,cs),
(95,323,o),
(183,361,o),
(183,450,cs),
(183,486,o),
(143,501,o),
(109,505,cs),
(93,507,o),
(86,515,o),
(86,530,cs),
(86,546,o),
(94,553,o),
(109,552,cs),
(168,547,o),
(233,522,o),
(233,452,cs),
(233,361,o),
(145,323,o),
(145,205,cs),
(145,88,o),
(223,40,o),
(301,40,cs),
(380,40,o),
(455,88,o),
(455,205,cs),
(455,321,o),
(367,363,o),
(367,452,cs),
(367,522,o),
(432,547,o),
(491,552,cs)
);
}
);
width = 600;
}
);
unicode = 650;
},
{
glyphname = "Be-cy";
layers = (
{
layerId = "DA9EFFB3-F552-472D-9366-30BF08E10A4D";
shapes = (
{
closed = 1;
nodes = (
(166,0,ls),
(99,0,o),
(66,33,o),
(66,100,cs),
(66,630,ls),
(66,697,o),
(99,730,o),
(166,730,cs),
(460,730,ls),
(505,730,o),
(528,708,o),
(528,663,cs),
(528,618,o),
(505,595,o),
(460,595,cs),
(261,595,ls),
(227,595,o),
(211,578,o),
(211,545,cs),
(211,451,l),
(309,451,ls),
(385,451,o),
(497,396,o),
(560,296,o),
(560,228,qs),
(560,162,o),
(497,59,o),
(385,0,o),
(310,0,qs)
);
},
{
closed = 1;
nodes = (
(211,180,ls),
(211,147,o),
(228,130,o),
(261,130,cs),
(310,130,ls),
(356,130,o),
(410,184,o),
(410,228,qs),
(410,273,o),
(356,326,o),
(310,326,qs),
(211,326,l)
);
}
);
width = 600;
},
{
layerId = "2F9F64D1-8101-471E-9D78-CA49E27A5E76";
shapes = (
{
closed = 1;
nodes = (
(174,0,ls),
(120,0,o),
(94,26,o),
(94,80,cs),
(94,650,ls),
(94,704,o),
(120,730,o),
(174,730,cs),
(459,730,ls),
(486,730,o),
(500,716,o),
(500,689,cs),
(500,662,o),
(486,648,o),
(459,648,cs),
(224,648,ls),
(197,648,o),
(184,635,o),
(184,608,cs),
(184,432,l),
(305,432,ls),
(375,432,o),
(475,378,o),
(530,281,o),
(530,216,qs),
(530,151,o),
(475,54,o),
(375,0,o),
(305,0,qs)
);
},
{
closed = 1;
nodes = (
(184,122,ls),
(184,95,o),
(197,82,o),
(224,82,cs),
(305,82,ls),
(367,82,o),
(437,155,o),
(437,216,qs),
(437,278,o),
(367,350,o),
(305,350,qs),
(184,350,l)
);
}
);
width = 600;
},
{
layerId = "DE89D2D6-523F-41BC-8875-C89AC2ABC816";
shapes = (
{
closed = 1;
nodes = (
(170,0,ls),
(130,0,o),
(110,20,o),
(110,60,cs),
(110,670,ls),
(110,710,o),
(130,730,o),
(170,730,cs),
(463,730,ls),
(478,730,o),
(486,723,o),
(486,708,cs),
(486,693,o),
(478,685,o),
(463,685,cs),
(190,685,ls),
(170,685,o),
(160,675,o),
(160,655,cs),
(160,420,l),
(306,420,ls),
(369,420,o),
(463,367,o),
(516,273,o),
(516,210,qs),
(516,148,o),
(463,53,o),
(369,0,o),
(306,0,qs)
);
},
{
closed = 1;
nodes = (
(160,75,ls),
(160,55,o),
(170,45,o),
(190,45,cs),
(306,45,ls),
(377,45,o),
(466,137,o),
(466,210,qs),
(466,284,o),
(377,375,o),
(306,375,qs),
(160,375,l)
);
}
);
width = 600;
}
);
unicode = 1041;
},
{
glyphname = "Ge-cy";
layers = (
{
anchors = (
{
name = bottomright;
position = "{580, 0}";
},
{
name = top;
position = "{338, 730}";
}
);
layerId = "DA9EFFB3-F552-472D-9366-30BF08E10A4D";
shapes = (
{
closed = 1;
nodes = (
(140,-10,o),
(115,15,o),
(115,65,cs),
(115,630,ls),
(115,697,o),
(148,730,o),
(215,730,cs),
(492,730,ls),
(537,730,o),
(560,708,o),
(560,663,cs),
(560,618,o),
(538,595,o),
(493,595,cs),
(315,595,ls),
(282,595,o),
(265,579,o),
(265,545,cs),
(265,65,ls),
(265,15,o),
(240,-10,o),
(190,-10,cs)
);
}
);
width = 600;
},
{
anchors = (
{
name = bottomright;
position = "{580, 0}";
},
{
name = top;
position = "{340, 730}";
}
);
layerId = "2F9F64D1-8101-471E-9D78-CA49E27A5E76";
shapes = (
{
closed = 1;
nodes = (
(145,-10,o),
(130,5,o),
(130,35,cs),
(130,650,ls),
(130,704,o),
(156,730,o),
(210,730,cs),
(514,730,ls),
(541,730,o),
(555,716,o),
(555,689,cs),
(555,662,o),
(541,648,o),
(514,648,cs),
(260,648,ls),
(233,648,o),
(220,635,o),
(220,608,cs),
(220,35,ls),
(220,5,o),
(205,-10,o),
(175,-10,cs)
);
}
);
width = 600;
},
{
anchors = (
{
name = bottomright;
position = "{580, 0}";
},
{
name = top;
position = "{343, 730}";
}
);
layerId = "DE89D2D6-523F-41BC-8875-C89AC2ABC816";
shapes = (
{
closed = 1;
nodes = (
(148,-10,o),
(140,-2,o),
(140,15,cs),
(140,670,ls),
(140,710,o),
(160,730,o),
(200,730,cs),
(522,730,ls),
(537,730,o),
(545,723,o),
(545,708,cs),
(545,693,o),
(537,685,o),
(522,685,cs),
(220,685,ls),
(200,685,o),
(190,675,o),
(190,655,cs),
(190,15,ls),
(190,-2,o),
(182,-10,o),
(165,-10,cs)
);
}
);
width = 600;
}
);
unicode = 1043;
},
{
glyphname = "Gheupturn-cy";
layers = (
{
layerId = "DA9EFFB3-F552-472D-9366-30BF08E10A4D";
shapes = (
{
closed = 1;
nodes = (
(140,-10,o),
(115,15,o),
(115,65,cs),
(115,630,ls),
(115,697,o),
(148,730,o),
(215,730,cs),
(388,730,ls),
(406,730,o),
(415,739,o),
(415,757,cs),
(415,758,ls),
(415,803,o),
(437,825,o),
(482,825,cs),
(535,825,o),
(560,800,o),
(560,747,cs),
(560,690,ls),
(560,623,o),
(527,590,o),
(460,590,cs),
(315,590,ls),
(282,590,o),
(265,574,o),
(265,540,cs),
(265,65,ls),
(265,15,o),
(240,-10,o),
(190,-10,cs)
);
}
);
width = 600;
},
{
layerId = "2F9F64D1-8101-471E-9D78-CA49E27A5E76";
shapes = (
{
closed = 1;
nodes = (
(145,-10,o),
(130,5,o),
(130,35,cs),
(130,650,ls),
(130,704,o),
(156,730,o),
(210,730,cs),
(438,730,ls),
(459,730,o),
(470,741,o),
(470,762,cs),
(470,787,ls),
(470,812,o),
(483,825,o),
(508,825,cs),
(540,825,o),
(555,810,o),
(555,778,cs),
(555,728,ls),
(555,674,o),
(529,648,o),
(475,648,cs),
(260,648,ls),
(233,648,o),
(220,635,o),
(220,608,cs),
(220,35,ls),
(220,5,o),
(205,-10,o),
(175,-10,cs)
);
}
);
width = 600;
},
{
layerId = "DE89D2D6-523F-41BC-8875-C89AC2ABC816";
shapes = (
{
closed = 1;
nodes = (
(148,-10,o),
(140,-2,o),
(140,15,cs),
(140,670,ls),
(140,710,o),
(160,730,o),
(200,730,cs),
(465,730,ls),
(485,730,o),
(495,740,o),
(495,760,cs),
(495,800,ls),
(495,817,o),
(503,825,o),
(520,825,cs),
(537,825,o),
(545,817,o),
(545,800,cs),
(545,745,ls),
(545,705,o),
(525,685,o),
(485,685,cs),
(220,685,ls),
(200,685,o),
(190,675,o),
(190,655,cs),
(190,15,ls),
(190,-2,o),
(182,-10,o),
(165,-10,cs)
);
}
);
width = 600;
}
);
unicode = 1168;
},
{
glyphname = "De-cy";
layers = (
{
layerId = "DA9EFFB3-F552-472D-9366-30BF08E10A4D";
shapes = (
{
closed = 1;
nodes = (
(45,-140,o),
(22,-117,o),
(22,-70,cs),
(22,95,ls),
(22,115,o),
(32,125,o),
(52,125,cs),
(53,125,l),
(64,143,o),
(89,207,o),
(107,292,o),
(107,340,qs),
(111,630,ls),
(112,697,o),
(146,730,o),
(213,730,cs),
(417,730,ls),
(484,730,o),
(517,697,o),
(517,630,cs),
(517,125,l),
(518,125,l),
(558,125,o),
(578,105,o),
(578,65,cs),
(578,-70,ls),
(578,-117,o),
(555,-140,o),
(508,-140,cs),
(461,-140,o),
(438,-117,o),
(438,-70,cs),
(438,-50,ls),
(438,-17,o),
(422,0,o),
(388,0,cs),
(212,0,ls),
(178,0,o),
(162,-17,o),
(162,-50,cs),
(162,-70,ls),
(162,-117,o),
(139,-140,o),
(92,-140,cs)
);
},
{
closed = 1;
nodes = (
(377,555,ls),
(377,589,o),
(360,605,o),
(327,605,cs),
(301,605,ls),
(267,605,o),
(251,588,o),
(250,555,cs),
(247,341,ls),
(247,295,o),
(231,210,o),
(210,144,o),
(200,125,q),
(377,125,l)
);
}
);
width = 600;
},
{
layerId = "2F9F64D1-8101-471E-9D78-CA49E27A5E76";
shapes = (
{
closed = 1;
nodes = (
(38,-140,o),
(25,-127,o),
(25,-100,cs),
(25,37,ls),
(25,64,o),
(38,77,o),
(65,77,cs),
(70,77,l),
(81,97,o),
(105,165,o),
(123,251,o),
(124,298,qs),
(130,650,ls),
(131,704,o),
(157,730,o),
(211,730,cs),
(425,730,ls),
(479,730,o),
(505,704,o),
(505,650,cs),
(505,77,l),
(515,77,ls),
(555,77,o),
(575,57,o),
(575,17,cs),
(575,-100,ls),
(575,-127,o),
(562,-140,o),
(535,-140,cs),
(508,-140,o),
(495,-127,o),
(495,-100,cs),
(495,-40,ls),
(495,-13,o),
(482,0,o),
(455,0,cs),
(145,0,ls),
(118,0,o),
(105,-13,o),
(105,-40,cs),
(105,-100,ls),
(105,-127,o),
(92,-140,o),
(65,-140,cs)
);
},
{
closed = 1;
nodes = (
(415,610,ls),
(415,637,o),
(402,650,o),
(375,650,cs),
(257,650,ls),
(230,650,o),
(216,637,o),
(216,610,cs),
(212,298,ls),
(211,247,o),
(196,159,o),
(174,94,o),
(164,77,q),
(415,77,l)
);
}
);
width = 600;
},
{
layerId = "DE89D2D6-523F-41BC-8875-C89AC2ABC816";
shapes = (
{
closed = 1;
nodes = (
(56,-140,o),
(48,-133,o),
(48,-118,cs),
(48,15,ls),
(48,35,o),
(58,45,o),
(78,45,cs),
(82,45,l),
(96,63,o),
(127,131,o),
(150,222,o),
(151,276,qs),
(160,670,ls),
(161,710,o),
(181,730,o),
(221,730,cs),
(418,730,ls),
(458,730,o),
(478,710,o),
(478,670,cs),
(478,45,l),
(490,45,ls),
(530,45,o),
(550,25,o),
(550,-15,cs),
(550,-118,ls),
(550,-133,o),
(543,-140,o),
(528,-140,cs),
(513,-140,o),
(505,-132,o),
(505,-117,cs),
(505,-30,ls),
(505,-10,o),
(495,0,o),
(475,0,cs),
(123,0,ls),
(103,0,o),
(93,-10,o),
(93,-30,cs),
(93,-117,ls),
(93,-132,o),
(86,-140,o),
(71,-140,cs)
);
},
{
closed = 1;
nodes = (
(428,655,ls),
(428,675,o),
(418,685,o),
(398,685,cs),
(241,685,ls),
(221,685,o),
(210,675,o),
(210,655,cs),
(201,276,ls),
(200,222,o),
(178,131,o),
(149,63,o),
(135,45,q),
(428,45,l)
);
}
);
width = 600;
}
);
unicode = 1044;
},
{
glyphname = "Zhe-cy";
layers = (
{
anchors = (
{
name = bottomright;
position = "{580, 0}";
},
{
name = top;
position = "{300, 730}";
}
);
layerId = "DA9EFFB3-F552-472D-9366-30BF08E10A4D";
shapes = (
{
closed = 1;
nodes = (
(127,29,ls),
(120,3,o),
(103,-10,o),
(76,-10,cs),
(22,-10,o),
(3,16,o),
(17,68,cs),
(96,353,ls),
(100,369,o),
(100,385,o),
(96,401,cs),
(23,663,ls),
(8,715,o),
(28,740,o),
(82,740,cs),
(109,740,o),
(126,727,o),
(133,701,cs),
(204,450,ls),
(207,438,o),
(215,432,o),
(228,432,cs),
(248,432,l),
(247,689,ls),
(247,723,o),
(264,740,o),
(298,740,cs),
(332,740,o),
(349,723,o),
(349,689,cs),
(349,432,l),
(369,432,ls),
(382,432,o),
(391,438,o),
(395,451,cs),
(466,702,ls),
(473,727,o),
(490,740,o),
(516,740,cs),
(569,740,o),
(587,715,o),
(572,665,cs),
(496,404,ls),
(491,388,o),
(491,372,o),
(496,356,cs),
(582,67,ls),
(597,16,o),
(579,-10,o),
(525,-10,cs),
(498,-10,o),
(481,2,o),
(473,28,cs),
(392,307,ls),
(388,319,o),
(381,325,o),
(368,325,cs),
(348,325,l),
(353,41,ls),
(354,7,o),
(337,-10,o),
(303,-10,cs),
(269,-10,o),
(251,7,o),
(251,41,cs),
(247,325,l),
(227,325,ls),
(214,325,o),
(206,319,o),
(202,306,cs)
);
}
);
width = 600;
},
{
anchors = (
{
name = bottomright;
position = "{580, 0}";
},
{
name = top;
position = "{300, 730}";
}
);
layerId = "2F9F64D1-8101-471E-9D78-CA49E27A5E76";
shapes = (
{
closed = 1;
nodes = (
(108,19,ls),
(102,0,o),
(88,-10,o),
(67,-10,cs),
(26,-10,o),
(13,9,o),
(26,48,cs),
(133,360,ls),
(137,373,o),
(137,385,o),
(133,398,cs),
(37,681,ls),
(23,721,o),
(37,740,o),
(79,740,cs),
(100,740,o),
(114,730,o),
(120,710,cs),
(210,430,ls),
(214,417,o),
(223,411,o),
(236,411,cs),
(262,411,l),
(262,702,ls),
(262,727,o),
(275,740,o),
(300,740,cs),
(325,740,o),
(338,727,o),
(338,702,cs),
(338,411,l),
(366,411,ls),
(379,411,o),
(388,417,o),
(392,430,cs),
(480,710,ls),
(486,730,o),
(500,740,o),
(521,740,cs),
(563,740,o),
(577,721,o),
(563,681,cs),
(466,397,ls),
(462,384,o),
(461,372,o),
(466,359,cs),
(573,48,ls),
(586,9,o),
(574,-10,o),
(532,-10,cs),
(511,-10,o),
(498,-1,o),
(491,19,cs),
(390,324,ls),
(386,337,o),
(377,343,o),
(364,343,cs),
(338,343,l),
(338,28,ls),
(338,3,o),
(325,-10,o),
(300,-10,cs),
(275,-10,o),
(262,3,o),
(262,28,cs),
(262,343,l),
(234,343,ls),
(221,343,o),
(212,337,o),
(208,324,cs)
);
}
);
width = 600;
},
{
anchors = (
{
name = bottomright;
position = "{580, 0}";
},
{
name = top;
position = "{300, 730}";
}
);
layerId = "DE89D2D6-523F-41BC-8875-C89AC2ABC816";
shapes = (
{
closed = 1;
nodes = (
(73,6,ls),
(69,-5,o),
(62,-10,o),
(50,-10,cs),
(27,-10,o),
(19,0,o),
(27,22,cs),
(158,370,ls),
(161,379,o),
(161,389,o),
(157,398,cs),
(37,708,ls),
(28,730,o),
(36,740,o),
(59,740,cs),
(71,740,o),
(78,735,o),
(82,724,cs),
(200,415,ls),
(204,406,o),
(211,401,o),
(221,401,cs),
(277,401,l),
(277,718,ls),
(277,733,o),
(284,740,o),
(299,740,cs),
(314,740,o),
(321,733,o),
(321,718,cs),
(321,401,l),
(377,401,ls),
(387,401,o),
(394,406,o),
(398,415,cs),
(518,724,ls),
(522,735,o),
(530,740,o),
(541,740,cs),
(564,740,o),
(570,729,o),
(562,708,cs),
(441,398,ls),
(437,389,o),
(436,379,o),
(440,370,cs),
(572,23,ls),
(580,1,o),
(574,-10,o),
(550,-10,cs),
(538,-10,o),
(530,-5,o),
(526,6,cs),
(397,344,ls),
(393,353,o),
(387,358,o),
(377,358,cs),
(321,358,l),
(321,12,ls),
(321,-3,o),
(314,-10,o),
(299,-10,cs),
(284,-10,o),
(277,-3,o),
(277,12,cs),
(277,358,l),
(221,358,ls),
(211,358,o),
(204,353,o),
(201,344,cs)
);
}
);
width = 600;
}
);
unicode = 1046;
},
{
glyphname = "Ze-cy";
layers = (
{
anchors = (
{
name = top;
position = "{300, 730}";
},
{
name = bottom;
position = "{300, 0}";
}
);
layerId = "DA9EFFB3-F552-472D-9366-30BF08E10A4D";
shapes = (
{
closed = 1;
nodes = (
(109,696,o),
(197,740,o),
(295,740,cs),
(416,740,o),
(536,676,o),
(536,541,cs),
(536,469,o),
(495,399,o),
(421,386,c),
(505,368,o),
(556,291,o),
(556,207,cs),
(556,59,o),
(423,-10,o),
(291,-10,cs),
(191,-10,o),
(95,31,o),
(53,114,cs),
(25,168,o),
(58,210,o),
(129,210,cs),
(152,210,o),
(168,198,o),
(191,163,cs),
(211,132,o),
(252,118,o),
(291,118,cs),
(351,118,o),
(404,152,o),
(404,217,cs),
(404,288,o),
(354,316,o),
(299,316,cs),
(271,316,ls),
(229,316,o),
(209,336,o),
(209,378,cs),
(209,420,o),
(229,440,o),
(271,440,cs),
(299,440,ls),
(346,440,o),
(386,465,o),
(386,529,cs),
(386,583,o),
(345,616,o),
(293,616,cs),
(254,616,o),
(224,598,o),
(209,568,cs),
(190,531,o),
(176,520,o),
(149,520,cs),
(78,520,o),
(45,561,o),
(71,616,cs)
);
}
);
width = 600;
},
{
anchors = (
{
name = bottom;
position = "{300, 0}";
},
{
name = top;
position = "{300, 730}";
}
);
layerId = "2F9F64D1-8101-471E-9D78-CA49E27A5E76";
shapes = (
{
closed = 1;
nodes = (
(104,685,o),
(189,740,o),
(295,740,cs),
(409,740,o),
(511,674,o),
(511,551,cs),
(511,477,o),
(469,403,o),
(394,384,c),
(484,368,o),
(534,286,o),
(534,199,cs),
(534,61,o),
(417,-10,o),
(291,-10,cs),
(184,-10,o),
(89,43,o),
(61,141,cs),
(50,178,o),
(70,200,o),
(112,200,cs),
(131,200,o),
(140,191,o),
(145,170,cs),
(160,104,o),
(223,70,o),
(292,70,cs),
(374,70,o),
(442,118,o),
(442,205,cs),
(442,292,o),
(374,340,o),
(292,340,cs),
(246,340,ls),
(219,340,o),
(206,353,o),
(206,380,cs),
(206,407,o),
(219,420,o),
(246,420,cs),
(292,420,ls),
(350,420,o),
(421,448,o),
(421,542,cs),
(421,616,o),
(366,660,o),
(295,660,cs),
(227,660,o),
(177,622,o),
(165,560,cs),
(161,539,o),
(151,530,o),
(132,530,cs),
(90,530,o),
(69,553,o),
(79,590,cs)
);
}
);
width = 600;
},
{
anchors = (
{
name = top;
position = "{291, 730}";
},
{
name = bottom;
position = "{291, 0}";
}
);
layerId = "DE89D2D6-523F-41BC-8875-C89AC2ABC816";
shapes = (
{
closed = 1;
nodes = (
(98,670,o),
(179,740,o),
(294,740,cs),
(409,740,o),
(497,665,o),
(497,547,cs),
(497,471,o),
(453,397,o),
(376,381,c),
(463,360,o),
(517,282,o),
(517,194,cs),
(517,63,o),
(413,-10,o),
(290,-10,cs),
(176,-10,o),
(81,52,o),
(65,163,cs),
(62,184,o),
(73,196,o),
(96,196,cs),
(107,196,o),
(113,190,o),
(114,179,cs),
(122,86,o),
(198,35,o),
(290,35,cs),
(387,35,o),
(467,93,o),
(467,196,cs),
(467,299,o),
(387,356,o),
(290,356,cs),
(248,356,ls),
(233,356,o),
(225,364,o),
(225,379,cs),
(225,394,o),
(232,401,o),
(247,401,cs),
(294,401,ls),
(383,401,o),
(447,458,o),
(447,549,cs),
(447,639,o),
(382,696,o),
(294,696,cs),
(202,696,o),
(140,635,o),
(133,547,cs),
(132,536,o),
(126,530,o),
(115,530,cs),
(92,530,o),
(81,541,o),
(84,563,cs)
);
}
);
width = 600;
}
);
unicode = 1047;
},
{
glyphname = "Ii-cy";
layers = (
{
anchors = (
{
name = top;
position = "{300, 730}";
},
{
name = bottomright;
position = "{580, 0}";
}
);
layerId = "DA9EFFB3-F552-472D-9366-30BF08E10A4D";
shapes = (
{
closed = 1;
nodes = (
(550,60,ls),
(550,13,o),
(527,-10,o),
(480,-10,cs),
(433,-10,o),
(410,13,o),
(410,60,cs),
(410,490,ls),
(410,494,o),
(409,496,o),
(406,496,cs),
(403,496,o),
(401,494,o),
(400,490,cs),
(257,61,ls),
(241,14,o),
(211,-10,o),
(161,-10,cs),
(87,-10,o),
(50,27,o),
(50,101,cs),
(50,670,ls),
(50,717,o),
(73,740,o),
(120,740,cs),
(167,740,o),
(190,717,o),
(190,670,cs),
(190,240,ls),
(190,236,o),
(191,234,o),
(194,234,cs),
(197,234,o),
(199,236,o),
(200,240,cs),
(343,669,ls),
(359,716,o),
(389,740,o),
(439,740,cs),
(513,740,o),
(550,703,o),
(550,629,cs)
);
}
);
width = 600;
},
{
anchors = (
{
name = bottomright;
position = "{580, 0}";
},
{
name = top;
position = "{300, 730}";
}
);
layerId = "2F9F64D1-8101-471E-9D78-CA49E27A5E76";
shapes = (
{
closed = 1;
nodes = (
(520,35,ls),
(520,5,o),
(505,-10,o),
(475,-10,cs),
(445,-10,o),
(430,5,o),
(430,35,cs),
(430,580,ls),
(430,584,o),
(429,586,o),
(426,586,cs),
(423,586,o),
(422,584,o),
(421,580,cs),
(226,40,ls),
(214,7,o),
(193,-10,o),
(158,-10,cs),
(106,-10,o),
(80,16,o),
(80,68,cs),
(80,695,ls),
(80,725,o),
(95,740,o),
(125,740,cs),
(155,740,o),
(170,725,o),
(170,695,cs),
(170,150,ls),
(170,146,o),
(171,144,o),
(174,144,cs),
(177,144,o),
(178,146,o),
(179,150,cs),
(374,690,ls),
(386,723,o),
(407,740,o),
(442,740,cs),
(494,740,o),
(520,714,o),
(520,662,cs)
);
}
);
width = 600;
},
{
anchors = (
{
name = top;
position = "{300, 730}";
},
{
name = bottomright;
position = "{580, 0}";
}
);
layerId = "DE89D2D6-523F-41BC-8875-C89AC2ABC816";
shapes = (
{
closed = 1;
nodes = (
(490,15,ls),
(490,-2,o),
(482,-10,o),
(465,-10,cs),
(448,-10,o),
(440,-2,o),
(440,15,cs),
(440,650,ls),
(440,654,o),
(439,656,o),
(436,656,cs),
(433,656,o),
(431,654,o),
(430,650,cs),
(204,23,ls),
(196,1,o),
(181,-10,o),
(157,-10,cs),
(126,-10,o),
(110,6,o),
(110,37,cs),
(110,715,ls),
(110,732,o),
(118,740,o),
(135,740,cs),
(152,740,o),
(160,732,o),
(160,715,cs),
(160,80,ls),
(160,76,o),
(161,74,o),
(164,74,cs),
(167,74,o),
(169,76,o),
(170,80,cs),
(396,707,ls),
(404,729,o),
(419,740,o),
(443,740,cs),
(474,740,o),
(490,724,o),
(490,693,cs)
);
}
);
width = 600;
}
);
unicode = 1048;
},
{
glyphname = "El-cy";
layers = (
{
layerId = "DA9EFFB3-F552-472D-9366-30BF08E10A4D";
shapes = (
{
closed = 1;
nodes = (
(112,630,ls),
(113,697,o),
(147,730,o),
(214,730,cs),
(434,730,ls),
(501,730,o),
(534,697,o),
(534,630,cs),
(534,65,ls),
(534,15,o),
(509,-10,o),
(459,-10,cs),
(409,-10,o),
(384,15,o),
(384,65,cs),
(384,545,ls),
(384,579,o),
(368,595,o),
(334,595,cs),
(311,595,ls),
(277,595,o),
(261,578,o),
(260,545,cs),
(255,220,ls),
(253,90,o),
(203,18,o),
(104,-6,cs),
(48,-20,o),
(15,11,o),
(15,75,cs),
(15,101,o),
(27,115,o),
(60,126,cs),
(95,138,o),
(105,168,o),
(106,220,cs)
);
}
);
width = 600;
},
{
layerId = "2F9F64D1-8101-471E-9D78-CA49E27A5E76";
shapes = (
{
closed = 1;
nodes = (
(129,650,ls),
(130,704,o),
(156,730,o),
(210,730,cs),
(426,730,ls),
(480,730,o),
(506,704,o),
(506,650,cs),
(506,35,ls),
(506,5,o),
(491,-10,o),
(461,-10,cs),
(431,-10,o),
(416,5,o),
(416,35,cs),
(416,608,ls),
(416,635,o),
(403,648,o),
(376,648,cs),
(259,648,ls),
(232,648,o),
(218,635,o),
(218,608,cs),
(212,246,ls),
(210,120,o),
(194,12,o),
(68,-9,cs),
(37,-14,o),
(20,2,o),
(20,35,cs),
(20,57,o),
(30,68,o),
(56,76,cs),
(124,96,o),
(121,176,o),
(122,246,cs)
);
}
);
width = 600;
},
{
layerId = "DE89D2D6-523F-41BC-8875-C89AC2ABC816";
shapes = (
{
closed = 1;
nodes = (
(146,670,ls),
(147,710,o),
(167,730,o),
(207,730,cs),
(430,730,ls),
(470,730,o),
(490,710,o),
(490,670,cs),
(490,15,ls),
(490,-2,o),
(482,-10,o),
(465,-10,cs),
(448,-10,o),
(440,-2,o),
(440,15,cs),
(440,654,ls),
(440,674,o),
(430,684,o),
(410,684,cs),
(227,684,ls),
(207,684,o),
(197,674,o),
(197,654,cs),
(189,158,ls),
(187,52,o),
(147,-10,o),
(50,-10,cs),
(34,-10,o),
(25,-3,o),
(25,14,cs),
(25,30,o),
(33,40,o),
(50,40,cs),
(115,40,o),
(138,82,o),
(139,158,cs)
);
}
);
width = 600;
}
);
unicode = 1051;
},
{
glyphname = "Pe-cy";
layers = (
{
layerId = "DA9EFFB3-F552-472D-9366-30BF08E10A4D";
shapes = (
{
closed = 1;
nodes = (
(91,-10,o),
(66,15,o),
(66,65,cs),
(66,630,ls),
(66,697,o),
(99,730,o),
(166,730,cs),
(434,730,ls),
(501,730,o),
(534,697,o),
(534,630,cs),
(534,65,ls),
(534,15,o),
(509,-10,o),
(459,-10,cs),
(409,-10,o),
(384,15,o),
(384,65,cs),
(384,545,ls),
(384,579,o),
(368,595,o),
(334,595,cs),
(266,595,ls),
(232,595,o),
(216,579,o),
(216,545,cs),
(216,65,ls),
(216,15,o),
(191,-10,o),
(141,-10,cs)
);
}
);
width = 600;
},
{
layerId = "2F9F64D1-8101-471E-9D78-CA49E27A5E76";
shapes = (
{
closed = 1;
nodes = (
(109,-10,o),
(94,5,o),
(94,35,cs),
(94,650,ls),
(94,704,o),
(120,730,o),
(174,730,cs),
(426,730,ls),
(480,730,o),
(506,704,o),
(506,650,cs),
(506,35,ls),
(506,5,o),
(491,-10,o),
(461,-10,cs),
(431,-10,o),
(416,5,o),
(416,35,cs),
(416,608,ls),
(416,635,o),
(403,648,o),
(376,648,cs),
(224,648,ls),
(197,648,o),
(184,635,o),
(184,608,cs),
(184,35,ls),
(184,5,o),
(169,-10,o),
(139,-10,cs)
);
}
);
width = 600;
},
{
layerId = "DE89D2D6-523F-41BC-8875-C89AC2ABC816";
shapes = (
{
closed = 1;
nodes = (
(118,-10,o),
(110,-2,o),
(110,15,cs),
(110,670,ls),
(110,710,o),
(130,730,o),
(170,730,cs),
(430,730,ls),
(470,730,o),
(490,710,o),
(490,670,cs),
(490,15,ls),
(490,-2,o),
(482,-10,o),
(465,-10,cs),
(448,-10,o),
(440,-2,o),
(440,15,cs),
(440,655,ls),
(440,675,o),
(430,685,o),
(410,685,cs),
(190,685,ls),
(170,685,o),
(160,675,o),
(160,655,cs),
(160,15,ls),
(160,-2,o),
(152,-10,o),
(135,-10,cs)
);
}
);
width = 600;
}
);
unicode = 1055;
},
{
glyphname = "U-cy";
layers = (
{
anchors = (
{
name = top;
position = "{300, 730}";
}
);
layerId = "DA9EFFB3-F552-472D-9366-30BF08E10A4D";
shapes = (
{
closed = 1;
nodes = (
(199,-10,o),
(174,12,o),
(197,83,cs),
(224,165,ls),
(229,181,o),
(230,195,o),
(224,211,cs),
(61,647,ls),
(37,710,o),
(58,740,o),
(125,740,cs),
(164,740,o),
(190,734,o),
(203,693,cs),
(299,391,ls),
(304,375,o),
(309,375,o),
(314,391,cs),
(403,692,ls),
(414,730,o),
(438,740,o),
(475,740,cs),
(542,740,o),
(563,709,o),
(542,646,cs),
(335,37,ls),
(324,5,o),
(301,-10,o),
(268,-10,cs)
);
}
);
width = 600;
},
{
anchors = (
{
name = top;
position = "{300, 730}";
}
);
layerId = "2F9F64D1-8101-471E-9D78-CA49E27A5E76";
shapes = (
{
closed = 1;
nodes = (
(212,-10,o),
(199,10,o),
(214,50,cs),
(258,170,ls),
(262,182,o),
(263,196,o),
(258,208,cs),
(74,679,ls),
(58,720,o),
(71,740,o),
(115,740,cs),
(137,740,o),
(152,730,o),
(159,709,cs),
(302,307,ls),
(307,294,o),
(311,294,o),
(315,307,cs),
(442,709,ls),
(449,730,o),
(463,740,o),
(485,740,cs),
(529,740,o),
(542,720,o),
(528,679,cs),
(298,20,ls),
(291,0,o),
(276,-10,o),
(255,-10,cs)
);
}
);
width = 600;
},
{
anchors = (
{
name = top;
position = "{300, 730}";
}
);
layerId = "DE89D2D6-523F-41BC-8875-C89AC2ABC816";
shapes = (
{
closed = 1;
nodes = (
(222,-10,o),
(214,1,o),
(223,25,cs),
(279,177,ls),
(282,186,o),
(282,196,o),
(278,205,cs),
(82,705,ls),
(73,729,o),
(81,740,o),
(106,740,cs),
(119,740,o),
(127,734,o),
(132,722,cs),
(303,269,ls),
(306,260,o),
(310,260,o),
(313,269,cs),
(472,723,ls),
(476,734,o),
(484,740,o),
(496,740,cs),
(520,740,o),
(528,729,o),
(520,706,cs),
(273,8,ls),
(269,-4,o),
(260,-10,o),
(247,-10,cs)
);
}
);
width = 600;
}
);
unicode = 1059;
},
{
glyphname = "Ef-cy";
layers = (
{
layerId = "DA9EFFB3-F552-472D-9366-30BF08E10A4D";
shapes = (
{
closed = 1;
nodes = (
(249,-25,o),
(225,-5,o),
(225,48,cs),
(225,55,l),
(115,59,o),
(45,145,o),
(26,274,cs),
(16,341,o),
(16,409,o),
(26,476,cs),
(45,606,o),
(115,691,o),
(225,695,c),
(225,697,ls),
(225,750,o),
(249,770,o),
(300,770,cs),
(349,770,o),
(375,746,o),
(375,697,cs),
(375,695,l),
(485,691,o),
(555,605,o),
(574,476,cs),
(584,409,o),
(584,341,o),
(574,274,cs),
(555,145,o),
(485,59,o),
(375,55,c),
(375,48,ls),
(375,-1,o),
(349,-25,o),
(300,-25,cs)
);
},
{
closed = 1;
nodes = (
(243,580,l),
(196,580,o),
(160,539,o),
(151,476,cs),
(141,409,o),
(141,341,o),
(151,274,cs),
(160,212,o),
(196,171,o),
(243,171,c)
);
},
{
closed = 1;
nodes = (
(357,171,l),
(404,171,o),
(440,212,o),
(449,274,cs),
(459,341,o),
(459,409,o),
(449,476,cs),
(440,539,o),
(404,580,o),
(357,580,c)
);
}
);
width = 600;
},
{
layerId = "2F9F64D1-8101-471E-9D78-CA49E27A5E76";
shapes = (
{
closed = 1;
nodes = (
(270,-25,o),
(255,-10,o),
(255,20,cs),
(255,55,l),
(145,55,o),
(63,138,o),
(46,263,cs),
(36,335,o),
(36,410,o),
(46,482,cs),
(64,610,o),
(144,695,o),
(255,695,c),
(255,725,ls),
(255,755,o),
(270,770,o),
(300,770,cs),
(330,770,o),
(345,755,o),
(345,725,cs),
(345,695,l),
(456,695,o),
(536,610,o),
(554,482,cs),
(564,410,o),
(564,335,o),
(554,263,cs),
(537,138,o),
(455,55,o),
(345,55,c),
(345,20,ls),
(345,-10,o),
(330,-25,o),
(300,-25,cs)
);
},
{
closed = 1;
nodes = (
(259,619,l),
(194,619,o),
(142,566,o),
(130,482,cs),
(120,410,o),
(120,335,o),
(130,263,cs),
(141,182,o),
(194,131,o),
(259,131,c)
);
},
{
closed = 1;
nodes = (
(341,131,l),
(406,131,o),
(459,182,o),
(470,263,cs),
(480,335,o),
(480,410,o),
(470,482,cs),
(458,566,o),
(406,619,o),
(341,619,c)
);
}
);
width = 600;
},
{
layerId = "DE89D2D6-523F-41BC-8875-C89AC2ABC816";
shapes = (
{
closed = 1;
nodes = (
(283,-25,o),
(275,-17,o),
(275,0,cs),
(275,55,l),
(156,55,o),
(76,133,o),
(60,257,cs),
(50,336,o),
(50,417,o),
(60,496,cs),
(75,618,o),
(155,695,o),
(275,695,c),
(275,745,ls),
(275,762,o),
(283,770,o),
(300,770,cs),
(317,770,o),
(325,762,o),
(325,745,cs),
(325,695,l),
(445,695,o),
(525,617,o),
(540,496,cs),
(550,417,o),
(550,336,o),
(540,257,cs),
(524,134,o),
(444,55,o),
(325,55,c),
(325,0,ls),
(325,-17,o),
(317,-25,o),
(300,-25,cs)
);
},
{
closed = 1;
nodes = (
(275,651,l),
(191,651,o),
(121,585,o),
(110,496,cs),
(100,417,o),
(100,336,o),
(110,257,cs),
(121,166,o),
(192,100,o),
(275,100,c)
);
},
{
closed = 1;
nodes = (
(325,100,l),
(408,100,o),
(479,167,o),
(490,257,cs),
(500,336,o),
(500,417,o),
(490,496,cs),
(479,584,o),
(409,651,o),
(325,651,c)
);
}
);
width = 600;
}
);
unicode = 1060;
},
{
glyphname = "Che-cy";
layers = (
{
anchors = (
{
name = top;
position = "{300, 730}";
},
{
name = bottomright;
position = "{580, 0}";
}
);
layerId = "DA9EFFB3-F552-472D-9366-30BF08E10A4D";
shapes = (
{
closed = 1;
nodes = (
(380,250,l),
(270,250,ls),
(165,250,o),
(50,355,o),
(50,450,qs),
(50,665,ls),
(50,715,o),
(75,740,o),
(125,740,cs),
(175,740,o),
(200,715,o),
(200,665,cs),
(200,460,ls),
(200,426,o),
(248,385,o),
(289,385,qs),
(380,385,l),
(380,665,l),
(380,715,o),
(405,740,o),
(455,740,cs),
(505,740,o),
(530,715,o),
(530,665,cs),
(530,65,ls),
(530,15,o),
(505,-10,o),
(455,-10,cs),
(405,-10,o),
(380,15,o),
(380,65,c)
);
}
);
width = 600;
},
{
anchors = (
{
name = bottomright;
position = "{580, 0}";
},
{
name = top;
position = "{300, 730}";
}
);
layerId = "2F9F64D1-8101-471E-9D78-CA49E27A5E76";
shapes = (
{
closed = 1;
nodes = (
(415,271,l),
(275,271,ls),
(181,271,o),
(75,367,o),
(75,451,qs),
(75,695,ls),
(75,725,o),
(90,740,o),
(120,740,cs),
(150,740,o),
(165,725,o),
(165,695,cs),
(165,451,ls),
(165,403,o),
(228,351,o),
(285,351,qs),
(415,351,l),
(415,695,l),
(415,725,o),
(430,740,o),
(460,740,cs),
(490,740,o),
(505,725,o),
(505,695,cs),
(505,35,ls),
(505,5,o),
(490,-10,o),
(460,-10,cs),
(430,-10,o),
(415,5,o),
(415,35,c)
);
}
);
width = 600;
},
{
anchors = (
{
name = top;
position = "{300, 730}";
},
{
name = bottomright;
position = "{580, 0}";
}
);
layerId = "DE89D2D6-523F-41BC-8875-C89AC2ABC816";
shapes = (
{
closed = 1;
nodes = (
(441,289,l),
(300,289,ls),
(197,289,o),
(90,385,o),
(90,479,qs),
(90,715,ls),
(90,732,o),
(98,740,o),
(115,740,cs),
(132,740,o),
(140,732,o),
(140,715,cs),
(140,479,ls),
(140,408,o),
(221,334,o),
(300,334,qs),
(440,334,l),
(440,715,l),
(440,732,o),
(448,740,o),
(465,740,cs),
(482,740,o),
(490,732,o),
(490,715,cs),
(490,15,ls),
(490,-2,o),
(482,-10,o),
(465,-10,cs),
(448,-10,o),
(440,-2,o),
(440,15,c)
);
}
);
width = 600;
}
);
unicode = 1063;
},
